{
.appVersion = "3151";
.formatVersion = 3;
classes = (
{
code = "hungarumlaut acute ampersand circumflex grave a b c d e f g h i j k l m n o p q r s t u v w x y z tilde lslash scaron zcaron dieresis breve caron dotaccent macron ogonek ring cedilla agrave aacute acircumflex atilde adieresis aring ae ccedilla egrave eacute ecircumflex edieresis igrave iacute icircumflex idieresis eth ntilde ograve oacute ocircumflex otilde odieresis oe oslash ugrave uacute ucircumflex udieresis yacute thorn ydieresis fi fl germandbls ordfeminine ordmasculine exclam question exclamdown questiondown";
name = normal;
},
{
code = "parenleft parenright";
name = num_lfig;
},
{
code = "zero one two three four five six seven eight nine parenleft parenright";
name = snum;
},
{
code = "onesuperior twosuperior threesuperior";
name = num_sups;
},
{
code = "onehalf onequarter threequarters";
name = num_frac;
},
{
code = "A B C D E F G H I J K L M N O P Q R S T U V W X Y Z AE OE germandbls Eth Aacute Acircumflex Adieresis Agrave Aring Atilde Ccedilla Eacute Ecircumflex Edieresis Egrave Iacute Icircumflex Idieresis Igrave Ntilde Oacute Ocircumflex Odieresis Ograve Otilde Scaron Uacute Ucircumflex Udieresis Ugrave Yacute Ydieresis Zcaron";
name = mayusculas;
},
{
code = "parenleft parenright hyphen bracketleft bracketright braceleft bar braceright brokenbar guillemetleft guillemetright endash emdash bullet guilsinglleft guilsinglright
";
name = case1;
},
{
automatic = 1;

glyphs = (
{
glyphname = A;
kernLeft = A;
kernRight = A;
layers = (
{
anchors = (
{
name = bottom;
pos = (353,0);
},
{
name = ogonek;
pos = (635,10);
},
{
name = top;
pos = (333,718);
}
);
background = {
shapes = (
{
closed = 1;
nodes = (
(682,0,l),
(695,16,l),
(652,49,o),
(628,72,o),
(605,138,cs),
(404,718,l),
(211,718,l),
(199,684,l),
(222,678,ls),
(253,670,o),
(267,659,o),
(267,634,cs),
(267,621,o),
(263,606,o),
(256,585,cs),
(99,133,ls),
(78,71,o),
(60,55,o),
(7,40,cs),
(-16,34,l),
(-4,0,l),
(180,0,l),
(199,16,l),
(190,34,ls),
(180,53,o),
(176,73,o),
(176,95,cs),
(176,123,o),
(184,155,o),
(199,200,cs),
(223,273,l),
(454,273,l),
(502,133,ls),
(509,112,o),
(513,97,o),
(513,84,cs),
(513,59,o),
(499,48,o),
(468,40,cs),
(445,34,l),
(457,0,l)
);
},
{
closed = 1;
nodes = (
(337,615,l),
(433,335,l),
(244,335,l)
);
}
);
};
hints = (
{
horizontal = 1;
place = (273, 62);
place = (273, 62);
type = Stem;
},
{
horizontal = 1;
place = (0, 21);
target = up;
type = BottomGhost;
},
{
horizontal = 1;
place = (718, -20);
target = down;
type = TopGhost;
}
);
layerId = UUID0;
shapes = (
{
closed = 1;
nodes = (
(180,0,l),
(199,16,l),
(190,34,ls),
(180,53,o),
(176,73,o),
(176,95,cs),
(176,123,o),
(184,155,o),
(199,200,cs),
(223,273,l),
(454,273,l),
(502,133,ls),
(509,112,o),
(513,97,o),
(513,84,cs),
(513,59,o),
(499,48,o),
(468,40,cs),
(445,34,l),
(457,0,l),
(682,0,l),
(695,16,l),
(652,49,o),
(628,72,o),
(605,138,cs),
(404,718,l),
(211,718,l),
(199,684,l),
(222,678,ls),
(253,670,o),
(267,659,o),
(267,634,cs),
(267,621,o),
(263,606,o),
(256,585,cs),
(99,133,ls),
(78,71,o),
(60,54,o),
(7,40,cs),
(-16,34,l),
(-4,0,l)
);
},
{
closed = 1;
nodes = (
(337,615,l),
(433,335,l),
(244,335,l)
);
}
);
width = 706;
}
);
unicode = 65;
},
{
glyphname = Aacute;
kernLeft = A;
kernRight = A;
layers = (
{
background = {
hints = (
{
horizontal = 1;
place = (273, 62);
place = (273, 62);
type = Stem;
},
{
horizontal = 1;
place = (0, 21);
target = up;
type = BottomGhost;
},
{
horizontal = 1;
place = (718, -20);
target = down;
type = TopGhost;
},
{
horizontal = 1;
place = (790, 21);
target = up;
type = BottomGhost;
},
{
horizontal = 1;
place = (981, -20);
target = down;
type = TopGhost;
}
);
shapes = (
{
closed = 1;
nodes = (
(682,0,l),
(695,16,l),
(652,49,o),
(628,72,o),
(605,138,cs),
(404,718,l),
(211,718,l),
(199,684,l),
(222,678,ls),
(253,670,o),
(267,659,o),
(267,634,cs),
(267,621,o),
(263,606,o),
(256,585,cs),
(99,133,ls),
(78,71,o),
(60,55,o),
(7,40,cs),
(-16,34,l),
(-4,0,l),
(180,0,l),
(199,16,l),
(190,34,ls),
(180,53,o),
(176,73,o),
(176,95,cs),
(176,123,o),
(184,155,o),
(199,200,cs),
(223,273,l),
(454,273,l),
(502,133,ls),
(509,112,o),
(513,97,o),
(513,84,cs),
(513,59,o),
(499,48,o),
(468,40,cs),
(445,34,l),
(457,0,l)
);
},
{
closed = 1;
nodes = (
(337,615,l),
(433,335,l),
(244,335,l)
);
},
{
closed = 1;
nodes = (
(254,825,l),
(283,790,l),
(396,846,ls),
(437,866,o),
(452,889,o),
(452,918,cs),
(452,947,o),
(435,969,o),
(410,981,c)
);
}
);
};
layerId = UUID0;
shapes = (
{
ref = A;
},
{
pos = (205,0);
ref = acutecomb.case;
}
);
width = 706;
}
);
unicode = 193;
},
{
glyphname = Acircumflex;
kernLeft = A;
kernRight = A;
layers = (
{
background = {
hints = (
{
horizontal = 1;
place = (273, 62);
place = (273, 62);
type = Stem;
},
{
horizontal = 1;
place = (0, 21);
target = up;
type = BottomGhost;
},
{
horizontal = 1;
place = (718, -20);
target = down;
type = TopGhost;
},
{
horizontal = 1;
place = (976, -20);
target = down;
type = TopGhost;
},
{
horizontal = 1;
place = (790, 21);
target = up;
type = BottomGhost;
}
);
shapes = (
{
closed = 1;
nodes = (
(682,0,l),
(695,16,l),
(652,49,o),
(628,72,o),
(605,138,cs),
(404,718,l),
(211,718,l),
(199,684,l),
(222,678,ls),
(253,670,o),
(267,659,o),
(267,634,cs),
(267,621,o),
(263,606,o),
(256,585,cs),
(99,133,ls),
(78,71,o),
(60,55,o),
(7,40,cs),
(-16,34,l),
(-4,0,l),
(180,0,l),
(199,16,l),
(190,34,ls),
(180,53,o),
(176,73,o),
(176,95,cs),
(176,123,o),
(184,155,o),
(199,200,cs),
(223,273,l),
(454,273,l),
(502,133,ls),
(509,112,o),
(513,97,o),
(513,84,cs),
(513,59,o),
(499,48,o),
(468,40,cs),
(445,34,l),
(457,0,l)
);
},
{
closed = 1;
nodes = (
(337,615,l),
(433,335,l),
(244,335,l)
);
},
{
closed = 1;
nodes = (
(340,976,l),
(314,961,o),
(260,894,o),
(216,818,c),
(249,790,l),
(353,873,l),
(458,790,l),
(490,818,l),
(446,896,o),
(389,963,o),
(367,976,c)
);
}
);
};
layerId = UUID0;
shapes = (
{
ref = A;
},
{
pos = (195,0);
ref = circumflexcomb.case;
}
);
width = 706;
}
);
unicode = 194;
},
{
glyphname = Adieresis;
kernLeft = A;
kernRight = A;
layers = (
{
background = {
hints = (
{
horizontal = 1;
place = (273, 62);
place = (273, 62);
type = Stem;
},
{
horizontal = 1;
place = (0, 21);
target = up;
type = BottomGhost;
},
{
horizontal = 1;
place = (718, -20);
target = down;
type = TopGhost;
},
{
horizontal = 1;
place = (814, 21);
target = up;
type = BottomGhost;
},
{
horizontal = 1;
place = (945, -20);
target = down;
type = TopGhost;
}
);
shapes = (
{
closed = 1;
nodes = (
(682,0,l),
(695,16,l),
(652,49,o),
(628,72,o),
(605,138,cs),
(404,718,l),
(211,718,l),
(199,684,l),
(222,678,ls),
(253,670,o),
(267,659,o),
(267,634,cs),
(267,621,o),
(263,606,o),
(256,585,cs),
(99,133,ls),
(78,71,o),
(60,55,o),
(7,40,cs),
(-16,34,l),
(-4,0,l),
(180,0,l),
(199,16,l),
(190,34,ls),
(180,53,o),
(176,73,o),
(176,95,cs),
(176,123,o),
(184,155,o),
(199,200,cs),
(223,273,l),
(454,273,l),
(502,133,ls),
(509,112,o),
(513,97,o),
(513,84,cs),
(513,59,o),
(499,48,o),
(468,40,cs),
(445,34,l),
(457,0,l)
);
},
{
closed = 1;
nodes = (
(337,615,l),
(433,335,l),
(244,335,l)
);
},
{
closed = 1;
nodes = (
(196,853,o),
(234,814,o),
(257,814,cs),
(282,814,o),
(320,853,o),
(320,879,cs),
(320,905,o),
(282,945,o),
(257,945,cs),
(233,945,o),
(196,905,o),
(196,879,cs)
);
},
{
closed = 1;
nodes = (
(385,853,o),
(423,814,o),
(446,814,cs),
(471,814,o),
(509,853,o),
(509,879,cs),
(509,905,o),
(471,945,o),
(446,945,cs),
(422,945,o),
(385,905,o),
(385,879,cs)
);
}
);
};
layerId = UUID0;
shapes = (
{
ref = A;
},
{
pos = (195,0);
ref = dieresiscomb.case;
}
);
width = 706;
}
);
unicode = 196;
},
{
glyphname = Agrave;
kernLeft = A;
kernRight = A;
layers = (
{
background = {
hints = (
{
horizontal = 1;
place = (273, 62);
place = (273, 62);
type = Stem;
},
{
horizontal = 1;
place = (0, 21);
target = up;
type = BottomGhost;
},
{
horizontal = 1;
place = (718, -20);
target = down;
type = TopGhost;
},
{
horizontal = 1;
place = (981, -20);
target = down;
type = TopGhost;
},
{
horizontal = 1;
place = (790, 21);
target = up;
type = BottomGhost;
}
);
shapes = (
{
closed = 1;
nodes = (
(682,0,l),
(695,16,l),
(652,49,o),
(628,72,o),
(605,138,cs),
(404,718,l),
(211,718,l),
(199,684,l),
(222,678,ls),
(253,670,o),
(267,659,o),
(267,634,cs),
(267,621,o),
(263,606,o),
(256,585,cs),
(99,133,ls),
(78,71,o),
(60,55,o),
(7,40,cs),
(-16,34,l),
(-4,0,l),
(180,0,l),
(199,16,l),
(190,34,ls),
(180,53,o),
(176,73,o),
(176,95,cs),
(176,123,o),
(184,155,o),
(199,200,cs),
(223,273,l),
(454,273,l),
(502,133,ls),
(509,112,o),
(513,97,o),
(513,84,cs),
(513,59,o),
(499,48,o),
(468,40,cs),
(445,34,l),
(457,0,l)
);
},
{
closed = 1;
nodes = (
(337,615,l),
(433,335,l),
(244,335,l)
);
},
{
closed = 1;
nodes = (
(296,981,l),
(271,969,o),
(254,947,o),
(254,918,cs),
(254,889,o),
(269,866,o),
(310,846,cs),
(423,790,l),
(452,825,l)
);
}
);
};
layerId = UUID0;
shapes = (
{
ref = A;
},
{
pos = (195,221);
ref = gravecomb.case;
}
);
width = 706;
}
);
unicode = 192;
},
{
glyphname = Aring;
kernLeft = A;
kernRight = A;
layers = (
{
background = {
hints = (
{
horizontal = 1;
place = (273, 62);
place = (273, 62);
type = Stem;
},
{
horizontal = 1;
place = (0, 21);
target = up;
type = BottomGhost;
},
{
horizontal = 1;
place = (718, -20);
target = down;
type = TopGhost;
},
{
place = (239, 70);
place = (239, 70);
type = Stem;
},
{
place = (395, 71);
place = (395, 71);
type = Stem;
},
{
horizontal = 1;
place = (773, 48);
place = (773, 48);
type = Stem;
},
{
horizontal = 1;
place = (937, 49);
place = (937, 49);
type = Stem;
}
);
shapes = (
{
closed = 1;
nodes = (
(682,0,l),
(695,16,l),
(652,49,o),
(628,72,o),
(605,138,cs),
(404,718,l),
(211,718,l),
(199,684,l),
(222,678,ls),
(253,670,o),
(267,659,o),
(267,634,cs),
(267,621,o),
(263,606,o),
(256,585,cs),
(99,133,ls),
(78,71,o),
(60,55,o),
(7,40,cs),
(-16,34,l),
(-4,0,l),
(180,0,l),
(199,16,l),
(190,34,ls),
(180,53,o),
(176,73,o),
(176,95,cs),
(176,123,o),
(184,155,o),
(199,200,cs),
(223,273,l),
(454,273,l),
(502,133,ls),
(509,112,o),
(513,97,o),
(513,84,cs),
(513,59,o),
(499,48,o),
(468,40,cs),
(445,34,l),
(457,0,l)
);
},
{
closed = 1;
nodes = (
(337,615,l),
(433,335,l),
(244,335,l)
);
},
{
closed = 1;
nodes = (
(309,911,o),
(324,937,o),
(351,937,cs),
(380,937,o),
(395,911,o),
(395,879,cs),
(395,847,o),
(380,821,o),
(351,821,cs),
(324,821,o),
(309,847,o),
(309,879,cs)
);
},
{
closed = 1;
nodes = (
(239,819,o),
(277,773,o),
(351,773,cs),
(428,773,o),
(466,819,o),
(466,879,cs),
(466,939,o),
(428,986,o),
(351,986,cs),
(277,986,o),
(239,939,o),
(239,879,cs)
);
}
);
};
layerId = UUID0;
shapes = (
{
ref = A;
},
{
pos = (195,0);
ref = ringcomb.case;
}
);
width = 706;
}
);
unicode = 197;
},
{
glyphname = Atilde;
kernLeft = A;
kernRight = A;
layers = (
{
background = {
hints = (
{
horizontal = 1;
place = (273, 62);
place = (273, 62);
type = Stem;
},
{
horizontal = 1;
place = (0, 21);
target = up;
type = BottomGhost;
},
{
horizontal = 1;
place = (718, -20);
target = down;
type = TopGhost;
},
{
horizontal = 1;
place = (851, 54);
place = (851, 54);
type = Stem;
},
{
horizontal = 1;
place = (944, -20);
target = down;
type = TopGhost;
},
{
horizontal = 1;
place = (940, -20);
target = down;
type = TopGhost;
},
{
horizontal = 1;
place = (812, 21);
target = up;
type = BottomGhost;
}
);
shapes = (
{
closed = 1;
nodes = (
(682,0,l),
(695,16,l),
(652,49,o),
(628,72,o),
(605,138,cs),
(404,718,l),
(211,718,l),
(199,684,l),
(222,678,ls),
(253,670,o),
(267,659,o),
(267,634,cs),
(267,621,o),
(263,606,o),
(256,585,cs),
(99,133,ls),
(78,71,o),
(60,55,o),
(7,40,cs),
(-16,34,l),
(-4,0,l),
(180,0,l),
(199,16,l),
(190,34,ls),
(180,53,o),
(176,73,o),
(176,95,cs),
(176,123,o),
(184,155,o),
(199,200,cs),
(223,273,l),
(454,273,l),
(502,133,ls),
(509,112,o),
(513,97,o),
(513,84,cs),
(513,59,o),
(499,48,o),
(468,40,cs),
(445,34,l),
(457,0,l)
);
},
{
closed = 1;
nodes = (
(337,615,l),
(433,335,l),
(244,335,l)
);
},
{
closed = 1;
nodes = (
(480,944,l),
(451,916,o),
(429,905,o),
(412,905,cs),
(380,905,o),
(361,940,o),
(318,940,cs),
(279,940,o),
(232,902,o),
(189,843,c),
(224,812,l),
(251,839,o),
(275,851,o),
(291,851,cs),
(323,851,o),
(341,816,o),
(386,816,cs),
(424,816,o),
(472,854,o),
(514,913,c)
);
}
);
};
layerId = UUID0;
shapes = (
{
ref = A;
},
{
pos = (195,0);
ref = tildecomb.case;
}
);
width = 706;
}
);
unicode = 195;
},
{
glyphname = AE;
layers = (
{
anchors = (
{
name = bottom;
pos = (482,0);
},
{
name = top;
pos = (482,718);
}
);
background = {
shapes = (
{
closed = 1;
nodes = (
(665,306,ls),
(736,306,o),
(762,296,o),
(774,249,cs),
(780,226,l),
(814,238,l),
(814,409,l),
(794,420,l),
(786,409,ls),
(761,374,o),
(738,363,o),
(707,363,cs),
(580,363,l),
(580,585,ls),
(580,647,o),
(592,661,o),
(644,661,cs),
(741,661,ls),
(812,661,o),
(831,643,o),
(850,572,cs),
(856,549,l),
(890,561,l),
(890,739,l),
(874,752,l),
(856,739,ls),
(836,724,o),
(800,718,o),
(742,718,cs),
(435,718,l),
(87,94,ls),
(66,57,o),
(38,48,o),
(9,40,cs),
(-14,34,l),
(-2,0,l),
(182,0,l),
(201,16,l),
(192,34,ls),
(187,45,o),
(179,63,o),
(179,79,cs),
(179,100,o),
(180,117,o),
(200,154,cs),
(283,306,l),
(481,306,l),
(481,126,ls),
(481,67,o),
(468,52,o),
(420,38,cs),
(399,32,l),
(410,0,l),
(831,0,ls),
(852,0,o),
(865,-4,o),
(873,-14,cs),
(881,-25,l),
(901,-14,l),
(901,157,l),
(867,169,l),
(861,146,ls),
(842,75,o),
(823,57,o),
(752,57,cs),
(644,57,ls),
(592,57,o),
(580,71,o),
(580,133,cs),
(580,306,l)
);
},
{
closed = 1;
nodes = (
(315,363,l),
(481,665,l),
(481,363,l)
);
}
);
};
hints = (
{
place = (481, 99);
place = (481, 99);
type = Stem;
},
{
horizontal = 1;
place = (0, 57);
place = (0, 57);
type = Stem;
},
{
horizontal = 1;
place = (306, 57);
place = (306, 57);
type = Stem;
},
{
horizontal = 1;
place = (661, 57);
place = (661, 57);
type = Stem;
},
{
horizontal = 1;
place = (752, -20);
target = down;
type = TopGhost;
},
{
horizontal = 1;
place = (-25, 21);
target = up;
type = BottomGhost;
}
);
layerId = UUID0;
shapes = (
{
closed = 1;
nodes = (
(901,-14,l),
(901,157,l),
(867,169,l),
(861,146,ls),
(842,75,o),
(823,57,o),
(752,57,cs),
(644,57,ls),
(592,57,o),
(580,71,o),
(580,133,cs),
(580,306,l),
(665,306,ls),
(736,306,o),
(762,296,o),
(774,249,cs),
(780,226,l),
(814,238,l),
(814,409,l),
(794,420,l),
(786,409,ls),
(761,374,o),
(738,363,o),
(707,363,cs),
(580,363,l),
(580,585,ls),
(580,647,o),
(592,661,o),
(644,661,cs),
(741,661,ls),
(812,661,o),
(831,643,o),
(850,572,cs),
(856,549,l),
(890,561,l),
(890,739,l),
(874,752,l),
(856,739,ls),
(836,724,o),
(800,718,o),
(742,718,cs),
(435,718,l),
(87,94,ls),
(66,57,o),
(38,48,o),
(9,40,cs),
(-14,34,l),
(-2,0,l),
(182,0,l),
(201,16,l),
(192,34,ls),
(187,45,o),
(179,63,o),
(179,79,cs),
(179,100,o),
(180,117,o),
(200,154,cs),
(283,306,l),
(481,306,l),
(481,126,ls),
(481,67,o),
(468,52,o),
(420,38,cs),
(399,32,l),
(410,0,l),
(831,0,ls),
(852,0,o),
(865,-4,o),
(873,-14,cs),
(881,-25,l)
);
},
{
closed = 1;
nodes = (
(481,665,l),
(481,363,l),
(315,363,l)
);
}
);
width = 964;
}
);
unicode = 198;
},
{
glyphname = B;
layers = (
{
anchors = (
{
name = bottom;
pos = (326,0);
},
{
name = center;
pos = (326,359);
},
{
name = top;
pos = (326,718);
}
);
background = {
shapes = (
{
closed = 1;
nodes = (
(559,643,o),
(481,732,o),
(288,732,cs),
(195,732,o),
(91,708,o),
(40,688,c),
(52,651,l),
(110,651,ls),
(125,651,o),
(132,645,o),
(132,627,cs),
(132,133,ls),
(132,71,o),
(118,55,o),
(68,40,cs),
(45,34,l),
(57,0,l),
(336,0,ls),
(526,0,o),
(596,83,o),
(596,197,cs),
(596,269,o),
(544,334,o),
(454,364,c),
(526,398,o),
(559,464,o),
(559,535,cs)
);
},
{
closed = 1;
nodes = (
(231,630,ls),
(231,648,o),
(238,676,o),
(298,676,cs),
(404,676,o),
(460,614,o),
(460,533,cs),
(460,447,o),
(409,387,o),
(317,387,cs),
(286,387,o),
(275,394,o),
(267,394,cs),
(257,394,o),
(253,386,o),
(253,376,cs),
(253,368,o),
(257,359,o),
(268,354,cs),
(282,347,o),
(309,341,o),
(333,341,cs),
(432,341,o),
(492,277,o),
(492,202,cs),
(492,115,o),
(438,52,o),
(342,52,cs),
(303,52,o),
(231,58,o),
(231,183,cs)
);
}
);
};
hints = (
{
place = (132, 99);
place = (132, 99);
type = Stem;
},
{
place = (460, 99);
place = (460, 99);
type = Stem;
},
{
place = (492, 104);
place = (492, 104);
type = Stem;
},
{
horizontal = 1;
place = (0, 52);
place = (0, 52);
type = Stem;
},
{
horizontal = 1;
place = (341, 46);
place = (341, 46);
type = Stem;
},
{
horizontal = 1;
place = (676, 56);
place = (676, 56);
type = Stem;
}
);
layerId = UUID0;
shapes = (
{
closed = 1;
nodes = (
(336,0,ls),
(526,0,o),
(596,83,o),
(596,197,cs),
(596,269,o),
(544,334,o),
(454,364,c),
(526,398,o),
(559,464,o),
(559,535,cs),
(559,643,o),
(481,732,o),
(288,732,cs),
(195,732,o),
(91,708,o),
(40,688,c),
(52,651,l),
(110,651,ls),
(125,651,o),
(132,645,o),
(132,627,cs),
(132,133,ls),
(132,71,o),
(118,55,o),
(68,40,cs),
(45,34,l),
(57,0,l)
);
},
{
closed = 1;
nodes = (
(303,52,o),
(231,58,o),
(231,183,cs),
(231,630,ls),
(231,648,o),
(238,676,o),
(298,676,cs),
(404,676,o),
(460,614,o),
(460,533,cs),
(460,447,o),
(409,387,o),
(317,387,cs),
(286,387,o),
(275,394,o),
(267,394,cs),
(257,394,o),
(253,386,o),
(253,376,cs),
(253,368,o),
(257,359,o),
(268,354,cs),
(282,347,o),
(309,341,o),
(333,341,cs),
(432,341,o),
(492,277,o),
(492,202,cs),
(492,115,o),
(438,52,o),
(342,52,cs)
);
}
);
width = 651;
}
);
unicode = 66;
},
{
glyphname = C;
kernLeft = C;
layers = (
{
anchors = (
{
name = bottom;
pos = (311,0);
},
{
name = top;
pos = (349,718);
}
);
background = {
shapes = (
{
closed = 1;
nodes = (
(139,732,o),
(35,564,o),
(35,358,cs),
(35,153,o),
(139,-14,o),
(355,-14,cs),
(461,-14,o),
(536,36,o),
(588,113,cs),
(590,116,o),
(591,119,o),
(591,121,cs),
(591,134,o),
(571,149,o),
(559,149,cs),
(556,149,o),
(554,148,o),
(552,145,cs),
(514,90,o),
(452,55,o),
(364,55,cs),
(230,55,o),
(148,192,o),
(148,358,cs),
(148,508,o),
(201,676,o),
(358,676,cs),
(434,676,o),
(485,633,o),
(485,571,cs),
(485,515,o),
(455,490,o),
(455,480,cs),
(455,472,o),
(461,468,o),
(476,468,cs),
(537,468,o),
(583,516,o),
(583,585,cs),
(583,672,o),
(490,732,o),
(358,732,cs)
);
}
);
};
hints = (
{
place = (35, 113);
place = (35, 113);
type = Stem;
},
{
place = (485, 98);
place = (485, 98);
type = Stem;
},
{
horizontal = 1;
place = (-14, 69);
place = (-14, 69);
type = Stem;
},
{
horizontal = 1;
place = (676, 56);
place = (676, 56);
type = Stem;
}
);
layerId = UUID0;
shapes = (
{
closed = 1;
nodes = (
(461,-14,o),
(536,36,o),
(588,113,cs),
(590,116,o),
(591,119,o),
(591,121,cs),
(591,134,o),
(571,149,o),
(559,149,cs),
(556,149,o),
(554,148,o),
(552,145,cs),
(514,90,o),
(452,55,o),
(364,55,cs),
(230,55,o),
(148,192,o),
(148,358,cs),
(148,508,o),
(201,676,o),
(358,676,cs),
(434,676,o),
(485,633,o),
(485,571,cs),
(485,515,o),
(455,490,o),
(455,480,cs),
(455,472,o),
(461,468,o),
(476,468,cs),
(537,468,o),
(583,516,o),
(583,585,cs),
(583,672,o),
(490,732,o),
(358,732,cs),
(139,732,o),
(35,564,o),
(35,358,cs),
(35,153,o),
(139,-14,o),
(355,-14,cs)
);
}
);
width = 617;
}
);
unicode = 67;
},
{
glyphname = Ccedilla;
kernLeft = C;
layers = (
{
background = {
hints = (
{
place = (35, 113);
place = (35, 113);
type = Stem;
},
{
place = (485, 98);
place = (485, 98);
type = Stem;
},
{
horizontal = 1;
place = (-14, 69);
place = (-14, 69);
type = Stem;
},
{
horizontal = 1;
place = (676, 56);
place = (676, 56);
type = Stem;
},
{
place = (188, 67);
place = (188, 67);
type = Stem;
},
{
place = (359, 74);
place = (359, 74);
type = Stem;
},
{
horizontal = 1;
place = (-295, 42);
place = (-295, 42);
type = Stem;
},
{
horizontal = 1;
place = (-103, 37);
place = (-103, 37);
type = Stem;
},
{
horizontal = 1;
place = (51, -20);
target = down;
type = TopGhost;
}
);
shapes = (
{
closed = 1;
nodes = (
(139,732,o),
(35,564,o),
(35,358,cs),
(35,153,o),
(139,-14,o),
(355,-14,cs),
(461,-14,o),
(536,36,o),
(588,113,cs),
(590,116,o),
(591,119,o),
(591,121,cs),
(591,134,o),
(571,149,o),
(559,149,cs),
(556,149,o),
(554,148,o),
(552,145,cs),
(514,90,o),
(452,55,o),
(364,55,cs),
(230,55,o),
(148,192,o),
(148,358,cs),
(148,508,o),
(201,676,o),
(358,676,cs),
(434,676,o),
(485,633,o),
(485,571,cs),
(485,515,o),
(455,490,o),
(455,480,cs),
(455,472,o),
(461,468,o),
(476,468,cs),
(537,468,o),
(583,516,o),
(583,585,cs),
(583,672,o),
(490,732,o),
(358,732,cs)
);
},
{
closed = 1;
nodes = (
(275,-253,o),
(255,-238,o),
(255,-214,cs),
(255,-184,o),
(269,-179,o),
(269,-170,cs),
(269,-164,o),
(262,-160,o),
(252,-160,cs),
(217,-160,o),
(188,-182,o),
(188,-218,cs),
(188,-269,o),
(242,-295,o),
(297,-295,cs),
(375,-295,o),
(433,-242,o),
(433,-179,cs),
(433,-102,o),
(379,-66,o),
(320,-66,cs),
(307,-66,o),
(295,-67,o),
(282,-70,c),
(359,29,l),
(335,51,l),
(217,-102,l),
(237,-120,l),
(257,-108,o),
(276,-103,o),
(292,-103,cs),
(337,-103,o),
(359,-140,o),
(359,-177,cs),
(359,-215,o),
(337,-253,o),
(296,-253,cs)
);
}
);
};
layerId = UUID0;
shapes = (
{
ref = C;
},
{
pos = (133,0);
ref = cedillacomb;
}
);
width = 617;
}
);
unicode = 199;
},
{
glyphname = D;
kernRight = D;
layers = (
{
anchors = (
{
name = bottom;
pos = (367,0);
},
{
name = center;
pos = (367,359);
},
{
name = top;
pos = (367,718);
}
);
background = {
shapes = (
{
closed = 1;
nodes = (
(366,0,ls),
(589,0,o),
(698,159,o),
(698,358,cs),
(698,557,o),
(605,732,o),
(306,732,cs),
(204,732,o),
(91,708,o),
(35,688,c),
(47,651,l),
(105,651,ls),
(120,651,o),
(127,645,o),
(127,627,cs),
(127,122,ls),
(127,67,o),
(100,50,o),
(63,40,cs),
(40,34,l),
(52,0,l)
);
},
{
closed = 1;
nodes = (
(226,630,l),
(226,648,o),
(236,676,o),
(324,676,cs),
(508,676,o),
(589,521,o),
(589,360,cs),
(589,160,o),
(508,51,o),
(334,51,cs),
(279,51,o),
(226,71,o),
(226,175,cs)
);
}
);
};
hints = (
{
place = (127, 99);
place = (127, 99);
type = Stem;
},
{
place = (589, 109);
place = (589, 109);
type = Stem;
},
{
horizontal = 1;
place = (0, 51);
place = (0, 51);
type = Stem;
},
{
horizontal = 1;
place = (676, 56);
place = (676, 56);
type = Stem;
}
);
layerId = UUID0;
shapes = (
{
closed = 1;
nodes = (
(366,0,ls),
(589,0,o),
(698,159,o),
(698,358,cs),
(698,557,o),
(605,732,o),
(306,732,cs),
(204,732,o),
(91,708,o),
(35,688,c),
(47,651,l),
(105,651,ls),
(120,651,o),
(127,645,o),
(127,627,cs),
(127,122,ls),
(127,67,o),
(100,50,o),
(63,40,cs),
(40,34,l),
(52,0,l)
);
},
{
closed = 1;
nodes = (
(279,51,o),
(226,71,o),
(226,175,cs),
(226,630,l),
(226,648,o),
(236,676,o),
(324,676,cs),
(508,676,o),
(589,521,o),
(589,360,cs),
(589,160,o),
(508,51,o),
(334,51,cs)
);
}
);
width = 733;
}
);
unicode = 68;
},
{
glyphname = Eth;
kernRight = D;
layers = (
{
background = {
hints = (
{
place = (127, 99);
place = (127, 99);
type = Stem;
},
{
place = (589, 109);
place = (589, 109);
type = Stem;
},
{
horizontal = 1;
place = (0, 51);
place = (0, 51);
type = Stem;
},
{
horizontal = 1;
place = (676, 56);
place = (676, 56);
type = Stem;
}
);
shapes = (
{
closed = 1;
nodes = (
(398,332,l),
(416,346,o),
(421,373,o),
(421,395,c),
(33,395,l),
(15,382,o),
(10,354,o),
(10,332,c)
);
},
{
closed = 1;
nodes = (
(366,0,ls),
(589,0,o),
(698,159,o),
(698,358,cs),
(698,557,o),
(605,732,o),
(306,732,cs),
(204,732,o),
(91,708,o),
(35,688,c),
(47,651,l),
(105,651,ls),
(120,651,o),
(127,645,o),
(127,627,cs),
(127,122,ls),
(127,67,o),
(100,50,o),
(63,40,cs),
(40,34,l),
(52,0,l)
);
},
{
closed = 1;
nodes = (
(226,630,l),
(226,648,o),
(236,676,o),
(324,676,cs),
(508,676,o),
(589,521,o),
(589,360,cs),
(589,160,o),
(508,51,o),
(334,51,cs),
(279,51,o),
(226,71,o),
(226,175,cs)
);
}
);
};
hints = (
{
horizontal = 1;
place = (332, 63);
place = (332, 63);
type = Stem;
}
);
layerId = UUID0;
shapes = (
{
closed = 1;
nodes = (
(398,332,l),
(416,346,o),
(421,373,o),
(421,395,c),
(33,395,l),
(15,382,o),
(10,354,o),
(10,332,c)
);
},
{
ref = D;
}
);
width = 733;
}
);
unicode = 208;
},
{
glyphname = E;
layers = (
{
anchors = (
{
name = bottom;
pos = (305,0);
},
{
name = ogonek;
pos = (519,10);
},
{
name = top;
pos = (321,718);
},
{
name = topleft;
pos = (20,718);
}
);
background = {
shapes = (
{
closed = 1;
nodes = (
(311,336,ls),
(382,336,o),
(408,326,o),
(420,279,cs),
(426,256,l),
(460,268,l),
(460,439,l),
(440,450,l),
(432,439,ls),
(407,404,o),
(384,393,o),
(353,393,cs),
(226,393,l),
(226,585,ls),
(226,647,o),
(238,661,o),
(290,661,cs),
(387,661,ls),
(458,661,o),
(477,643,o),
(496,572,cs),
(502,549,l),
(536,561,l),
(536,739,l),
(520,752,l),
(502,739,ls),
(482,724,o),
(446,718,o),
(388,718,cs),
(82,718,l),
(69,702,l),
(82,684,ls),
(115,640,o),
(127,598,o),
(127,517,cs),
(127,126,ls),
(127,67,o),
(114,52,o),
(66,38,cs),
(45,32,l),
(56,0,l),
(477,0,ls),
(498,0,o),
(511,-4,o),
(519,-14,cs),
(527,-25,l),
(547,-14,l),
(547,157,l),
(513,169,l),
(507,146,ls),
(488,75,o),
(469,57,o),
(398,57,cs),
(290,57,ls),
(238,57,o),
(226,71,o),
(226,133,cs),
(226,336,l)
);
}
);
};
hints = (
{
place = (127, 99);
place = (127, 99);
type = Stem;
},
{
horizontal = 1;
place = (0, 57);
place = (0, 57);
type = Stem;
},
{
horizontal = 1;
place = (336, 57);
place = (336, 57);
type = Stem;
},
{
horizontal = 1;
place = (661, 57);
place = (661, 57);
type = Stem;
},
{
horizontal = 1;
place = (752, -20);
target = down;
type = TopGhost;
},
{
horizontal = 1;
place = (-25, 21);
target = up;
type = BottomGhost;
}
);
layerId = UUID0;
shapes = (
{
closed = 1;
nodes = (
(547,-14,l),
(547,157,l),
(513,169,l),
(507,146,ls),
(488,75,o),
(469,57,o),
(398,57,cs),
(290,57,ls),
(238,57,o),
(226,71,o),
(226,133,cs),
(226,336,l),
(311,336,ls),
(382,336,o),
(408,326,o),
(420,279,cs),
(426,256,l),
(460,268,l),
(460,439,l),
(440,450,l),
(432,439,ls),
(407,404,o),
(384,393,o),
(353,393,cs),
(226,393,l),
(226,585,ls),
(226,647,o),
(238,661,o),
(290,661,cs),
(387,661,ls),
(458,661,o),
(477,643,o),
(496,572,cs),
(502,549,l),
(536,561,l),
(536,739,l),
(520,752,l),
(502,739,ls),
(482,724,o),
(446,718,o),
(388,718,cs),
(82,718,l),
(69,702,l),
(82,684,ls),
(114,639,o),
(127,598,o),
(127,517,cs),
(127,126,ls),
(127,67,o),
(114,52,o),
(66,38,cs),
(45,32,l),
(56,0,l),
(477,0,ls),
(498,0,o),
(511,-4,o),
(519,-14,cs),
(527,-25,l)
);
}
);
width = 610;
}
);
unicode = 69;
},
{
glyphname = Eacute;
layers = (
{
background = {
hints = (
{
place = (127, 99);
place = (127, 99);
type = Stem;
},
{
horizontal = 1;
place = (0, 57);
place = (0, 57);
type = Stem;
},
{
horizontal = 1;
place = (336, 57);
place = (336, 57);
type = Stem;
},
{
horizontal = 1;
place = (661, 57);
place = (661, 57);
type = Stem;
},
{
horizontal = 1;
place = (752, -20);
target = down;
type = TopGhost;
},
{
horizontal = 1;
place = (-25, 21);
target = up;
type = BottomGhost;
},
{
horizontal = 1;
place = (790, 21);
target = up;
type = BottomGhost;
},
{
horizontal = 1;
place = (981, -20);
target = down;
type = TopGhost;
}
);
shapes = (
{
closed = 1;
nodes = (
(311,336,ls),
(382,336,o),
(408,326,o),
(420,279,cs),
(426,256,l),
(460,268,l),
(460,439,l),
(440,450,l),
(432,439,ls),
(407,404,o),
(384,393,o),
(353,393,cs),
(226,393,l),
(226,585,ls),
(226,647,o),
(238,661,o),
(290,661,cs),
(387,661,ls),
(458,661,o),
(477,643,o),
(496,572,cs),
(502,549,l),
(536,561,l),
(536,739,l),
(520,752,l),
(502,739,ls),
(482,724,o),
(446,718,o),
(388,718,cs),
(82,718,l),
(69,702,l),
(82,684,ls),
(115,640,o),
(127,598,o),
(127,517,cs),
(127,126,ls),
(127,67,o),
(114,52,o),
(66,38,cs),
(45,32,l),
(56,0,l),
(477,0,ls),
(498,0,o),
(511,-4,o),
(519,-14,cs),
(527,-25,l),
(547,-14,l),
(547,157,l),
(513,169,l),
(507,146,ls),
(488,75,o),
(469,57,o),
(398,57,cs),
(290,57,ls),
(238,57,o),
(226,71,o),
(226,133,cs),
(226,336,l)
);
},
{
closed = 1;
nodes = (
(240,825,l),
(269,790,l),
(382,846,ls),
(423,866,o),
(438,889,o),
(438,918,cs),
(438,947,o),
(421,969,o),
(396,981,c)
);
}
);
};
layerId = UUID0;
shapes = (
{
ref = E;
},
{
pos = (193,0);
ref = acutecomb.case;
}
);
width = 610;
}
);
unicode = 201;
},
{
glyphname = Ecircumflex;
layers = (
{
background = {
hints = (
{
place = (127, 99);
place = (127, 99);
type = Stem;
},
{
horizontal = 1;
place = (0, 57);
place = (0, 57);
type = Stem;
},
{
horizontal = 1;
place = (336, 57);
place = (336, 57);
type = Stem;
},
{
horizontal = 1;
place = (661, 57);
place = (661, 57);
type = Stem;
},
{
horizontal = 1;
place = (752, -20);
target = down;
type = TopGhost;
},
{
horizontal = 1;
place = (-25, 21);
target = up;
type = BottomGhost;
},
{
horizontal = 1;
place = (976, -20);
target = down;
type = TopGhost;
},
{
horizontal = 1;
place = (790, 21);
target = up;
type = BottomGhost;
}
);
shapes = (
{
closed = 1;
nodes = (
(311,336,ls),
(382,336,o),
(408,326,o),
(420,279,cs),
(426,256,l),
(460,268,l),
(460,439,l),
(440,450,l),
(432,439,ls),
(407,404,o),
(384,393,o),
(353,393,cs),
(226,393,l),
(226,585,ls),
(226,647,o),
(238,661,o),
(290,661,cs),
(387,661,ls),
(458,661,o),
(477,643,o),
(496,572,cs),
(502,549,l),
(536,561,l),
(536,739,l),
(520,752,l),
(502,739,ls),
(482,724,o),
(446,718,o),
(388,718,cs),
(82,718,l),
(69,702,l),
(82,684,ls),
(115,640,o),
(127,598,o),
(127,517,cs),
(127,126,ls),
(127,67,o),
(114,52,o),
(66,38,cs),
(45,32,l),
(56,0,l),
(477,0,ls),
(498,0,o),
(511,-4,o),
(519,-14,cs),
(527,-25,l),
(547,-14,l),
(547,157,l),
(513,169,l),
(507,146,ls),
(488,75,o),
(469,57,o),
(398,57,cs),
(290,57,ls),
(238,57,o),
(226,71,o),
(226,133,cs),
(226,336,l)
);
},
{
closed = 1;
nodes = (
(306,976,l),
(280,961,o),
(226,894,o),
(182,818,c),
(215,790,l),
(319,873,l),
(424,790,l),
(456,818,l),
(412,896,o),
(355,963,o),
(333,976,c)
);
}
);
};
layerId = UUID0;
shapes = (
{
ref = E;
},
{
pos = (183,0);
ref = circumflexcomb.case;
}
);
width = 610;
}
);
unicode = 202;
},
{
glyphname = Edieresis;
layers = (
{
background = {
hints = (
{
place = (127, 99);
place = (127, 99);
type = Stem;
},
{
horizontal = 1;
place = (0, 57);
place = (0, 57);
type = Stem;
},
{
horizontal = 1;
place = (336, 57);
place = (336, 57);
type = Stem;
},
{
horizontal = 1;
place = (661, 57);
place = (661, 57);
type = Stem;
},
{
horizontal = 1;
place = (752, -20);
target = down;
type = TopGhost;
},
{
horizontal = 1;
place = (-25, 21);
target = up;
type = BottomGhost;
},
{
horizontal = 1;
place = (814, 21);
target = up;
type = BottomGhost;
},
{
horizontal = 1;
place = (945, -20);
target = down;
type = TopGhost;
}
);
shapes = (
{
closed = 1;
nodes = (
(311,336,ls),
(382,336,o),
(408,326,o),
(420,279,cs),
(426,256,l),
(460,268,l),
(460,439,l),
(440,450,l),
(432,439,ls),
(407,404,o),
(384,393,o),
(353,393,cs),
(226,393,l),
(226,585,ls),
(226,647,o),
(238,661,o),
(290,661,cs),
(387,661,ls),
(458,661,o),
(477,643,o),
(496,572,cs),
(502,549,l),
(536,561,l),
(536,739,l),
(520,752,l),
(502,739,ls),
(482,724,o),
(446,718,o),
(388,718,cs),
(82,718,l),
(69,702,l),
(82,684,ls),
(115,640,o),
(127,598,o),
(127,517,cs),
(127,126,ls),
(127,67,o),
(114,52,o),
(66,38,cs),
(45,32,l),
(56,0,l),
(477,0,ls),
(498,0,o),
(511,-4,o),
(519,-14,cs),
(527,-25,l),
(547,-14,l),
(547,157,l),
(513,169,l),
(507,146,ls),
(488,75,o),
(469,57,o),
(398,57,cs),
(290,57,ls),
(238,57,o),
(226,71,o),
(226,133,cs),
(226,336,l)
);
},
{
closed = 1;
nodes = (
(162,853,o),
(200,814,o),
(223,814,cs),
(248,814,o),
(286,853,o),
(286,879,cs),
(286,905,o),
(248,945,o),
(223,945,cs),
(199,945,o),
(162,905,o),
(162,879,cs)
);
},
{
closed = 1;
nodes = (
(351,853,o),
(389,814,o),
(412,814,cs),
(437,814,o),
(475,853,o),
(475,879,cs),
(475,905,o),
(437,945,o),
(412,945,cs),
(388,945,o),
(351,905,o),
(351,879,cs)
);
}
);
};
layerId = UUID0;
shapes = (
{
ref = E;
},
{
pos = (183,0);
ref = dieresiscomb.case;
}
);
width = 610;
}
);
unicode = 203;
},
{
glyphname = Egrave;
layers = (
{
background = {
hints = (
{
place = (127, 99);
place = (127, 99);
type = Stem;
},
{
horizontal = 1;
place = (0, 57);
place = (0, 57);
type = Stem;
},
{
horizontal = 1;
place = (336, 57);
place = (336, 57);
type = Stem;
},
{
horizontal = 1;
place = (661, 57);
place = (661, 57);
type = Stem;
},
{
horizontal = 1;
place = (752, -20);
target = down;
type = TopGhost;
},
{
horizontal = 1;
place = (-25, 21);
target = up;
type = BottomGhost;
},
{
horizontal = 1;
place = (981, -20);
target = down;
type = TopGhost;
},
{
horizontal = 1;
place = (790, 21);
target = up;
type = BottomGhost;
}
);
shapes = (
{
closed = 1;
nodes = (
(311,336,ls),
(382,336,o),
(408,326,o),
(420,279,cs),
(426,256,l),
(460,268,l),
(460,439,l),
(440,450,l),
(432,439,ls),
(407,404,o),
(384,393,o),
(353,393,cs),
(226,393,l),
(226,585,ls),
(226,647,o),
(238,661,o),
(290,661,cs),
(387,661,ls),
(458,661,o),
(477,643,o),
(496,572,cs),
(502,549,l),
(536,561,l),
(536,739,l),
(520,752,l),
(502,739,ls),
(482,724,o),
(446,718,o),
(388,718,cs),
(82,718,l),
(69,702,l),
(82,684,ls),
(115,640,o),
(127,598,o),
(127,517,cs),
(127,126,ls),
(127,67,o),
(114,52,o),
(66,38,cs),
(45,32,l),
(56,0,l),
(477,0,ls),
(498,0,o),
(511,-4,o),
(519,-14,cs),
(527,-25,l),
(547,-14,l),
(547,157,l),
(513,169,l),
(507,146,ls),
(488,75,o),
(469,57,o),
(398,57,cs),
(290,57,ls),
(238,57,o),
(226,71,o),
(226,133,cs),
(226,336,l)
);
},
{
closed = 1;
nodes = (
(252,981,l),
(227,969,o),
(210,947,o),
(210,918,cs),
(210,889,o),
(225,866,o),
(266,846,cs),
(379,790,l),
(408,825,l)
);
}
);
};
layerId = UUID0;
shapes = (
{
ref = E;
},
{
pos = (183,221);
ref = gravecomb.case;
}
);
width = 610;
}
);
unicode = 200;
},
{
glyphname = F;
kernRight = F;
layers = (
{
anchors = (
{
name = bottom;
pos = (274,0);
},
{
name = top;
pos = (274,718);
}
);
background = {
shapes = (
{
closed = 1;
nodes = (
(468,549,l),
(502,561,l),
(502,739,l),
(486,752,l),
(468,739,ls),
(448,724,o),
(412,718,o),
(354,718,cs),
(58,718,l),
(45,702,l),
(58,684,ls),
(91,640,o),
(103,598,o),
(103,517,cs),
(103,201,ls),
(103,120,o),
(91,78,o),
(58,34,cs),
(45,16,l),
(58,0,l),
(277,0,l),
(289,34,l),
(266,40,ls),
(216,55,o),
(202,71,o),
(202,133,cs),
(202,326,l),
(277,326,ls),
(348,326,o),
(374,316,o),
(386,269,cs),
(392,246,l),
(426,258,l),
(426,429,l),
(406,440,l),
(398,429,ls),
(373,394,o),
(350,383,o),
(319,383,cs),
(202,383,l),
(202,585,ls),
(202,647,o),
(214,661,o),
(266,661,cs),
(353,661,ls),
(424,661,o),
(443,643,o),
(462,572,cs)
);
}
);
};
hints = (
{
place = (103, 99);
place = (103, 99);
type = Stem;
},
{
horizontal = 1;
place = (326, 57);
place = (326, 57);
type = Stem;
},
{
horizontal = 1;
place = (661, 57);
place = (661, 57);
type = Stem;
},
{
horizontal = 1;
place = (752, -20);
target = down;
type = TopGhost;
},
{
horizontal = 1;
place = (0, 21);
target = up;
type = BottomGhost;
}
);
layerId = UUID0;
shapes = (
{
closed = 1;
nodes = (
(277,0,l),
(289,34,l),
(266,40,ls),
(216,55,o),
(202,71,o),
(202,133,cs),
(202,326,l),
(277,326,ls),
(348,326,o),
(374,316,o),
(386,269,cs),
(392,246,l),
(426,258,l),
(426,429,l),
(406,440,l),
(398,429,ls),
(373,394,o),
(350,383,o),
(319,383,cs),
(202,383,l),
(202,585,ls),
(202,647,o),
(214,661,o),
(266,661,cs),
(353,661,ls),
(424,661,o),
(443,643,o),
(462,572,cs),
(468,549,l),
(502,561,l),
(502,739,l),
(486,752,l),
(468,739,ls),
(448,724,o),
(412,718,o),
(354,718,cs),
(58,718,l),
(45,702,l),
(58,684,ls),
(91,640,o),
(103,598,o),
(103,517,cs),
(103,201,ls),
(103,120,o),
(91,78,o),
(58,34,cs),
(45,16,l),
(58,0,l)
);
}
);
width = 547;
}
);
unicode = 70;
},
{
glyphname = G;
kernLeft = C;
layers = (
{
anchors = (
{
name = bottom;
pos = (346,0);
},
{
name = top;
pos = (356,718);
}
);
background = {
shapes = (
{
closed = 1;
nodes = (
(521,-12,ls),
(521,-168,o),
(474,-226,o),
(390,-226,cs),
(325,-226,o),
(288,-184,o),
(288,-133,cs),
(288,-60,o),
(337,-38,o),
(337,-25,cs),
(337,-20,o),
(332,-14,o),
(318,-14,cs),
(235,-14,o),
(191,-73,o),
(191,-135,cs),
(191,-205,o),
(250,-278,o),
(373,-278,cs),
(518,-278,o),
(611,-197,o),
(611,16,cs),
(611,132,ls),
(611,213,o),
(623,255,o),
(656,299,cs),
(669,317,l),
(656,333,l),
(446,333,l),
(434,299,l),
(457,293,ls),
(507,278,o),
(521,262,o),
(521,200,cs),
(521,149,l),
(478,106,o),
(423,81,o),
(354,81,cs),
(222,81,o),
(143,216,o),
(143,381,cs),
(143,508,o),
(198,676,o),
(366,676,cs),
(452,676,o),
(509,629,o),
(509,561,cs),
(509,505,o),
(479,480,o),
(479,470,cs),
(479,460,o),
(479,458,o),
(500,458,cs),
(561,458,o),
(607,506,o),
(607,575,cs),
(607,668,o),
(507,732,o),
(366,732,cs),
(142,732,o),
(35,564,o),
(35,376,cs),
(35,177,o),
(136,17,o),
(345,17,cs),
(415,17,o),
(473,42,o),
(521,82,c)
);
}
);
};
hints = (
{
place = (35, 108);
place = (35, 108);
type = Stem;
},
{
place = (191, 97);
place = (191, 97);
type = Stem;
},
{
place = (509, 102);
place = (509, 102);
type = Stem;
},
{
place = (521, 90);
place = (521, 90);
type = Stem;
},
{
horizontal = 1;
place = (-278, 52);
place = (-278, 52);
type = Stem;
},
{
horizontal = 1;
place = (17, 64);
place = (17, 64);
type = Stem;
},
{
horizontal = 1;
place = (676, 56);
place = (676, 56);
type = Stem;
},
{
horizontal = 1;
place = (-14, 21);
target = up;
type = BottomGhost;
}
);
layerId = UUID0;
shapes = (
{
closed = 1;
nodes = (
(518,-278,o),
(611,-197,o),
(611,16,cs),
(611,132,ls),
(611,213,o),
(624,254,o),
(656,299,cs),
(669,317,l),
(656,333,l),
(446,333,l),
(434,299,l),
(457,293,ls),
(508,280,o),
(521,262,o),
(521,200,cs),
(521,149,l),
(478,106,o),
(423,81,o),
(354,81,cs),
(222,81,o),
(143,216,o),
(143,381,cs),
(143,508,o),
(198,676,o),
(366,676,cs),
(452,676,o),
(509,629,o),
(509,561,cs),
(509,505,o),
(479,480,o),
(479,470,cs),
(479,460,o),
(479,458,o),
(500,458,cs),
(561,458,o),
(607,506,o),
(607,575,cs),
(607,668,o),
(507,732,o),
(366,732,cs),
(142,732,o),
(35,564,o),
(35,376,cs),
(35,177,o),
(136,17,o),
(345,17,cs),
(415,17,o),
(473,42,o),
(521,82,c),
(521,-12,ls),
(521,-168,o),
(474,-226,o),
(390,-226,cs),
(325,-226,o),
(288,-184,o),
(288,-133,cs),
(288,-60,o),
(337,-38,o),
(337,-25,cs),
(337,-20,o),
(332,-14,o),
(318,-14,cs),
(235,-14,o),
(191,-73,o),
(191,-135,cs),
(191,-205,o),
(250,-278,o),
(373,-278,cs)
);
}
);
width = 691;
}
);
unicode = 71;
},
{
glyphname = H;
layers = (
{
anchors = (
{
name = bottom;
pos = (390,0);
},
{
name = center;
pos = (390,359);
},
{
name = top;
pos = (390,718);
},
{
name = topleft;
pos = (20,718);
}
);
background = {
shapes = (
{
closed = 1;
nodes = (
(723,0,l),
(734,32,l),
(713,38,ls),
(665,52,o),
(652,67,o),
(652,126,cs),
(652,517,ls),
(652,598,o),
(664,640,o),
(697,684,cs),
(710,702,l),
(697,718,l),
(478,718,l),
(466,684,l),
(489,678,ls),
(539,663,o),
(553,647,o),
(553,585,cs),
(553,395,l),
(226,395,l),
(226,517,ls),
(226,598,o),
(238,640,o),
(271,684,cs),
(284,702,l),
(271,718,l),
(52,718,l),
(40,684,l),
(63,678,ls),
(113,663,o),
(127,647,o),
(127,585,cs),
(127,133,ls),
(127,71,o),
(113,55,o),
(63,40,cs),
(40,34,l),
(52,0,l),
(297,0,l),
(308,32,l),
(287,38,ls),
(239,52,o),
(226,67,o),
(226,126,cs),
(226,334,l),
(553,334,l),
(553,133,ls),
(553,71,o),
(539,55,o),
(489,40,cs),
(466,34,l),
(478,0,l)
);
}
);
};
hints = (
{
place = (127, 99);
place = (127, 99);
type = Stem;
},
{
place = (553, 99);
place = (553, 99);
type = Stem;
},
{
horizontal = 1;
place = (334, 61);
place = (334, 61);
type = Stem;
},
{
horizontal = 1;
place = (0, 21);
target = up;
type = BottomGhost;
},
{
horizontal = 1;
place = (718, -20);
target = down;
type = TopGhost;
}
);
layerId = UUID0;
shapes = (
{
closed = 1;
nodes = (
(297,0,l),
(308,32,l),
(287,38,ls),
(239,52,o),
(226,67,o),
(226,126,cs),
(226,334,l),
(553,334,l),
(553,133,ls),
(553,71,o),
(539,55,o),
(489,40,cs),
(466,34,l),
(478,0,l),
(723,0,l),
(734,32,l),
(713,38,ls),
(665,52,o),
(652,67,o),
(652,126,cs),
(652,517,ls),
(652,598,o),
(664,640,o),
(697,684,cs),
(710,702,l),
(697,718,l),
(478,718,l),
(466,684,l),
(489,678,ls),
(539,663,o),
(553,647,o),
(553,585,cs),
(553,395,l),
(226,395,l),
(226,517,ls),
(226,598,o),
(238,640,o),
(271,684,cs),
(284,702,l),
(271,718,l),
(52,718,l),
(40,684,l),
(63,678,ls),
(113,663,o),
(127,647,o),
(127,585,cs),
(127,133,ls),
(127,71,o),
(113,55,o),
(63,40,cs),
(40,34,l),
(52,0,l)
);
}
);
width = 779;
}
);
unicode = 72;
},
{
color = 9;
glyphname = Hbar;
layers = (
{
layerId = UUID0;
shapes = (
{
pos = (2,0);
ref = H;
},
{
closed = 1;
nodes = (
(721,502,l),
(737,515,o),
(741,539,o),
(741,558,c),
(57,558,l),
(41,546,o),
(37,520,o),
(37,502,c)
);
}
);
width = 779;
}
);
unicode = 294;
},
{
glyphname = I;
layers = (
{
anchors = (
{
name = bottom;
pos = (177,0);
},
{
name = ogonek;
pos = (248,10);
},
{
name = top;
pos = (177,718);
},
{
name = topleft;
pos = (20,718);
}
);
hints = (
{
place = (127, 99);
place = (127, 99);
type = Stem;
},
{
horizontal = 1;
place = (0, 21);
target = up;
type = BottomGhost;
},
{
horizontal = 1;
place = (718, -20);
target = down;
type = TopGhost;
}
);
layerId = UUID0;
shapes = (
{
closed = 1;
nodes = (
(297,0,l),
(308,32,l),
(287,38,ls),
(239,52,o),
(226,67,o),
(226,126,cs),
(226,517,ls),
(226,598,o),
(239,639,o),
(271,684,cs),
(284,702,l),
(271,718,l),
(52,718,l),
(40,684,l),
(63,678,ls),
(114,665,o),
(127,647,o),
(127,585,cs),
(127,133,ls),
(127,71,o),
(114,53,o),
(63,40,cs),
(40,34,l),
(52,0,l)
);
}
);
width = 353;
}
);
unicode = 73;
},
{
glyphname = Iacute;
layers = (
{
background = {
anchors = (
{
name = bottom;
pos = (177,0);
},
{
name = ogonek;
pos = (318,10);
},
{
name = top;
pos = (177,718);
},
{
name = topleft;
pos = (20,718);
}
);
hints = (
{
place = (127, 99);
place = (127, 99);
type = Stem;
},
{
horizontal = 1;
place = (0, 21);
target = up;
type = BottomGhost;
},
{
horizontal = 1;
place = (718, -20);
target = down;
type = TopGhost;
},
{
horizontal = 1;
place = (790, 21);
target = up;
type = BottomGhost;
},
{
horizontal = 1;
place = (981, -20);
target = down;
type = TopGhost;
}
);
shapes = (
{
closed = 1;
nodes = (
(297,0,l),
(308,32,l),
(287,38,ls),
(239,52,o),
(226,67,o),
(226,126,cs),
(226,517,ls),
(226,598,o),
(238,640,o),
(271,684,cs),
(284,702,l),
(271,718,l),
(52,718,l),
(40,684,l),
(63,678,ls),
(113,663,o),
(127,647,o),
(127,585,cs),
(127,133,ls),
(127,71,o),
(113,55,o),
(63,40,cs),
(40,34,l),
(52,0,l)
);
},
{
closed = 1;
nodes = (
(87,825,l),
(116,790,l),
(229,846,ls),
(270,866,o),
(285,889,o),
(285,918,cs),
(285,947,o),
(268,969,o),
(243,981,c)
);
}
);
};
layerId = UUID0;
shapes = (
{
ref = I;
},
{
pos = (49,0);
ref = acutecomb.case;
}
);
width = 353;
}
);
unicode = 205;
},
{
glyphname = Icircumflex;
layers = (
{
background = {
anchors = (
{
name = bottom;
pos = (177,0);
},
{
name = ogonek;
pos = (318,10);
},
{
name = top;
pos = (177,718);
},
{
name = topleft;
pos = (20,718);
}
);
hints = (
{
place = (127, 99);
place = (127, 99);
type = Stem;
},
{
horizontal = 1;
place = (0, 21);
target = up;
type = BottomGhost;
},
{
horizontal = 1;
place = (718, -20);
target = down;
type = TopGhost;
},
{
horizontal = 1;
place = (976, -20);
target = down;
type = TopGhost;
},
{
horizontal = 1;
place = (790, 21);
target = up;
type = BottomGhost;
}
);
shapes = (
{
closed = 1;
nodes = (
(297,0,l),
(308,32,l),
(287,38,ls),
(239,52,o),
(226,67,o),
(226,126,cs),
(226,517,ls),
(226,598,o),
(238,640,o),
(271,684,cs),
(284,702,l),
(271,718,l),
(52,718,l),
(40,684,l),
(63,678,ls),
(113,663,o),
(127,647,o),
(127,585,cs),
(127,133,ls),
(127,71,o),
(113,55,o),
(63,40,cs),
(40,34,l),
(52,0,l)
);
},
{
closed = 1;
nodes = (
(163,976,l),
(137,961,o),
(83,894,o),
(39,818,c),
(72,790,l),
(176,873,l),
(281,790,l),
(313,818,l),
(269,896,o),
(212,963,o),
(190,976,c)
);
}
);
};
layerId = UUID0;
shapes = (
{
ref = I;
},
{
pos = (39,0);
ref = circumflexcomb.case;
}
);
width = 353;
}
);
unicode = 206;
},
{
glyphname = Idieresis;
layers = (
{
background = {
anchors = (
{
name = bottom;
pos = (177,0);
},
{
name = ogonek;
pos = (318,10);
},
{
name = top;
pos = (177,718);
},
{
name = topleft;
pos = (20,718);
}
);
hints = (
{
place = (127, 99);
place = (127, 99);
type = Stem;
},
{
horizontal = 1;
place = (0, 21);
target = up;
type = BottomGhost;
},
{
horizontal = 1;
place = (718, -20);
target = down;
type = TopGhost;
},
{
horizontal = 1;
place = (814, 21);
target = up;
type = BottomGhost;
},
{
horizontal = 1;
place = (945, -20);
target = down;
type = TopGhost;
}
);
shapes = (
{
closed = 1;
nodes = (
(297,0,l),
(308,32,l),
(287,38,ls),
(239,52,o),
(226,67,o),
(226,126,cs),
(226,517,ls),
(226,598,o),
(238,640,o),
(271,684,cs),
(284,702,l),
(271,718,l),
(52,718,l),
(40,684,l),
(63,678,ls),
(113,663,o),
(127,647,o),
(127,585,cs),
(127,133,ls),
(127,71,o),
(113,55,o),
(63,40,cs),
(40,34,l),
(52,0,l)
);
},
{
closed = 1;
nodes = (
(20,853,o),
(58,814,o),
(81,814,cs),
(106,814,o),
(144,853,o),
(144,879,cs),
(144,905,o),
(106,945,o),
(81,945,cs),
(57,945,o),
(20,905,o),
(20,879,cs)
);
},
{
closed = 1;
nodes = (
(209,853,o),
(247,814,o),
(270,814,cs),
(295,814,o),
(333,853,o),
(333,879,cs),
(333,905,o),
(295,945,o),
(270,945,cs),
(246,945,o),
(209,905,o),
(209,879,cs)
);
}
);
};
layerId = UUID0;
shapes = (
{
ref = I;
},
{
pos = (39,0);
ref = dieresiscomb.case;
}
);
width = 353;
}
);
unicode = 207;
},
{
glyphname = Igrave;
layers = (
{
background = {
anchors = (
{
name = bottom;
pos = (177,0);
},
{
name = ogonek;
pos = (318,10);
},
{
name = top;
pos = (177,718);
},
{
name = topleft;
pos = (20,718);
}
);
hints = (
{
place = (127, 99);
place = (127, 99);
type = Stem;
},
{
horizontal = 1;
place = (0, 21);
target = up;
type = BottomGhost;
},
{
horizontal = 1;
place = (718, -20);
target = down;
type = TopGhost;
},
{
horizontal = 1;
place = (981, -20);
target = down;
type = TopGhost;
},
{
horizontal = 1;
place = (790, 21);
target = up;
type = BottomGhost;
}
);
shapes = (
{
closed = 1;
nodes = (
(297,0,l),
(308,32,l),
(287,38,ls),
(239,52,o),
(226,67,o),
(226,126,cs),
(226,517,ls),
(226,598,o),
(238,640,o),
(271,684,cs),
(284,702,l),
(271,718,l),
(52,718,l),
(40,684,l),
(63,678,ls),
(113,663,o),
(127,647,o),
(127,585,cs),
(127,133,ls),
(127,71,o),
(113,55,o),
(63,40,cs),
(40,34,l),
(52,0,l)
);
},
{
closed = 1;
nodes = (
(119,981,l),
(94,969,o),
(77,947,o),
(77,918,cs),
(77,889,o),
(92,866,o),
(133,846,cs),
(246,790,l),
(275,825,l)
);
}
);
};
layerId = UUID0;
shapes = (
{
ref = I;
},
{
pos = (39,221);
ref = gravecomb.case;
}
);
width = 353;
}
);
unicode = 204;
},
{
glyphname = J;
kernRight = J;
layers = (
{
anchors = (
{
name = bottom;
pos = (235,0);
},
{
name = top;
pos = (235,718);
}
);
background = {
shapes = (
{
closed = 1;
nodes = (
(272,175,ls),
(272,65,o),
(223,38,o),
(169,38,cs),
(110,38,o),
(77,80,o),
(77,131,cs),
(77,204,o),
(126,226,o),
(126,239,cs),
(126,244,o),
(121,250,o),
(107,250,cs),
(24,250,o),
(-20,191,o),
(-20,129,cs),
(-20,59,o),
(39,-14,o),
(162,-14,cs),
(285,-14,o),
(371,55,o),
(371,236,cs),
(371,517,ls),
(371,598,o),
(383,640,o),
(416,684,cs),
(429,702,l),
(416,718,l),
(197,718,l),
(185,684,l),
(208,678,ls),
(258,663,o),
(272,647,o),
(272,585,cs)
);
}
);
};
hints = (
{
place = (-20, 97);
place = (-20, 97);
type = Stem;
},
{
place = (272, 99);
place = (272, 99);
type = Stem;
},
{
horizontal = 1;
place = (-14, 52);
place = (-14, 52);
type = Stem;
},
{
horizontal = 1;
place = (718, -20);
target = down;
type = TopGhost;
}
);
layerId = UUID0;
shapes = (
{
closed = 1;
nodes = (
(285,-14,o),
(371,55,o),
(371,236,cs),
(371,517,ls),
(371,598,o),
(383,640,o),
(416,684,cs),
(429,702,l),
(416,718,l),
(197,718,l),
(185,684,l),
(208,678,ls),
(258,663,o),
(272,647,o),
(272,585,cs),
(272,175,ls),
(272,65,o),
(223,38,o),
(169,38,cs),
(110,38,o),
(77,80,o),
(77,131,cs),
(77,204,o),
(126,226,o),
(126,239,cs),
(126,244,o),
(121,250,o),
(107,250,cs),
(24,250,o),
(-20,191,o),
(-20,129,cs),
(-20,59,o),
(39,-14,o),
(162,-14,cs)
);
}
);
width = 469;
}
);
unicode = 74;
},
{
glyphname = K;
kernRight = K;
layers = (
{
anchors = (
{
name = bottom;
pos = (334,0);
},
{
name = top;
pos = (334,718);
}
);
background = {
shapes = (
{
closed = 1;
nodes = (
(297,0,l),
(308,32,l),
(287,38,ls),
(239,52,o),
(226,67,o),
(226,126,cs),
(226,517,ls),
(226,598,o),
(238,640,o),
(271,684,cs),
(284,702,l),
(271,718,l),
(52,718,l),
(40,684,l),
(63,678,ls),
(113,663,o),
(127,647,o),
(127,585,cs),
(127,133,ls),
(127,71,o),
(113,55,o),
(63,40,cs),
(40,34,l),
(52,0,l)
);
},
{
closed = 1;
nodes = (
(429,299,ls),
(410,332,o),
(386,352,o),
(360,364,c),
(540,624,ls),
(564,659,o),
(589,670,o),
(618,678,cs),
(641,684,l),
(629,718,l),
(448,718,l),
(429,702,l),
(438,684,ls),
(443,673,o),
(451,655,o),
(451,639,cs),
(451,623,o),
(448,611,o),
(430,583,cs),
(294,380,l),
(286,381,o),
(278,381,o),
(270,381,cs),
(253,381,o),
(250,366,o),
(250,357,cs),
(250,352,o),
(251,348,o),
(255,346,cs),
(280,335,o),
(291,327,o),
(306,301,cs),
(425,83,ls),
(459,22,o),
(496,-14,o),
(559,-14,cs),
(590,-14,o),
(622,-2,o),
(651,26,c),
(634,55,l),
(620,45,o),
(608,41,o),
(595,41,cs),
(577,41,o),
(567,54,o),
(557,72,cs)
);
}
);
};
hints = (
{
place = (127, 99);
place = (127, 99);
type = Stem;
},
{
horizontal = 1;
place = (-14, 55);
place = (-14, 55);
type = Stem;
},
{
horizontal = 1;
place = (718, -20);
target = down;
type = TopGhost;
},
{
horizontal = 1;
place = (0, 21);
target = up;
type = BottomGhost;
}
);
layerId = UUID0;
shapes = (
{
closed = 1;
nodes = (
(590,-14,o),
(622,-2,o),
(651,26,c),
(634,55,l),
(620,45,o),
(608,41,o),
(595,41,cs),
(577,41,o),
(567,54,o),
(557,72,cs),
(429,299,ls),
(410,332,o),
(386,352,o),
(360,364,c),
(540,624,ls),
(564,659,o),
(589,670,o),
(618,678,cs),
(641,684,l),
(629,718,l),
(448,718,l),
(429,702,l),
(438,684,ls),
(443,673,o),
(451,655,o),
(451,639,cs),
(451,623,o),
(448,611,o),
(430,583,cs),
(294,380,l),
(286,381,o),
(278,381,o),
(270,381,cs),
(253,381,o),
(250,366,o),
(250,357,cs),
(250,352,o),
(251,348,o),
(255,346,cs),
(280,335,o),
(291,327,o),
(306,301,cs),
(425,83,ls),
(459,22,o),
(496,-14,o),
(559,-14,cs)
);
},
{
closed = 1;
nodes = (
(297,0,l),
(308,32,l),
(287,38,ls),
(239,52,o),
(226,67,o),
(226,126,cs),
(226,517,ls),
(226,598,o),
(238,640,o),
(271,684,cs),
(284,702,l),
(271,718,l),
(52,718,l),
(40,684,l),
(63,678,ls),
(113,663,o),
(127,647,o),
(127,585,cs),
(127,133,ls),
(127,71,o),
(113,55,o),
(63,40,cs),
(40,34,l),
(52,0,l)
);
}
);
width = 668;
}
);
unicode = 75;
},
{
glyphname = L;
kernRight = L;
layers = (
{
anchors = (
{
name = bottom;
pos = (275,0);
},
{
name = center;
pos = (275,359);
},
{
name = top;
pos = (174,718);
},
{
name = topright;
pos = (394,718);
}
);
background = {
shapes = (
{
closed = 1;
nodes = (
(226,517,ls),
(226,598,o),
(238,640,o),
(271,684,cs),
(284,702,l),
(271,718,l),
(52,718,l),
(40,684,l),
(63,678,ls),
(113,663,o),
(127,647,o),
(127,585,cs),
(127,126,ls),
(127,67,o),
(114,52,o),
(66,38,cs),
(45,32,l),
(56,0,l),
(456,0,ls),
(477,0,o),
(490,-4,o),
(498,-14,cs),
(506,-25,l),
(526,-14,l),
(526,157,l),
(492,169,l),
(486,146,ls),
(467,75,o),
(448,57,o),
(377,57,cs),
(290,57,ls),
(238,57,o),
(226,71,o),
(226,133,cs)
);
}
);
};
hints = (
{
place = (127, 99);
place = (127, 99);
type = Stem;
},
{
horizontal = 1;
place = (0, 57);
place = (0, 57);
type = Stem;
},
{
horizontal = 1;
place = (718, -20);
target = down;
type = TopGhost;
},
{
horizontal = 1;
place = (-25, 21);
target = up;
type = BottomGhost;
}
);
layerId = UUID0;
shapes = (
{
closed = 1;
nodes = (
(526,-14,l),
(526,157,l),
(492,169,l),
(486,146,ls),
(467,75,o),
(448,57,o),
(377,57,cs),
(290,57,ls),
(238,57,o),
(226,71,o),
(226,133,cs),
(226,517,ls),
(226,598,o),
(239,639,o),
(271,684,cs),
(284,702,l),
(271,718,l),
(52,718,l),
(40,684,l),
(63,678,ls),
(114,665,o),
(127,647,o),
(127,585,cs),
(127,126,ls),
(127,67,o),
(114,52,o),
(66,38,cs),
(45,32,l),
(56,0,l),
(456,0,ls),
(477,0,o),
(490,-4,o),
(498,-14,cs),
(506,-25,l)
);
}
);
width = 550;
}
);
unicode = 76;
},
{
glyphname = Lslash;
kernRight = L;
layers = (
{
background = {
shapes = (
{
alignment = -1;
ref = L;
},
{
alignment = -1;
pos = (3,0);
ref = eslash;
}
);
};
hints = (
{
horizontal = 1;
place = (474, -20);
target = down;
type = TopGhost;
},
{
horizontal = 1;
place = (244, 21);
target = up;
type = BottomGhost;
}
);
layerId = UUID0;
shapes = (
{
closed = 1;
nodes = (
(305,384,ls),
(325,394,o),
(329,417,o),
(329,474,c),
(49,334,ls),
(29,324,o),
(25,301,o),
(25,244,c)
);
},
{
alignment = -1;
ref = L;
}
);
width = 550;
}
);
unicode = 321;
},
{
glyphname = M;
layers = (
{
anchors = (
{
name = bottom;
pos = (461,0);
},
{
name = top;
pos = (461,718);
}
);
background = {
shapes = (
{
closed = 1;
nodes = (
(787,468,ls),
(786,483,o),
(782,546,o),
(782,558,cs),
(782,614,o),
(793,648,o),
(818,684,cs),
(830,702,l),
(815,718,l),
(671,718,l),
(459,215,l),
(253,718,l),
(71,718,l),
(60,684,l),
(83,678,ls),
(127,667,o),
(141,652,o),
(141,606,cs),
(141,590,o),
(137,537,o),
(136,529,cs),
(109,133,ls),
(105,71,o),
(89,55,o),
(38,40,cs),
(15,34,l),
(26,0,l),
(214,0,l),
(229,16,l),
(217,34,ls),
(192,70,o),
(181,104,o),
(181,160,cs),
(181,172,o),
(184,223,o),
(187,258,cs),
(209,566,l),
(418,72,l),
(472,72,l),
(681,566,l),
(710,149,ls),
(711,138,o),
(712,121,o),
(712,112,cs),
(712,71,o),
(698,53,o),
(655,40,cs),
(632,34,l),
(644,0,l),
(863,0,l),
(876,16,l),
(831,61,o),
(813,113,o),
(807,194,cs)
);
}
);
};
hints = (
{
place = (109, 72);
place = (109, 72);
type = Stem;
},
{
place = (122, 59);
place = (122, 59);
type = Stem;
},
{
place = (695, 87);
place = (695, 87);
type = Stem;
},
{
place = (712, 85);
place = (712, 85);
type = Stem;
},
{
place = (122, 76);
place = (122, 76);
type = Stem;
},
{
horizontal = 1;
place = (718, -20);
target = down;
type = TopGhost;
},
{
horizontal = 1;
place = (0, 21);
target = up;
type = BottomGhost;
}
);
layerId = UUID0;
shapes = (
{
closed = 1;
nodes = (
(214,0,l),
(229,16,l),
(217,34,ls),
(192,70,o),
(181,104,o),
(181,160,cs),
(181,172,o),
(184,223,o),
(187,258,cs),
(209,566,l),
(418,72,l),
(472,72,l),
(681,566,l),
(710,149,ls),
(711,138,o),
(712,121,o),
(712,112,cs),
(712,71,o),
(698,53,o),
(655,40,cs),
(632,34,l),
(644,0,l),
(863,0,l),
(876,16,l),
(831,61,o),
(813,113,o),
(807,194,cs),
(787,468,ls),
(786,483,o),
(782,546,o),
(782,558,cs),
(782,614,o),
(793,648,o),
(818,684,cs),
(830,702,l),
(815,718,l),
(671,718,l),
(459,215,l),
(253,718,l),
(71,718,l),
(60,684,l),
(83,678,ls),
(127,667,o),
(141,652,o),
(141,606,cs),
(141,590,o),
(137,537,o),
(136,529,cs),
(109,133,ls),
(105,71,o),
(89,55,o),
(38,40,cs),
(15,34,l),
(26,0,l)
);
}
);
width = 921;
}
);
unicode = 77;
},
{
glyphname = N;
kernRight = N;
layers = (
{
anchors = (
{
name = bottom;
pos = (390,0);
},
{
name = top;
pos = (399,718);
}
);
background = {
shapes = (
{
closed = 1;
nodes = (
(572,0,l),
(673,0,l),
(686,16,l),
(673,34,ls),
(663,48,o),
(659,62,o),
(659,88,cs),
(659,517,ls),
(659,598,o),
(671,640,o),
(704,684,cs),
(717,702,l),
(704,718,l),
(514,718,l),
(502,684,l),
(525,678,ls),
(575,663,o),
(589,647,o),
(589,585,cs),
(589,151,l),
(207,718,l),
(46,718,l),
(34,684,l),
(57,678,ls),
(107,663,o),
(121,647,o),
(121,585,cs),
(121,133,ls),
(121,71,o),
(107,55,o),
(57,40,cs),
(34,34,l),
(46,0,l),
(236,0,l),
(249,16,l),
(236,34,ls),
(203,78,o),
(191,120,o),
(191,201,cs),
(191,565,l)
);
}
);
};
hints = (
{
place = (121, 70);
place = (121, 70);
type = Stem;
},
{
place = (589, 70);
place = (589, 70);
type = Stem;
},
{
horizontal = 1;
place = (0, 21);
target = up;
type = BottomGhost;
},
{
horizontal = 1;
place = (718, -20);
target = down;
type = TopGhost;
}
);
layerId = UUID0;
shapes = (
{
closed = 1;
nodes = (
(236,0,l),
(249,16,l),
(236,34,ls),
(204,79,o),
(191,120,o),
(191,201,cs),
(191,565,l),
(572,0,l),
(673,0,l),
(686,16,l),
(673,34,ls),
(663,48,o),
(659,62,o),
(659,88,cs),
(659,517,ls),
(659,598,o),
(672,639,o),
(704,684,cs),
(717,702,l),
(704,718,l),
(514,718,l),
(502,684,l),
(525,678,ls),
(576,665,o),
(589,647,o),
(589,585,cs),
(589,151,l),
(207,718,l),
(46,718,l),
(34,684,l),
(57,678,ls),
(108,665,o),
(121,647,o),
(121,585,cs),
(121,133,ls),
(121,71,o),
(108,53,o),
(57,40,cs),
(34,34,l),
(46,0,l)
);
}
);
width = 779;
}
);
unicode = 78;
},
{
glyphname = Ntilde;
kernRight = N;
layers = (
{
background = {
hints = (
{
place = (121, 70);
place = (121, 70);
type = Stem;
},
{
place = (589, 70);
place = (589, 70);
type = Stem;
},
{
horizontal = 1;
place = (0, 21);
target = up;
type = BottomGhost;
},
{
horizontal = 1;
place = (718, -20);
target = down;
type = TopGhost;
},
{
horizontal = 1;
place = (851, 54);
place = (851, 54);
type = Stem;
},
{
horizontal = 1;
place = (944, -20);
target = down;
type = TopGhost;
},
{
horizontal = 1;
place = (940, -20);
target = down;
type = TopGhost;
},
{
horizontal = 1;
place = (812, 21);
target = up;
type = BottomGhost;
}
);
shapes = (
{
closed = 1;
nodes = (
(572,0,l),
(673,0,l),
(686,16,l),
(673,34,ls),
(663,48,o),
(659,62,o),
(659,88,cs),
(659,517,ls),
(659,598,o),
(671,640,o),
(704,684,cs),
(717,702,l),
(704,718,l),
(514,718,l),
(502,684,l),
(525,678,ls),
(575,663,o),
(589,647,o),
(589,585,cs),
(589,151,l),
(207,718,l),
(46,718,l),
(34,684,l),
(57,678,ls),
(107,663,o),
(121,647,o),
(121,585,cs),
(121,133,ls),
(121,71,o),
(107,55,o),
(57,40,cs),
(34,34,l),
(46,0,l),
(236,0,l),
(249,16,l),
(236,34,ls),
(203,78,o),
(191,120,o),
(191,201,cs),
(191,565,l)
);
},
{
closed = 1;
nodes = (
(526,944,l),
(497,916,o),
(475,905,o),
(458,905,cs),
(426,905,o),
(407,940,o),
(364,940,cs),
(325,940,o),
(278,902,o),
(235,843,c),
(270,812,l),
(297,839,o),
(321,851,o),
(337,851,cs),
(369,851,o),
(387,816,o),
(432,816,cs),
(470,816,o),
(518,854,o),
(560,913,c)
);
}
);
};
layerId = UUID0;
shapes = (
{
ref = N;
},
{
pos = (261,0);
ref = tildecomb.case;
}
);
width = 779;
}
);
unicode = 209;
},
{
color = 9;
glyphname = Eng;
layers = (
{
anchors = (
{
name = bottom;
pos = (1014,0);
},
{
name = top;
pos = (1014,718);
}
);
hints = (
{
place = (121, 70);
place = (121, 70);
type = Stem;
},
{
place = (589, 70);
place = (589, 70);
type = Stem;
},
{
horizontal = 1;
place = (0, 21);
target = up;
type = BottomGhost;
},
{
horizontal = 1;
place = (718, -20);
target = down;
type = TopGhost;
},
{
place = (759, 97);
place = (759, 97);
type = Stem;
},
{
place = (1051, 99);
place = (1051, 99);
type = Stem;
},
{
horizontal = 1;
place = (-14, 52);
place = (-14, 52);
type = Stem;
},
{
horizontal = 1;
place = (718, -20);
target = down;
type = TopGhost;
}
);
layerId = UUID0;
shapes = (
{
closed = 1;
nodes = (
(236,0,l),
(249,16,l),
(236,34,ls),
(204,79,o),
(191,120,o),
(191,201,cs),
(191,565,l),
(560,18,l),
(560,-45,ls),
(560,-146,o),
(519,-177,o),
(470,-181,c),
(480,-233,l),
(583,-222,o),
(659,-155,o),
(659,0,cs),
(659,517,ls),
(659,598,o),
(672,639,o),
(704,684,cs),
(717,702,l),
(704,718,l),
(514,718,l),
(502,684,l),
(525,678,ls),
(576,665,o),
(589,647,o),
(589,585,cs),
(589,151,l),
(207,718,l),
(46,718,l),
(34,684,l),
(57,678,ls),
(108,665,o),
(121,647,o),
(121,585,cs),
(121,133,ls),
(121,71,o),
(108,53,o),
(57,40,cs),
(34,34,l),
(46,0,l)
);
}
);
width = 779;
}
);
metricRight = N;
unicode = 330;
},
{
glyphname = O;
kernLeft = C;
kernRight = D;
layers = (
{
anchors = (
{
name = bottom;
pos = (367,0);
},
{
name = center;
pos = (367,359);
},
{
name = ogonek;
pos = (660,10);
},
{
name = top;
pos = (367,718);
},
{
name = topleft;
pos = (20,718);
},
{
name = topright;
pos = (713,718);
}
);
background = {
shapes = (
{
closed = 1;
nodes = (
(589,183,o),
(506,45,o),
(362,45,cs),
(217,45,o),
(143,180,o),
(143,350,cs),
(143,527,o),
(225,675,o),
(371,675,cs),
(541,675,o),
(589,480,o),
(589,355,cs)
);
},
{
closed = 1;
nodes = (
(35,152,o),
(142,-14,o),
(366,-14,cs),
(589,-14,o),
(698,152,o),
(698,358,cs),
(698,564,o),
(589,732,o),
(366,732,cs),
(142,732,o),
(35,564,o),
(35,358,cs)
);
}
);
};
hints = (
{
place = (35, 108);
place = (35, 108);
type = Stem;
},
{
place = (589, 109);
place = (589, 109);
type = Stem;
},
{
horizontal = 1;
place = (-14, 59);
place = (-14, 59);
type = Stem;
},
{
horizontal = 1;
place = (675, 57);
place = (675, 57);
type = Stem;
}
);
layerId = UUID0;
shapes = (
{
closed = 1;
nodes = (
(589,-14,o),
(698,152,o),
(698,358,cs),
(698,564,o),
(589,732,o),
(366,732,cs),
(142,732,o),
(35,564,o),
(35,358,cs),
(35,152,o),
(142,-14,o),
(366,-14,cs)
);
},
{
closed = 1;
nodes = (
(217,45,o),
(143,180,o),
(143,350,cs),
(143,527,o),
(225,675,o),
(371,675,cs),
(541,675,o),
(589,480,o),
(589,355,cs),
(589,183,o),
(506,45,o),
(362,45,cs)
);
}
);
width = 733;
}
);
unicode = 79;
},
{
glyphname = Oacute;
kernLeft = C;
kernRight = D;
layers = (
{
background = {
hints = (
{
place = (35, 108);
place = (35, 108);
type = Stem;
},
{
place = (589, 109);
place = (589, 109);
type = Stem;
},
{
horizontal = 1;
place = (-14, 59);
place = (-14, 59);
type = Stem;
},
{
horizontal = 1;
place = (675, 57);
place = (675, 57);
type = Stem;
},
{
horizontal = 1;
place = (790, 21);
target = up;
type = BottomGhost;
},
{
horizontal = 1;
place = (981, -20);
target = down;
type = TopGhost;
}
);
shapes = (
{
closed = 1;
nodes = (
(589,183,o),
(506,45,o),
(362,45,cs),
(217,45,o),
(143,180,o),
(143,350,cs),
(143,527,o),
(225,675,o),
(371,675,cs),
(541,675,o),
(589,480,o),
(589,355,cs)
);
},
{
closed = 1;
nodes = (
(35,152,o),
(142,-14,o),
(366,-14,cs),
(589,-14,o),
(698,152,o),
(698,358,cs),
(698,564,o),
(589,732,o),
(366,732,cs),
(142,732,o),
(35,564,o),
(35,358,cs)
);
},
{
closed = 1;
nodes = (
(267,825,l),
(296,790,l),
(409,846,ls),
(450,866,o),
(465,889,o),
(465,918,cs),
(465,947,o),
(448,969,o),
(423,981,c)
);
}
);
};
layerId = UUID0;
shapes = (
{
ref = O;
},
{
pos = (239,0);
ref = acutecomb.case;
}
);
width = 733;
}
);
unicode = 211;
},
{
glyphname = Ocircumflex;
kernLeft = C;
kernRight = D;
layers = (
{
background = {
hints = (
{
place = (35, 108);
place = (35, 108);
type = Stem;
},
{
place = (589, 109);
place = (589, 109);
type = Stem;
},
{
horizontal = 1;
place = (-14, 59);
place = (-14, 59);
type = Stem;
},
{
horizontal = 1;
place = (675, 57);
place = (675, 57);
type = Stem;
},
{
horizontal = 1;
place = (976, -20);
target = down;
type = TopGhost;
},
{
horizontal = 1;
place = (790, 21);
target = up;
type = BottomGhost;
}
);
shapes = (
{
closed = 1;
nodes = (
(589,183,o),
(506,45,o),
(362,45,cs),
(217,45,o),
(143,180,o),
(143,350,cs),
(143,527,o),
(225,675,o),
(371,675,cs),
(541,675,o),
(589,480,o),
(589,355,cs)
);
},
{
closed = 1;
nodes = (
(35,152,o),
(142,-14,o),
(366,-14,cs),
(589,-14,o),
(698,152,o),
(698,358,cs),
(698,564,o),
(589,732,o),
(366,732,cs),
(142,732,o),
(35,564,o),
(35,358,cs)
);
},
{
closed = 1;
nodes = (
(353,976,l),
(327,961,o),
(273,894,o),
(229,818,c),
(262,790,l),
(366,873,l),
(471,790,l),
(503,818,l),
(459,896,o),
(402,963,o),
(380,976,c)
);
}
);
};
layerId = UUID0;
shapes = (
{
ref = O;
},
{
pos = (229,0);
ref = circumflexcomb.case;
}
);
width = 733;
}
);
unicode = 212;
},
{
glyphname = Odieresis;
kernLeft = C;
kernRight = D;
layers = (
{
background = {
hints = (
{
place = (35, 108);
place = (35, 108);
type = Stem;
},
{
place = (589, 109);
place = (589, 109);
type = Stem;
},
{
horizontal = 1;
place = (-14, 59);
place = (-14, 59);
type = Stem;
},
{
horizontal = 1;
place = (675, 57);
place = (675, 57);
type = Stem;
},
{
horizontal = 1;
place = (814, 21);
target = up;
type = BottomGhost;
},
{
horizontal = 1;
place = (945, -20);
target = down;
type = TopGhost;
}
);
shapes = (
{
closed = 1;
nodes = (
(589,183,o),
(506,45,o),
(362,45,cs),
(217,45,o),
(143,180,o),
(143,350,cs),
(143,527,o),
(225,675,o),
(371,675,cs),
(541,675,o),
(589,480,o),
(589,355,cs)
);
},
{
closed = 1;
nodes = (
(35,152,o),
(142,-14,o),
(366,-14,cs),
(589,-14,o),
(698,152,o),
(698,358,cs),
(698,564,o),
(589,732,o),
(366,732,cs),
(142,732,o),
(35,564,o),
(35,358,cs)
);
},
{
closed = 1;
nodes = (
(210,853,o),
(248,814,o),
(271,814,cs),
(296,814,o),
(334,853,o),
(334,879,cs),
(334,905,o),
(296,945,o),
(271,945,cs),
(247,945,o),
(210,905,o),
(210,879,cs)
);
},
{
closed = 1;
nodes = (
(399,853,o),
(437,814,o),
(460,814,cs),
(485,814,o),
(523,853,o),
(523,879,cs),
(523,905,o),
(485,945,o),
(460,945,cs),
(436,945,o),
(399,905,o),
(399,879,cs)
);
}
);
};
layerId = UUID0;
shapes = (
{
ref = O;
},
{
pos = (229,0);
ref = dieresiscomb.case;
}
);
width = 733;
}
);
unicode = 214;
},
{
glyphname = Ograve;
kernLeft = C;
kernRight = D;
layers = (
{
background = {
hints = (
{
place = (35, 108);
place = (35, 108);
type = Stem;
},
{
place = (589, 109);
place = (589, 109);
type = Stem;
},
{
horizontal = 1;
place = (-14, 59);
place = (-14, 59);
type = Stem;
},
{
horizontal = 1;
place = (675, 57);
place = (675, 57);
type = Stem;
},
{
horizontal = 1;
place = (981, -20);
target = down;
type = TopGhost;
},
{
horizontal = 1;
place = (790, 21);
target = up;
type = BottomGhost;
}
);
shapes = (
{
closed = 1;
nodes = (
(589,183,o),
(506,45,o),
(362,45,cs),
(217,45,o),
(143,180,o),
(143,350,cs),
(143,527,o),
(225,675,o),
(371,675,cs),
(541,675,o),
(589,480,o),
(589,355,cs)
);
},
{
closed = 1;
nodes = (
(35,152,o),
(142,-14,o),
(366,-14,cs),
(589,-14,o),
(698,152,o),
(698,358,cs),
(698,564,o),
(589,732,o),
(366,732,cs),
(142,732,o),
(35,564,o),
(35,358,cs)
);
},
{
closed = 1;
nodes = (
(309,981,l),
(284,969,o),
(267,947,o),
(267,918,cs),
(267,889,o),
(282,866,o),
(323,846,cs),
(436,790,l),
(465,825,l)
);
}
);
};
layerId = UUID0;
shapes = (
{
ref = O;
},
{
pos = (229,221);
ref = gravecomb.case;
}
);
width = 733;
}
);
unicode = 210;
},
{
glyphname = Oslash;
kernLeft = C;
kernRight = D;
layers = (
{
background = {
shapes = (
{
ref = O;
},
{
pos = (181,0);
ref = slash;
}
);
};
hints = (
{
horizontal = 1;
place = (-63, 21);
target = up;
type = BottomGhost;
},
{
horizontal = 1;
place = (781, -20);
target = down;
type = TopGhost;
}
);
layerId = UUID0;
shapes = (
{
closed = 1;
nodes = (
(252,-63,l),
(552,781,l),
(480,781,l),
(181,-63,l)
);
},
{
ref = O;
}
);
width = 733;
}
);
unicode = 216;
},
{
glyphname = Otilde;
kernLeft = C;
kernRight = D;
layers = (
{
background = {
hints = (
{
place = (35, 108);
place = (35, 108);
type = Stem;
},
{
place = (589, 109);
place = (589, 109);
type = Stem;
},
{
horizontal = 1;
place = (-14, 59);
place = (-14, 59);
type = Stem;
},
{
horizontal = 1;
place = (675, 57);
place = (675, 57);
type = Stem;
},
{
horizontal = 1;
place = (851, 54);
place = (851, 54);
type = Stem;
},
{
horizontal = 1;
place = (944, -20);
target = down;
type = TopGhost;
},
{
horizontal = 1;
place = (940, -20);
target = down;
type = TopGhost;
},
{
horizontal = 1;
place = (812, 21);
target = up;
type = BottomGhost;
}
);
shapes = (
{
closed = 1;
nodes = (
(589,183,o),
(506,45,o),
(362,45,cs),
(217,45,o),
(143,180,o),
(143,350,cs),
(143,527,o),
(225,675,o),
(371,675,cs),
(541,675,o),
(589,480,o),
(589,355,cs)
);
},
{
closed = 1;
nodes = (
(35,152,o),
(142,-14,o),
(366,-14,cs),
(589,-14,o),
(698,152,o),
(698,358,cs),
(698,564,o),
(589,732,o),
(366,732,cs),
(142,732,o),
(35,564,o),
(35,358,cs)
);
},
{
closed = 1;
nodes = (
(495,944,l),
(466,916,o),
(444,905,o),
(427,905,cs),
(395,905,o),
(376,940,o),
(333,940,cs),
(294,940,o),
(247,902,o),
(204,843,c),
(239,812,l),
(266,839,o),
(290,851,o),
(306,851,cs),
(338,851,o),
(356,816,o),
(401,816,cs),
(439,816,o),
(487,854,o),
(529,913,c)
);
}
);
};
layerId = UUID0;
shapes = (
{
ref = O;
},
{
pos = (229,0);
ref = tildecomb.case;
}
);
width = 733;
}
);
unicode = 213;
},
{
glyphname = OE;
kernLeft = C;
layers = (
{
anchors = (
{
name = bottom;
pos = (478,0);
},
{
name = top;
pos = (478,718);
}
);
background = {
shapes = (
{
closed = 1;
nodes = (
(366,718,ls),
(142,718,o),
(35,556,o),
(35,358,cs),
(35,160,o),
(142,0,o),
(366,0,cs),
(823,0,ls),
(844,0,o),
(857,-4,o),
(865,-14,cs),
(873,-25,l),
(893,-14,l),
(893,157,l),
(859,169,l),
(853,146,ls),
(834,75,o),
(815,57,o),
(744,57,cs),
(636,57,ls),
(584,57,o),
(572,71,o),
(572,133,cs),
(572,336,l),
(657,336,ls),
(728,336,o),
(754,326,o),
(766,279,cs),
(772,256,l),
(806,268,l),
(806,439,l),
(786,450,l),
(778,439,ls),
(753,404,o),
(730,393,o),
(699,393,cs),
(572,393,l),
(572,585,ls),
(572,647,o),
(584,661,o),
(636,661,cs),
(733,661,ls),
(804,661,o),
(823,643,o),
(842,572,cs),
(848,549,l),
(882,561,l),
(882,739,l),
(866,752,l),
(848,739,ls),
(828,724,o),
(792,718,o),
(734,718,cs)
);
},
{
closed = 1;
nodes = (
(230,45,o),
(143,185,o),
(143,358,cs),
(143,508,o),
(195,674,o),
(355,674,cs),
(399,674,o),
(440,658,o),
(473,633,c),
(473,70,l),
(445,54,o),
(412,45,o),
(375,45,cs)
);
}
);
};
hints = (
{
place = (35, 108);
place = (35, 108);
type = Stem;
},
{
place = (473, 99);
place = (473, 99);
type = Stem;
},
{
horizontal = 1;
place = (0, 45);
place = (0, 45);
type = Stem;
},
{
horizontal = 1;
place = (336, 57);
place = (336, 57);
type = Stem;
},
{
horizontal = 1;
place = (661, 57);
place = (661, 57);
type = Stem;
},
{
horizontal = 1;
place = (674, 44);
place = (674, 44);
type = Stem;
},
{
horizontal = 1;
place = (0, 57);
place = (0, 57);
type = Stem;
},
{
horizontal = 1;
place = (-25, 21);
target = up;
type = BottomGhost;
},
{
horizontal = 1;
place = (752, -20);
target = down;
type = TopGhost;
}
);
layerId = UUID0;
shapes = (
{
closed = 1;
nodes = (
(893,-14,l),
(893,157,l),
(859,169,l),
(853,146,ls),
(834,75,o),
(815,57,o),
(744,57,cs),
(636,57,ls),
(584,57,o),
(572,71,o),
(572,133,cs),
(572,336,l),
(657,336,ls),
(728,336,o),
(754,326,o),
(766,279,cs),
(772,256,l),
(806,268,l),
(806,439,l),
(786,450,l),
(778,439,ls),
(753,404,o),
(730,393,o),
(699,393,cs),
(572,393,l),
(572,585,ls),
(572,647,o),
(584,661,o),
(636,661,cs),
(733,661,ls),
(804,661,o),
(823,643,o),
(842,572,cs),
(848,549,l),
(882,561,l),
(882,739,l),
(866,752,l),
(848,739,ls),
(828,724,o),
(792,718,o),
(734,718,cs),
(366,718,ls),
(142,718,o),
(35,556,o),
(35,358,cs),
(35,160,o),
(142,0,o),
(366,0,cs),
(823,0,ls),
(844,0,o),
(857,-4,o),
(865,-14,cs),
(873,-25,l)
);
},
{
closed = 1;
nodes = (
(230,45,o),
(143,185,o),
(143,358,cs),
(143,508,o),
(195,674,o),
(355,674,cs),
(399,674,o),
(440,658,o),
(473,633,c),
(473,70,l),
(445,54,o),
(412,45,o),
(375,45,cs)
);
}
);
width = 956;
}
);
unicode = 338;
},
{
glyphname = P;
kernRight = P;
layers = (
{
anchors = (
{
name = bottom;
pos = (298,0);
},
{
name = top;
pos = (298,718);
}
);
background = {
shapes = (
{
closed = 1;
nodes = (
(226,630,ls),
(226,648,o),
(234,676,o),
(302,676,cs),
(414,676,o),
(472,595,o),
(472,491,cs),
(472,384,o),
(415,313,o),
(313,313,cs),
(283,313,o),
(272,320,o),
(264,320,cs),
(253,320,o),
(248,308,o),
(248,296,cs),
(248,272,o),
(291,261,o),
(336,261,cs),
(502,261,o),
(576,369,o),
(576,494,cs),
(576,624,o),
(492,732,o),
(284,732,cs),
(190,732,o),
(86,708,o),
(35,688,c),
(47,651,l),
(105,651,ls),
(120,651,o),
(127,645,o),
(127,627,cs),
(127,133,ls),
(127,72,o),
(113,53,o),
(63,40,cs),
(40,34,l),
(52,0,l),
(271,0,l),
(284,16,l),
(271,34,ls),
(238,78,o),
(226,119,o),
(226,201,cs)
);
}
);
};
hints = (
{
place = (127, 99);
place = (127, 99);
type = Stem;
},
{
place = (472, 104);
place = (472, 104);
type = Stem;
},
{
horizontal = 1;
place = (261, 52);
place = (261, 52);
type = Stem;
},
{
horizontal = 1;
place = (676, 56);
place = (676, 56);
type = Stem;
},
{
horizontal = 1;
place = (0, 21);
target = up;
type = BottomGhost;
}
);
layerId = UUID0;
shapes = (
{
closed = 1;
nodes = (
(271,0,l),
(284,16,l),
(271,34,ls),
(238,78,o),
(226,119,o),
(226,201,cs),
(226,630,ls),
(226,648,o),
(234,676,o),
(302,676,cs),
(414,676,o),
(472,595,o),
(472,491,cs),
(472,384,o),
(415,313,o),
(313,313,cs),
(283,313,o),
(272,320,o),
(264,320,cs),
(253,320,o),
(248,308,o),
(248,296,cs),
(248,272,o),
(291,261,o),
(336,261,cs),
(502,261,o),
(576,369,o),
(576,494,cs),
(576,624,o),
(492,732,o),
(284,732,cs),
(190,732,o),
(86,708,o),
(35,688,c),
(47,651,l),
(105,651,ls),
(120,651,o),
(127,645,o),
(127,627,cs),
(127,133,ls),
(127,72,o),
(113,53,o),
(63,40,cs),
(40,34,l),
(52,0,l)
);
}
);
width = 596;
}
);
unicode = 80;
},
{
glyphname = Thorn;
layers = (
{
anchors = (
{
name = bottom;
pos = (298,0);
},
{
name = top;
pos = (298,718);
}
);
background = {
shapes = (
{
closed = 1;
nodes = (
(297,0,l),
(308,32,l),
(287,38,ls),
(239,52,o),
(226,67,o),
(226,126,cs),
(226,498,ls),
(226,518,o),
(235,548,o),
(313,548,cs),
(418,548,o),
(472,466,o),
(472,360,cs),
(472,253,o),
(415,182,o),
(313,182,cs),
(283,182,o),
(272,189,o),
(264,189,cs),
(253,189,o),
(248,177,o),
(248,165,cs),
(248,141,o),
(291,130,o),
(336,130,cs),
(502,130,o),
(576,238,o),
(576,363,cs),
(576,496,o),
(477,601,o),
(340,601,cs),
(305,601,o),
(268,595,o),
(229,581,c),
(235,623,o),
(248,653,o),
(271,684,cs),
(284,702,l),
(271,718,l),
(52,718,l),
(40,684,l),
(63,678,ls),
(113,663,o),
(127,647,o),
(127,585,cs),
(127,133,ls),
(127,71,o),
(113,55,o),
(63,40,cs),
(40,34,l),
(52,0,l)
);
}
);
};
hints = (
{
place = (127, 99);
place = (127, 99);
type = Stem;
},
{
place = (472, 104);
place = (472, 104);
type = Stem;
},
{
horizontal = 1;
place = (130, 52);
place = (130, 52);
type = Stem;
},
{
horizontal = 1;
place = (548, 53);
place = (548, 53);
type = Stem;
},
{
horizontal = 1;
place = (0, 21);
target = up;
type = BottomGhost;
},
{
horizontal = 1;
place = (718, -20);
target = down;
type = TopGhost;
}
);
layerId = UUID0;
shapes = (
{
closed = 1;
nodes = (
(297,0,l),
(308,32,l),
(287,38,ls),
(239,52,o),
(226,67,o),
(226,126,cs),
(226,498,ls),
(226,518,o),
(235,548,o),
(313,548,cs),
(418,548,o),
(472,466,o),
(472,360,cs),
(472,253,o),
(415,182,o),
(313,182,cs),
(283,182,o),
(272,189,o),
(264,189,cs),
(253,189,o),
(248,177,o),
(248,165,cs),
(248,141,o),
(291,130,o),
(336,130,cs),
(502,130,o),
(576,238,o),
(576,363,cs),
(576,496,o),
(477,601,o),
(340,601,cs),
(305,601,o),
(268,595,o),
(229,581,c),
(235,623,o),
(248,653,o),
(271,684,cs),
(284,702,l),
(271,718,l),
(52,718,l),
(40,684,l),
(63,678,ls),
(113,663,o),
(127,647,o),
(127,585,cs),
(127,133,ls),
(127,71,o),
(113,55,o),
(63,40,cs),
(40,34,l),
(52,0,l)
);
}
);
width = 596;
}
);
unicode = 222;
},
{
glyphname = Q;
kernLeft = C;
kernRight = D;
layers = (
{
anchors = (
{
name = bottom;
pos = (367,0);
},
{
name = top;
pos = (367,718);
}
);
background = {
shapes = (
{
closed = 1;
nodes = (
(35,152,o),
(142,-14,o),
(366,-14,cs),
(411,-14,o),
(451,-7,o),
(487,5,c),
(526,-80,ls),
(559,-154,o),
(606,-222,o),
(690,-222,cs),
(737,-222,o),
(783,-189,o),
(783,-139,cs),
(783,-134,o),
(780,-129,o),
(774,-129,cs),
(766,-129,o),
(749,-142,o),
(719,-142,cs),
(670,-142,o),
(638,-119,o),
(614,-65,cs),
(564,46,l),
(654,112,o),
(698,227,o),
(698,358,cs),
(698,564,o),
(589,732,o),
(366,732,cs),
(142,732,o),
(35,564,o),
(35,358,cs)
);
},
{
closed = 1;
nodes = (
(589,264,o),
(565,183,o),
(522,126,c),
(466,214,o),
(398,254,o),
(327,254,cs),
(249,254,o),
(201,213,o),
(201,147,cs),
(201,140,o),
(201,134,o),
(203,127,c),
(163,182,o),
(143,261,o),
(143,350,cs),
(143,527,o),
(225,675,o),
(371,675,cs),
(541,675,o),
(589,480,o),
(589,355,cs)
);
},
{
closed = 1;
nodes = (
(244,172,o),
(272,196,o),
(310,196,cs),
(354,196,o),
(412,163,o),
(458,70,c),
(430,54,o),
(398,45,o),
(362,45,cs),
(304,45,o),
(244,70,o),
(244,133,cs)
);
}
);
};
hints = (
{
place = (35, 108);
place = (35, 108);
type = Stem;
},
{
place = (201, 43);
place = (201, 43);
type = Stem;
},
{
place = (589, 109);
place = (589, 109);
type = Stem;
},
{
horizontal = 1;
place = (-222, 80);
place = (-222, 80);
type = Stem;
},
{
horizontal = 1;
place = (-14, 59);
place = (-14, 59);
type = Stem;
},
{
horizontal = 1;
place = (196, 58);
place = (196, 58);
type = Stem;
},
{
horizontal = 1;
place = (675, 57);
place = (675, 57);
type = Stem;
}
);
layerId = UUID0;
shapes = (
{
closed = 1;
nodes = (
(737,-222,o),
(783,-189,o),
(783,-139,cs),
(783,-134,o),
(780,-129,o),
(774,-129,cs),
(766,-129,o),
(749,-142,o),
(719,-142,cs),
(670,-142,o),
(638,-119,o),
(614,-65,cs),
(564,46,l),
(654,112,o),
(698,227,o),
(698,358,cs),
(698,564,o),
(589,732,o),
(366,732,cs),
(142,732,o),
(35,564,o),
(35,358,cs),
(35,152,o),
(142,-14,o),
(366,-14,cs),
(411,-14,o),
(451,-7,o),
(487,5,c),
(526,-80,ls),
(559,-154,o),
(606,-222,o),
(690,-222,cs)
);
},
{
closed = 1;
nodes = (
(304,45,o),
(244,70,o),
(244,133,cs),
(244,172,o),
(272,196,o),
(310,196,cs),
(354,196,o),
(412,163,o),
(458,70,c),
(430,54,o),
(398,45,o),
(362,45,cs)
);
},
{
closed = 1;
nodes = (
(466,214,o),
(398,254,o),
(327,254,cs),
(249,254,o),
(201,213,o),
(201,147,cs),
(201,140,o),
(201,134,o),
(203,127,c),
(163,182,o),
(143,261,o),
(143,350,cs),
(143,527,o),
(225,675,o),
(371,675,cs),
(541,675,o),
(589,480,o),
(589,355,cs),
(589,264,o),
(565,183,o),
(522,126,c)
);
}
);
width = 733;
}
);
unicode = 81;
},
{
glyphname = R;
layers = (
{
anchors = (
{
name = bottom;
pos = (320,0);
},
{
name = top;
pos = (320,718);
}
);
background = {
shapes = (
{
closed = 1;
nodes = (
(604,55,l),
(590,45,o),
(578,41,o),
(565,41,cs),
(547,41,o),
(536,54,o),
(527,72,cs),
(434,261,ls),
(423,282,o),
(412,298,o),
(394,310,c),
(505,336,o),
(556,419,o),
(556,513,cs),
(556,633,o),
(472,732,o),
(264,732,cs),
(170,732,o),
(66,708,o),
(15,688,c),
(27,651,l),
(85,651,ls),
(100,651,o),
(107,645,o),
(107,627,cs),
(107,133,ls),
(107,72,o),
(93,53,o),
(43,40,cs),
(20,34,l),
(32,0,l),
(251,0,l),
(264,16,l),
(251,34,ls),
(219,78,o),
(206,119,o),
(206,201,cs),
(206,630,ls),
(206,648,o),
(214,676,o),
(282,676,cs),
(394,676,o),
(452,603,o),
(452,510,cs),
(452,417,o),
(395,354,o),
(293,354,cs),
(263,354,o),
(252,361,o),
(244,361,cs),
(233,361,o),
(228,349,o),
(228,337,cs),
(228,327,o),
(234,319,o),
(247,314,cs),
(286,300,o),
(302,293,o),
(315,264,cs),
(391,103,ls),
(426,28,o),
(459,-14,o),
(529,-14,cs),
(560,-14,o),
(592,-2,o),
(621,26,c)
);
}
);
};
hints = (
{
place = (107, 99);
place = (107, 99);
type = Stem;
},
{
place = (452, 104);
place = (452, 104);
type = Stem;
},
{
horizontal = 1;
place = (-14, 55);
place = (-14, 55);
type = Stem;
},
{
horizontal = 1;
place = (676, 56);
place = (676, 56);
type = Stem;
},
{
horizontal = 1;
place = (0, 21);
target = up;
type = BottomGhost;
}
);
layerId = UUID0;
shapes = (
{
closed = 1;
nodes = (
(560,-14,o),
(592,-2,o),
(621,26,c),
(604,55,l),
(590,45,o),
(578,41,o),
(565,41,cs),
(547,41,o),
(536,54,o),
(527,72,cs),
(434,261,ls),
(423,282,o),
(412,298,o),
(394,310,c),
(505,336,o),
(556,419,o),
(556,513,cs),
(556,633,o),
(472,732,o),
(264,732,cs),
(170,732,o),
(66,708,o),
(15,688,c),
(27,651,l),
(85,651,ls),
(100,651,o),
(107,645,o),
(107,627,cs),
(107,133,ls),
(107,72,o),
(93,53,o),
(43,40,cs),
(20,34,l),
(32,0,l),
(251,0,l),
(264,16,l),
(251,34,ls),
(219,78,o),
(206,119,o),
(206,201,cs),
(206,630,ls),
(206,648,o),
(214,676,o),
(282,676,cs),
(394,676,o),
(452,603,o),
(452,510,cs),
(452,417,o),
(395,354,o),
(293,354,cs),
(263,354,o),
(252,361,o),
(244,361,cs),
(233,361,o),
(228,349,o),
(228,337,cs),
(228,327,o),
(234,319,o),
(247,314,cs),
(286,300,o),
(302,293,o),
(315,264,cs),
(391,103,ls),
(426,28,o),
(459,-14,o),
(529,-14,cs)
);
}
);
width = 640;
}
);
unicode = 82;
},
{
glyphname = S;
kernRight = S;
layers = (
{
anchors = (
{
name = bottom;
pos = (286,-8);
},
{
name = top;
pos = (292,718);
}
);
background = {
shapes = (
{
closed = 1;
nodes = (
(206,42,o),
(148,91,o),
(148,161,cs),
(148,217,o),
(180,243,o),
(180,252,cs),
(180,258,o),
(174,264,o),
(159,264,cs),
(94,264,o),
(45,216,o),
(45,147,cs),
(45,52,o),
(147,-14,o),
(292,-14,cs),
(443,-14,o),
(522,65,o),
(522,181,cs),
(522,429,o),
(156,386,o),
(156,561,cs),
(156,620,o),
(196,676,o),
(279,676,cs),
(355,676,o),
(406,633,o),
(406,571,cs),
(406,515,o),
(376,490,o),
(376,480,cs),
(376,472,o),
(382,468,o),
(397,468,cs),
(458,468,o),
(504,516,o),
(504,585,cs),
(504,672,o),
(411,732,o),
(279,732,cs),
(131,732,o),
(61,636,o),
(61,538,cs),
(61,294,o),
(421,350,o),
(421,155,cs),
(421,83,o),
(367,42,o),
(292,42,cs)
);
}
);
};
hints = (
{
place = (45, 111);
place = (45, 111);
type = Stem;
},
{
place = (61, 95);
place = (61, 95);
type = Stem;
},
{
place = (406, 98);
place = (406, 98);
type = Stem;
},
{
place = (421, 83);
place = (421, 83);
type = Stem;
},
{
place = (421, 101);
place = (421, 101);
type = Stem;
},
{
horizontal = 1;
place = (-14, 56);
place = (-14, 56);
type = Stem;
},
{
horizontal = 1;
place = (676, 56);
place = (676, 56);
type = Stem;
}
);
layerId = UUID0;
shapes = (
{
closed = 1;
nodes = (
(443,-14,o),
(522,65,o),
(522,181,cs),
(522,429,o),
(156,386,o),
(156,561,cs),
(156,620,o),
(196,676,o),
(279,676,cs),
(355,676,o),
(406,633,o),
(406,571,cs),
(406,515,o),
(376,490,o),
(376,480,cs),
(376,472,o),
(382,468,o),
(397,468,cs),
(458,468,o),
(504,516,o),
(504,585,cs),
(504,672,o),
(411,732,o),
(279,732,cs),
(131,732,o),
(61,636,o),
(61,538,cs),
(61,294,o),
(421,350,o),
(421,155,cs),
(421,83,o),
(367,42,o),
(292,42,cs),
(206,42,o),
(148,91,o),
(148,161,cs),
(148,217,o),
(180,243,o),
(180,252,cs),
(180,258,o),
(174,264,o),
(159,264,cs),
(94,264,o),
(45,216,o),
(45,147,cs),
(45,52,o),
(147,-14,o),
(292,-14,cs)
);
}
);
width = 572;
}
);
unicode = 83;
},
{
glyphname = Scaron;
kernRight = S;
layers = (
{
background = {
hints = (
{
place = (45, 111);
place = (45, 111);
type = Stem;
},
{
place = (61, 95);
place = (61, 95);
type = Stem;
},
{
place = (406, 98);
place = (406, 98);
type = Stem;
},
{
place = (421, 83);
place = (421, 83);
type = Stem;
},
{
place = (421, 101);
place = (421, 101);
type = Stem;
},
{
horizontal = 1;
place = (-14, 56);
place = (-14, 56);
type = Stem;
},
{
horizontal = 1;
place = (676, 56);
place = (676, 56);
type = Stem;
},
{
horizontal = 1;
place = (799, 21);
target = up;
type = BottomGhost;
},
{
horizontal = 1;
place = (985, -20);
target = down;
type = TopGhost;
}
);
shapes = (
{
closed = 1;
nodes = (
(206,42,o),
(148,91,o),
(148,161,cs),
(148,217,o),
(180,243,o),
(180,252,cs),
(180,258,o),
(174,264,o),
(159,264,cs),
(94,264,o),
(45,216,o),
(45,147,cs),
(45,52,o),
(147,-14,o),
(292,-14,cs),
(443,-14,o),
(522,65,o),
(522,181,cs),
(522,429,o),
(156,386,o),
(156,561,cs),
(156,620,o),
(196,676,o),
(279,676,cs),
(355,676,o),
(406,633,o),
(406,571,cs),
(406,515,o),
(376,490,o),
(376,480,cs),
(376,472,o),
(382,468,o),
(397,468,cs),
(458,468,o),
(504,516,o),
(504,585,cs),
(504,672,o),
(411,732,o),
(279,732,cs),
(131,732,o),
(61,636,o),
(61,538,cs),
(61,294,o),
(421,350,o),
(421,155,cs),
(421,83,o),
(367,42,o),
(292,42,cs)
);
},
{
closed = 1;
nodes = (
(306,799,l),
(328,812,o),
(385,879,o),
(429,957,c),
(397,985,l),
(292,901,l),
(188,985,l),
(155,957,l),
(199,881,o),
(253,814,o),
(279,799,c)
);
}
);
};
layerId = UUID0;
shapes = (
{
ref = S;
},
{
pos = (154,0);
ref = caroncomb.case;
}
);
width = 572;
}
);
unicode = 352;
},
{
glyphname = T;
kernLeft = T;
kernRight = T;
layers = (
{
anchors = (
{
name = bottom;
pos = (298,0);
},
{
name = center;
pos = (298,359);
},
{
name = top;
pos = (298,718);
}
);
background = {
shapes = (
{
closed = 1;
nodes = (
(541,549,l),
(575,561,l),
(575,739,l),
(559,752,l),
(541,739,ls),
(521,724,o),
(485,718,o),
(427,718,cs),
(168,718,ls),
(110,718,o),
(74,724,o),
(54,739,cs),
(36,752,l),
(20,739,l),
(20,561,l),
(54,549,l),
(60,572,ls),
(79,643,o),
(98,661,o),
(169,661,cs),
(214,661,ls),
(242,661,o),
(248,647,o),
(248,585,cs),
(248,201,ls),
(248,120,o),
(236,78,o),
(203,34,cs),
(190,16,l),
(203,0,l),
(422,0,l),
(434,34,l),
(411,40,ls),
(361,55,o),
(347,71,o),
(347,133,cs),
(347,585,ls),
(347,647,o),
(353,661,o),
(381,661,cs),
(426,661,ls),
(497,661,o),
(516,643,o),
(535,572,cs)
);
}
);
};
hints = (
{
place = (248, 99);
place = (248, 99);
type = Stem;
},
{
horizontal = 1;
place = (661, 57);
place = (661, 57);
type = Stem;
},
{
horizontal = 1;
place = (752, -20);
target = down;
type = TopGhost;
},
{
horizontal = 1;
place = (0, 21);
target = up;
type = BottomGhost;
}
);
layerId = UUID0;
shapes = (
{
closed = 1;
nodes = (
(422,0,l),
(434,34,l),
(411,40,ls),
(361,55,o),
(347,71,o),
(347,133,cs),
(347,585,ls),
(347,647,o),
(353,661,o),
(381,661,cs),
(426,661,ls),
(497,661,o),
(516,643,o),
(535,572,cs),
(541,549,l),
(575,561,l),
(575,739,l),
(559,752,l),
(541,739,ls),
(521,724,o),
(485,718,o),
(427,718,cs),
(168,718,ls),
(110,718,o),
(74,724,o),
(54,739,cs),
(36,752,l),
(20,739,l),
(20,561,l),
(54,549,l),
(60,572,ls),
(79,643,o),
(98,661,o),
(169,661,cs),
(214,661,ls),
(242,661,o),
(248,647,o),
(248,585,cs),
(248,201,ls),
(248,120,o),
(236,78,o),
(203,34,cs),
(190,16,l),
(203,0,l)
);
}
);
width = 595;
}
);
unicode = 84;
},
{
glyphname = U;
kernLeft = U;
kernRight = U;
layers = (
{
anchors = (
{
name = bottom;
pos = (370,0);
},
{
name = ogonek;
pos = (505,10);
},
{
name = top;
pos = (382,718);
},
{
name = topright;
pos = (719,718);
}
);
background = {
shapes = (
{
closed = 1;
nodes = (
(210,517,ls),
(210,598,o),
(222,640,o),
(255,684,cs),
(268,702,l),
(255,718,l),
(36,718,l),
(24,684,l),
(47,678,ls),
(97,663,o),
(111,647,o),
(111,585,cs),
(111,220,ls),
(111,55,o),
(227,-14,o),
(373,-14,cs),
(517,-14,o),
(632,55,o),
(632,220,cs),
(632,517,ls),
(632,598,o),
(644,640,o),
(677,684,cs),
(690,702,l),
(677,718,l),
(487,718,l),
(475,684,l),
(498,678,ls),
(548,663,o),
(562,647,o),
(562,585,cs),
(562,220,ls),
(562,111,o),
(484,49,o),
(386,49,cs),
(288,49,o),
(210,111,o),
(210,220,cs)
);
}
);
};
hints = (
{
place = (111, 99);
place = (111, 99);
type = Stem;
},
{
place = (562, 70);
place = (562, 70);
type = Stem;
},
{
horizontal = 1;
place = (-14, 63);
place = (-14, 63);
type = Stem;
},
{
horizontal = 1;
place = (718, -20);
target = down;
type = TopGhost;
}
);
layerId = UUID0;
shapes = (
{
closed = 1;
nodes = (
(517,-14,o),
(632,55,o),
(632,220,cs),
(632,517,ls),
(632,598,o),
(645,639,o),
(677,684,cs),
(690,702,l),
(677,718,l),
(487,718,l),
(475,684,l),
(498,678,ls),
(549,665,o),
(562,647,o),
(562,585,cs),
(562,220,ls),
(562,111,o),
(484,49,o),
(386,49,cs),
(288,49,o),
(210,111,o),
(210,220,cs),
(210,517,ls),
(210,598,o),
(223,639,o),
(255,684,cs),
(268,702,l),
(255,718,l),
(36,718,l),
(24,684,l),
(47,678,ls),
(98,665,o),
(111,647,o),
(111,585,cs),
(111,220,ls),
(111,55,o),
(227,-14,o),
(373,-14,cs)
);
}
);
width = 739;
}
);
unicode = 85;
},
{
glyphname = Uacute;
kernLeft = U;
kernRight = U;
layers = (
{
background = {
hints = (
{
place = (111, 99);
place = (111, 99);
type = Stem;
},
{
place = (562, 70);
place = (562, 70);
type = Stem;
},
{
horizontal = 1;
place = (-14, 63);
place = (-14, 63);
type = Stem;
},
{
horizontal = 1;
place = (718, -20);
target = down;
type = TopGhost;
},
{
horizontal = 1;
place = (790, 21);
target = up;
type = BottomGhost;
},
{
horizontal = 1;
place = (981, -20);
target = down;
type = TopGhost;
}
);
shapes = (
{
closed = 1;
nodes = (
(210,517,ls),
(210,598,o),
(222,640,o),
(255,684,cs),
(268,702,l),
(255,718,l),
(36,718,l),
(24,684,l),
(47,678,ls),
(97,663,o),
(111,647,o),
(111,585,cs),
(111,220,ls),
(111,55,o),
(227,-14,o),
(373,-14,cs),
(517,-14,o),
(632,55,o),
(632,220,cs),
(632,517,ls),
(632,598,o),
(644,640,o),
(677,684,cs),
(690,702,l),
(677,718,l),
(487,718,l),
(475,684,l),
(498,678,ls),
(548,663,o),
(562,647,o),
(562,585,cs),
(562,220,ls),
(562,111,o),
(484,49,o),
(386,49,cs),
(288,49,o),
(210,111,o),
(210,220,cs)
);
},
{
closed = 1;
nodes = (
(306,825,l),
(335,790,l),
(448,846,ls),
(489,866,o),
(504,889,o),
(504,918,cs),
(504,947,o),
(487,969,o),
(462,981,c)
);
}
);
};
layerId = UUID0;
shapes = (
{
ref = U;
},
{
pos = (254,0);
ref = acutecomb.case;
}
);
width = 739;
}
);
unicode = 218;
},
{
glyphname = Ucircumflex;
kernLeft = U;
kernRight = U;
layers = (
{
background = {
hints = (
{
place = (111, 99);
place = (111, 99);
type = Stem;
},
{
place = (562, 70);
place = (562, 70);
type = Stem;
},
{
horizontal = 1;
place = (-14, 63);
place = (-14, 63);
type = Stem;
},
{
horizontal = 1;
place = (718, -20);
target = down;
type = TopGhost;
},
{
horizontal = 1;
place = (976, -20);
target = down;
type = TopGhost;
},
{
horizontal = 1;
place = (790, 21);
target = up;
type = BottomGhost;
}
);
shapes = (
{
closed = 1;
nodes = (
(210,517,ls),
(210,598,o),
(222,640,o),
(255,684,cs),
(268,702,l),
(255,718,l),
(36,718,l),
(24,684,l),
(47,678,ls),
(97,663,o),
(111,647,o),
(111,585,cs),
(111,220,ls),
(111,55,o),
(227,-14,o),
(373,-14,cs),
(517,-14,o),
(632,55,o),
(632,220,cs),
(632,517,ls),
(632,598,o),
(644,640,o),
(677,684,cs),
(690,702,l),
(677,718,l),
(487,718,l),
(475,684,l),
(498,678,ls),
(548,663,o),
(562,647,o),
(562,585,cs),
(562,220,ls),
(562,111,o),
(484,49,o),
(386,49,cs),
(288,49,o),
(210,111,o),
(210,220,cs)
);
},
{
closed = 1;
nodes = (
(373,976,l),
(347,961,o),
(293,894,o),
(249,818,c),
(282,790,l),
(386,873,l),
(491,790,l),
(523,818,l),
(479,896,o),
(422,963,o),
(400,976,c)
);
}
);
};
layerId = UUID0;
shapes = (
{
ref = U;
},
{
pos = (244,0);
ref = circumflexcomb.case;
}
);
width = 739;
}
);
unicode = 219;
},
{
glyphname = Udieresis;
kernLeft = U;
kernRight = U;
layers = (
{
background = {
hints = (
{
place = (111, 99);
place = (111, 99);
type = Stem;
},
{
place = (562, 70);
place = (562, 70);
type = Stem;
},
{
horizontal = 1;
place = (-14, 63);
place = (-14, 63);
type = Stem;
},
{
horizontal = 1;
place = (718, -20);
target = down;
type = TopGhost;
},
{
horizontal = 1;
place = (814, 21);
target = up;
type = BottomGhost;
},
{
horizontal = 1;
place = (945, -20);
target = down;
type = TopGhost;
}
);
shapes = (
{
closed = 1;
nodes = (
(210,517,ls),
(210,598,o),
(222,640,o),
(255,684,cs),
(268,702,l),
(255,718,l),
(36,718,l),
(24,684,l),
(47,678,ls),
(97,663,o),
(111,647,o),
(111,585,cs),
(111,220,ls),
(111,55,o),
(227,-14,o),
(373,-14,cs),
(517,-14,o),
(632,55,o),
(632,220,cs),
(632,517,ls),
(632,598,o),
(644,640,o),
(677,684,cs),
(690,702,l),
(677,718,l),
(487,718,l),
(475,684,l),
(498,678,ls),
(548,663,o),
(562,647,o),
(562,585,cs),
(562,220,ls),
(562,111,o),
(484,49,o),
(386,49,cs),
(288,49,o),
(210,111,o),
(210,220,cs)
);
},
{
closed = 1;
nodes = (
(226,853,o),
(264,814,o),
(287,814,cs),
(312,814,o),
(350,853,o),
(350,879,cs),
(350,905,o),
(312,945,o),
(287,945,cs),
(263,945,o),
(226,905,o),
(226,879,cs)
);
},
{
closed = 1;
nodes = (
(415,853,o),
(453,814,o),
(476,814,cs),
(501,814,o),
(539,853,o),
(539,879,cs),
(539,905,o),
(501,945,o),
(476,945,cs),
(452,945,o),
(415,905,o),
(415,879,cs)
);
}
);
};
layerId = UUID0;
shapes = (
{
ref = U;
},
{
pos = (244,0);
ref = dieresiscomb.case;
}
);
width = 739;
}
);
unicode = 220;
},
{
glyphname = Ugrave;
kernLeft = U;
kernRight = U;
layers = (
{
background = {
hints = (
{
place = (111, 99);
place = (111, 99);
type = Stem;
},
{
place = (562, 70);
place = (562, 70);
type = Stem;
},
{
horizontal = 1;
place = (-14, 63);
place = (-14, 63);
type = Stem;
},
{
horizontal = 1;
place = (718, -20);
target = down;
type = TopGhost;
},
{
horizontal = 1;
place = (981, -20);
target = down;
type = TopGhost;
},
{
horizontal = 1;
place = (790, 21);
target = up;
type = BottomGhost;
}
);
shapes = (
{
closed = 1;
nodes = (
(210,517,ls),
(210,598,o),
(222,640,o),
(255,684,cs),
(268,702,l),
(255,718,l),
(36,718,l),
(24,684,l),
(47,678,ls),
(97,663,o),
(111,647,o),
(111,585,cs),
(111,220,ls),
(111,55,o),
(227,-14,o),
(373,-14,cs),
(517,-14,o),
(632,55,o),
(632,220,cs),
(632,517,ls),
(632,598,o),
(644,640,o),
(677,684,cs),
(690,702,l),
(677,718,l),
(487,718,l),
(475,684,l),
(498,678,ls),
(548,663,o),
(562,647,o),
(562,585,cs),
(562,220,ls),
(562,111,o),
(484,49,o),
(386,49,cs),
(288,49,o),
(210,111,o),
(210,220,cs)
);
},
{
closed = 1;
nodes = (
(312,981,l),
(287,969,o),
(270,947,o),
(270,918,cs),
(270,889,o),
(285,866,o),
(326,846,cs),
(439,790,l),
(468,825,l)
);
}
);
};
layerId = UUID0;
shapes = (
{
ref = U;
},
{
pos = (244,221);
ref = gravecomb.case;
}
);
width = 739;
}
);
unicode = 217;
},
{
glyphname = V;
kernLeft = V;
kernRight = V;
layers = (
{
anchors = (
{
name = bottom;
pos = (341,0);
},
{
name = top;
pos = (341,718);
}
);
background = {
shapes = (
{
closed = 1;
nodes = (
(597,584,ls),
(609,621,o),
(626,653,o),
(652,684,cs),
(667,702,l),
(654,718,l),
(464,718,l),
(452,684,l),
(475,678,ls),
(505,670,o),
(519,647,o),
(520,611,cs),
(520,587,o),
(513,556,o),
(501,518,cs),
(361,83,l),
(198,585,ls),
(191,606,o),
(187,621,o),
(187,634,cs),
(187,659,o),
(201,670,o),
(232,678,cs),
(255,684,l),
(243,718,l),
(18,718,l),
(5,702,l),
(48,669,o),
(73,646,o),
(95,580,cs),
(290,0,l),
(404,0,l)
);
}
);
};
hints = (
{
horizontal = 1;
place = (718, -20);
target = down;
type = TopGhost;
},
{
horizontal = 1;
place = (0, 21);
target = up;
type = BottomGhost;
}
);
layerId = UUID0;
shapes = (
{
closed = 1;
nodes = (
(404,0,l),
(597,584,ls),
(609,621,o),
(626,653,o),
(652,684,cs),
(667,702,l),
(654,718,l),
(464,718,l),
(452,684,l),
(475,678,ls),
(505,670,o),
(519,647,o),
(520,611,cs),
(520,587,o),
(513,556,o),
(501,518,cs),
(361,83,l),
(198,585,ls),
(191,606,o),
(187,621,o),
(187,634,cs),
(187,659,o),
(201,670,o),
(232,678,cs),
(255,684,l),
(243,718,l),
(18,718,l),
(5,702,l),
(48,669,o),
(73,646,o),
(95,580,cs),
(290,0,l)
);
}
);
width = 682;
}
);
unicode = 86;
},
{
glyphname = W;
kernLeft = V;
kernRight = V;
layers = (
{
anchors = (
{
name = bottom;
pos = (544,0);
},
{
name = top;
pos = (544,718);
}
);
background = {
shapes = (
{
closed = 1;
nodes = (
(1002,584,ls),
(1014,621,o),
(1031,653,o),
(1057,684,cs),
(1072,702,l),
(1059,718,l),
(869,718,l),
(857,684,l),
(880,678,ls),
(910,670,o),
(924,647,o),
(925,611,cs),
(925,587,o),
(918,556,o),
(906,518,cs),
(766,83,l),
(603,585,ls),
(596,606,o),
(592,621,o),
(592,634,cs),
(592,659,o),
(606,670,o),
(637,678,cs),
(660,684,l),
(648,718,l),
(423,718,l),
(410,702,l),
(453,669,o),
(478,646,o),
(500,580,cs),
(510,548,l),
(361,83,l),
(198,585,ls),
(191,606,o),
(187,621,o),
(187,634,cs),
(187,659,o),
(201,670,o),
(232,678,cs),
(255,684,l),
(243,718,l),
(18,718,l),
(5,702,l),
(48,669,o),
(73,646,o),
(95,580,cs),
(290,0,l),
(404,0,l),
(548,436,l),
(695,0,l),
(809,0,l)
);
}
);
};
hints = (
{
horizontal = 1;
place = (718, -20);
target = down;
type = TopGhost;
},
{
horizontal = 1;
place = (0, 21);
target = up;
type = BottomGhost;
}
);
layerId = UUID0;
shapes = (
{
closed = 1;
nodes = (
(404,0,l),
(548,436,l),
(695,0,l),
(809,0,l),
(1002,584,ls),
(1014,621,o),
(1031,653,o),
(1057,684,cs),
(1072,702,l),
(1059,718,l),
(869,718,l),
(857,684,l),
(880,678,ls),
(910,670,o),
(924,647,o),
(925,611,cs),
(925,587,o),
(918,556,o),
(906,518,cs),
(766,83,l),
(603,585,ls),
(596,606,o),
(592,621,o),
(592,634,cs),
(592,659,o),
(606,670,o),
(637,678,cs),
(660,684,l),
(648,718,l),
(423,718,l),
(410,702,l),
(453,669,o),
(478,646,o),
(500,580,cs),
(510,548,l),
(361,83,l),
(198,585,ls),
(191,606,o),
(187,621,o),
(187,634,cs),
(187,659,o),
(201,670,o),
(232,678,cs),
(255,684,l),
(243,718,l),
(18,718,l),
(5,702,l),
(48,669,o),
(73,646,o),
(95,580,cs),
(290,0,l)
);
}
);
width = 1087;
}
);
unicode = 87;
},
{
glyphname = X;
layers = (
{
anchors = (
{
name = bottom;
pos = (340,0);
},
{
name = top;
pos = (340,718);
}
);
background = {
shapes = (
{
closed = 1;
nodes = (
(250,576,ls),
(240,591,o),
(228,614,o),
(228,635,cs),
(228,654,o),
(238,670,o),
(267,678,cs),
(290,684,l),
(278,718,l),
(41,718,l),
(28,702,l),
(63,672,o),
(94,631,o),
(119,596,cs),
(290,353,l),
(111,94,ls),
(87,59,o),
(62,48,o),
(33,40,cs),
(10,34,l),
(22,0,l),
(206,0,l),
(225,16,l),
(216,34,ls),
(211,45,o),
(203,63,o),
(203,79,cs),
(203,95,o),
(206,107,o),
(224,135,cs),
(330,295,l),
(439,142,ls),
(449,127,o),
(461,104,o),
(461,83,cs),
(461,64,o),
(451,48,o),
(422,40,cs),
(399,34,l),
(411,0,l),
(648,0,l),
(661,16,l),
(622,48,o),
(601,78,o),
(574,116,cs),
(394,371,l),
(569,624,ls),
(593,659,o),
(618,670,o),
(647,678,cs),
(670,684,l),
(658,718,l),
(474,718,l),
(455,702,l),
(464,684,ls),
(469,673,o),
(477,655,o),
(477,639,cs),
(477,623,o),
(474,611,o),
(456,583,cs),
(353,429,l)
);
}
);
};
hints = (
{
horizontal = 1;
place = (718, -20);
target = down;
type = TopGhost;
},
{
horizontal = 1;
place = (0, 21);
target = up;
type = BottomGhost;
}
);
layerId = UUID0;
shapes = (
{
closed = 1;
nodes = (
(206,0,l),
(225,16,l),
(216,34,ls),
(211,45,o),
(203,63,o),
(203,79,cs),
(203,95,o),
(206,107,o),
(224,135,cs),
(330,295,l),
(439,142,ls),
(449,127,o),
(461,104,o),
(461,83,cs),
(461,64,o),
(451,48,o),
(422,40,cs),
(399,34,l),
(411,0,l),
(648,0,l),
(661,16,l),
(622,48,o),
(601,78,o),
(574,116,cs),
(394,371,l),
(569,624,ls),
(593,659,o),
(618,670,o),
(647,678,cs),
(670,684,l),
(658,718,l),
(474,718,l),
(455,702,l),
(464,684,ls),
(469,673,o),
(477,655,o),
(477,639,cs),
(477,623,o),
(474,611,o),
(456,583,cs),
(353,429,l),
(250,576,ls),
(240,591,o),
(228,614,o),
(228,635,cs),
(228,654,o),
(238,670,o),
(267,678,cs),
(290,684,l),
(278,718,l),
(41,718,l),
(28,702,l),
(63,672,o),
(94,631,o),
(119,596,cs),
(290,353,l),
(111,94,ls),
(87,59,o),
(62,48,o),
(33,40,cs),
(10,34,l),
(22,0,l)
);
}
);
width = 680;
}
);
unicode = 88;
},
{
glyphname = Y;
kernLeft = V;
kernRight = V;
layers = (
{
anchors = (
{
name = bottom;
pos = (313,0);
},
{
name = top;
pos = (340,718);
},
{
name = topleft;
pos = (20,718);
}
);
background = {
shapes = (
{
closed = 1;
nodes = (
(218,571,ls),
(207,590,o),
(187,621,o),
(187,634,cs),
(187,659,o),
(201,670,o),
(232,678,cs),
(255,684,l),
(243,718,l),
(18,718,l),
(5,702,l),
(48,669,o),
(71,636,o),
(105,576,cs),
(265,295,l),
(265,201,ls),
(265,119,o),
(250,78,o),
(218,34,cs),
(205,16,l),
(218,0,l),
(437,0,l),
(449,34,l),
(426,40,ls),
(376,53,o),
(360,72,o),
(360,133,cs),
(360,303,l),
(515,578,ls),
(534,612,o),
(560,653,o),
(586,684,cs),
(601,702,l),
(588,718,l),
(398,718,l),
(386,684,l),
(409,678,ls),
(430,672,o),
(451,654,o),
(451,625,cs),
(451,613,o),
(447,599,o),
(439,584,cs),
(326,382,l)
);
}
);
};
hints = (
{
horizontal = 1;
place = (718, -20);
target = down;
type = TopGhost;
},
{
horizontal = 1;
place = (0, 21);
target = up;
type = BottomGhost;
}
);
layerId = UUID0;
shapes = (
{
closed = 1;
nodes = (
(437,0,l),
(449,34,l),
(426,40,ls),
(376,53,o),
(360,72,o),
(360,133,cs),
(360,303,l),
(515,578,ls),
(534,612,o),
(560,653,o),
(586,684,cs),
(601,702,l),
(588,718,l),
(398,718,l),
(386,684,l),
(409,678,ls),
(430,672,o),
(451,654,o),
(451,625,cs),
(451,613,o),
(447,599,o),
(439,584,cs),
(326,382,l),
(218,571,ls),
(207,590,o),
(187,621,o),
(187,634,cs),
(187,659,o),
(201,670,o),
(232,678,cs),
(255,684,l),
(243,718,l),
(18,718,l),
(5,702,l),
(48,669,o),
(71,636,o),
(105,576,cs),
(265,295,l),
(265,201,ls),
(265,119,o),
(250,78,o),
(218,34,cs),
(205,16,l),
(218,0,l)
);
}
);
width = 626;
}
);
unicode = 89;
},
{
glyphname = Yacute;
kernLeft = V;
kernRight = V;
layers = (
{
background = {
hints = (
{
horizontal = 1;
place = (718, -20);
target = down;
type = TopGhost;
},
{
horizontal = 1;
place = (0, 21);
target = up;
type = BottomGhost;
},
{
horizontal = 1;
place = (790, 21);
target = up;
type = BottomGhost;
},
{
horizontal = 1;
place = (981, -20);
target = down;
type = TopGhost;
}
);
shapes = (
{
closed = 1;
nodes = (
(218,571,ls),
(207,590,o),
(187,621,o),
(187,634,cs),
(187,659,o),
(201,670,o),
(232,678,cs),
(255,684,l),
(243,718,l),
(18,718,l),
(5,702,l),
(48,669,o),
(71,636,o),
(105,576,cs),
(265,295,l),
(265,201,ls),
(265,119,o),
(250,78,o),
(218,34,cs),
(205,16,l),
(218,0,l),
(437,0,l),
(449,34,l),
(426,40,ls),
(376,53,o),
(360,72,o),
(360,133,cs),
(360,303,l),
(515,578,ls),
(534,612,o),
(560,653,o),
(586,684,cs),
(601,702,l),
(588,718,l),
(398,718,l),
(386,684,l),
(409,678,ls),
(430,672,o),
(451,654,o),
(451,625,cs),
(451,613,o),
(447,599,o),
(439,584,cs),
(326,382,l)
);
},
{
closed = 1;
nodes = (
(261,825,l),
(290,790,l),
(403,846,ls),
(444,866,o),
(459,889,o),
(459,918,cs),
(459,947,o),
(442,969,o),
(417,981,c)
);
}
);
};
layerId = UUID0;
shapes = (
{
ref = Y;
},
{
pos = (212,0);
ref = acutecomb.case;
}
);
width = 626;
}
);
unicode = 221;
},
{
glyphname = Ydieresis;
kernLeft = V;
kernRight = V;
layers = (
{
background = {
hints = (
{
horizontal = 1;
place = (718, -20);
target = down;
type = TopGhost;
},
{
horizontal = 1;
place = (0, 21);
target = up;
type = BottomGhost;
},
{
horizontal = 1;
place = (814, 21);
target = up;
type = BottomGhost;
},
{
horizontal = 1;
place = (945, -20);
target = down;
type = TopGhost;
}
);
shapes = (
{
closed = 1;
nodes = (
(218,571,ls),
(207,590,o),
(187,621,o),
(187,634,cs),
(187,659,o),
(201,670,o),
(232,678,cs),
(255,684,l),
(243,718,l),
(18,718,l),
(5,702,l),
(48,669,o),
(71,636,o),
(105,576,cs),
(265,295,l),
(265,201,ls),
(265,119,o),
(250,78,o),
(218,34,cs),
(205,16,l),
(218,0,l),
(437,0,l),
(449,34,l),
(426,40,ls),
(376,53,o),
(360,72,o),
(360,133,cs),
(360,303,l),
(515,578,ls),
(534,612,o),
(560,653,o),
(586,684,cs),
(601,702,l),
(588,718,l),
(398,718,l),
(386,684,l),
(409,678,ls),
(430,672,o),
(451,654,o),
(451,625,cs),
(451,613,o),
(447,599,o),
(439,584,cs),
(326,382,l)
);
},
{
closed = 1;
nodes = (
(183,853,o),
(221,814,o),
(244,814,cs),
(269,814,o),
(307,853,o),
(307,879,cs),
(307,905,o),
(269,945,o),
(244,945,cs),
(220,945,o),
(183,905,o),
(183,879,cs)
);
},
{
closed = 1;
nodes = (
(372,853,o),
(410,814,o),
(433,814,cs),
(458,814,o),
(496,853,o),
(496,879,cs),
(496,905,o),
(458,945,o),
(433,945,cs),
(409,945,o),
(372,905,o),
(372,879,cs)
);
}
);
};
layerId = UUID0;
shapes = (
{
ref = Y;
},
{
pos = (202,0);
ref = dieresiscomb.case;
}
);
width = 626;
}
);
unicode = 376;
},
{
glyphname = Z;
layers = (
{
anchors = (
{
name = bottom;
pos = (295,0);
},
{
name = center;
pos = (295,359);
},
{
name = top;
pos = (313,718);
}
);
background = {
shapes = (
{
closed = 1;
nodes = (
(97,572,ls),
(116,643,o),
(135,661,o),
(206,661,cs),
(417,661,l),
(20,0,l),
(480,0,ls),
(501,0,o),
(514,-4,o),
(522,-14,cs),
(530,-25,l),
(550,-14,l),
(550,157,l),
(516,169,l),
(510,146,ls),
(491,75,o),
(472,57,o),
(401,57,cs),
(175,57,l),
(570,718,l),
(205,718,ls),
(147,718,o),
(111,724,o),
(91,739,cs),
(73,752,l),
(57,739,l),
(57,561,l),
(91,549,l)
);
}
);
};
hints = (
{
horizontal = 1;
place = (0, 57);
place = (0, 57);
type = Stem;
},
{
horizontal = 1;
place = (661, 57);
place = (661, 57);
type = Stem;
},
{
horizontal = 1;
place = (-25, 21);
target = up;
type = BottomGhost;
},
{
horizontal = 1;
place = (752, -20);
target = down;
type = TopGhost;
}
);
layerId = UUID0;
shapes = (
{
closed = 1;
nodes = (
(550,-14,l),
(550,157,l),
(516,169,l),
(510,146,ls),
(491,75,o),
(472,57,o),
(401,57,cs),
(175,57,l),
(570,718,l),
(205,718,ls),
(147,718,o),
(111,724,o),
(91,739,cs),
(73,752,l),
(57,739,l),
(57,561,l),
(91,549,l),
(97,572,ls),
(116,643,o),
(135,661,o),
(206,661,cs),
(417,661,l),
(20,0,l),
(480,0,ls),
(501,0,o),
(514,-4,o),
(522,-14,cs),
(530,-25,l)
);
}
);
width = 590;
}
);
unicode = 90;
},
{
glyphname = Zcaron;
layers = (
{
background = {
hints = (
{
horizontal = 1;
place = (0, 57);
place = (0, 57);
type = Stem;
},
{
horizontal = 1;
place = (661, 57);
place = (661, 57);
type = Stem;
},
{
horizontal = 1;
place = (-25, 21);
target = up;
type = BottomGhost;
},
{
horizontal = 1;
place = (752, -20);
target = down;
type = TopGhost;
},
{
horizontal = 1;
place = (799, 21);
target = up;
type = BottomGhost;
},
{
horizontal = 1;
place = (985, -20);
target = down;
type = TopGhost;
}
);
shapes = (
{
closed = 1;
nodes = (
(97,572,ls),
(116,643,o),
(135,661,o),
(206,661,cs),
(417,661,l),
(20,0,l),
(480,0,ls),
(501,0,o),
(514,-4,o),
(522,-14,cs),
(530,-25,l),
(550,-14,l),
(550,157,l),
(516,169,l),
(510,146,ls),
(491,75,o),
(472,57,o),
(401,57,cs),
(175,57,l),
(570,718,l),
(205,718,ls),
(147,718,o),
(111,724,o),
(91,739,cs),
(73,752,l),
(57,739,l),
(57,561,l),
(91,549,l)
);
},
{
closed = 1;
nodes = (
(327,799,l),
(349,812,o),
(406,879,o),
(450,957,c),
(418,985,l),
(313,901,l),
(209,985,l),
(176,957,l),
(220,881,o),
(274,814,o),
(300,799,c)
);
}
);
};
layerId = UUID0;
shapes = (
{
ref = Z;
},
{
pos = (175,0);
ref = caroncomb.case;
}
);
width = 590;
}
);
unicode = 381;
},
{
glyphname = a;
kernLeft = a;
layers = (
{
anchors = (
{
name = bottom;
pos = (302,0);
},
{
name = ogonek;
pos = (544,10);
},
{
name = top;
pos = (312,497);
}
);
background = {
shapes = (
{
closed = 1;
nodes = (
(401,17,o),
(423,-14,o),
(478,-14,cs),
(512,-14,o),
(554,10,o),
(589,49,c),
(570,75,l),
(553,63,o),
(535,57,o),
(520,57,cs),
(501,57,o),
(490,67,o),
(490,88,cs),
(490,415,ls),
(490,432,o),
(495,442,o),
(503,454,cs),
(515,472,l),
(504,485,l),
(436,490,o),
(366,510,o),
(304,510,cs),
(145,510,o),
(45,402,o),
(45,229,cs),
(45,67,o),
(130,-14,o),
(224,-14,cs),
(286,-14,o),
(343,11,o),
(401,92,c)
);
},
{
closed = 1;
nodes = (
(150,379,o),
(206,455,o),
(303,455,cs),
(336,455,o),
(370,445,o),
(401,424,c),
(401,154,l),
(364,91,o),
(315,63,o),
(264,63,cs),
(205,63,o),
(150,112,o),
(150,248,cs)
);
}
);
};
hints = (
{
place = (45, 105);
place = (45, 105);
type = Stem;
},
{
place = (401, 89);
place = (401, 89);
type = Stem;
},
{
horizontal = 1;
place = (-14, 77);
place = (-14, 77);
type = Stem;
},
{
horizontal = 1;
place = (455, 55);
place = (455, 55);
type = Stem;
}
);
layerId = UUID0;
shapes = (
{
closed = 1;
nodes = (
(286,-14,o),
(343,11,o),
(401,92,c),
(401,17,o),
(423,-14,o),
(478,-14,cs),
(512,-14,o),
(554,10,o),
(589,49,c),
(570,75,l),
(553,63,o),
(535,57,o),
(520,57,cs),
(501,57,o),
(490,67,o),
(490,88,cs),
(490,415,ls),
(490,432,o),
(495,442,o),
(503,454,cs),
(515,472,l),
(504,485,l),
(436,490,o),
(366,510,o),
(304,510,cs),
(145,510,o),
(45,402,o),
(45,229,cs),
(45,67,o),
(130,-14,o),
(224,-14,cs)
);
},
{
closed = 1;
nodes = (
(205,63,o),
(150,112,o),
(150,248,cs),
(150,379,o),
(206,455,o),
(303,455,cs),
(336,455,o),
(370,445,o),
(401,424,c),
(401,154,l),
(364,91,o),
(315,63,o),
(264,63,cs)
);
}
);
width = 604;
}
);
unicode = 97;
},
{
glyphname = aacute;
kernLeft = a;
layers = (
{
background = {
hints = (
{
place = (45, 105);
place = (45, 105);
type = Stem;
},
{
place = (401, 89);
place = (401, 89);
type = Stem;
},
{
horizontal = 1;
place = (-14, 77);
place = (-14, 77);
type = Stem;
},
{
horizontal = 1;
place = (455, 55);
place = (455, 55);
type = Stem;
},
{
horizontal = 1;
place = (569, 21);
target = up;
type = BottomGhost;
},
{
horizontal = 1;
place = (760, -20);
target = down;
type = TopGhost;
}
);
shapes = (
{
closed = 1;
nodes = (
(401,17,o),
(423,-14,o),
(478,-14,cs),
(512,-14,o),
(554,10,o),
(589,49,c),
(570,75,l),
(553,63,o),
(535,57,o),
(520,57,cs),
(501,57,o),
(490,67,o),
(490,88,cs),
(490,415,ls),
(490,432,o),
(495,442,o),
(503,454,cs),
(515,472,l),
(504,485,l),
(436,490,o),
(366,510,o),
(304,510,cs),
(145,510,o),
(45,402,o),
(45,229,cs),
(45,67,o),
(130,-14,o),
(224,-14,cs),
(286,-14,o),
(343,11,o),
(401,92,c)
);
},
{
closed = 1;
nodes = (
(150,379,o),
(206,455,o),
(303,455,cs),
(336,455,o),
(370,445,o),
(401,424,c),
(401,154,l),
(364,91,o),
(315,63,o),
(264,63,cs),
(205,63,o),
(150,112,o),
(150,248,cs)
);
},
{
closed = 1;
nodes = (
(203,604,l),
(232,569,l),
(345,625,ls),
(386,645,o),
(401,668,o),
(401,697,cs),
(401,726,o),
(384,748,o),
(359,760,c)
);
}
);
};
layerId = UUID0;
shapes = (
{
ref = a;
},
{
pos = (150,0);
ref = acutecomb;
}
);
width = 604;
}
);
unicode = 225;
},
{
glyphname = acircumflex;
kernLeft = a;
layers = (
{
background = {
hints = (
{
place = (45, 105);
place = (45, 105);
type = Stem;
},
{
place = (401, 89);
place = (401, 89);
type = Stem;
},
{
horizontal = 1;
place = (-14, 77);
place = (-14, 77);
type = Stem;
},
{
horizontal = 1;
place = (455, 55);
place = (455, 55);
type = Stem;
},
{
horizontal = 1;
place = (755, -20);
target = down;
type = TopGhost;
},
{
horizontal = 1;
place = (569, 21);
target = up;
type = BottomGhost;
}
);
shapes = (
{
closed = 1;
nodes = (
(401,17,o),
(423,-14,o),
(478,-14,cs),
(512,-14,o),
(554,10,o),
(589,49,c),
(570,75,l),
(553,63,o),
(535,57,o),
(520,57,cs),
(501,57,o),
(490,67,o),
(490,88,cs),
(490,415,ls),
(490,432,o),
(495,442,o),
(503,454,cs),
(515,472,l),
(504,485,l),
(436,490,o),
(366,510,o),
(304,510,cs),
(145,510,o),
(45,402,o),
(45,229,cs),
(45,67,o),
(130,-14,o),
(224,-14,cs),
(286,-14,o),
(343,11,o),
(401,92,c)
);
},
{
closed = 1;
nodes = (
(150,379,o),
(206,455,o),
(303,455,cs),
(336,455,o),
(370,445,o),
(401,424,c),
(401,154,l),
(364,91,o),
(315,63,o),
(264,63,cs),
(205,63,o),
(150,112,o),
(150,248,cs)
);
},
{
closed = 1;
nodes = (
(289,755,l),
(263,740,o),
(209,673,o),
(165,597,c),
(198,569,l),
(302,652,l),
(407,569,l),
(439,597,l),
(395,675,o),
(338,742,o),
(316,755,c)
);
}
);
};
layerId = UUID0;
shapes = (
{
ref = a;
},
{
pos = (125,0);
ref = circumflexcomb;
}
);
width = 604;
}
);
unicode = 226;
},
{
glyphname = adieresis;
kernLeft = a;
layers = (
{
background = {
hints = (
{
place = (45, 105);
place = (45, 105);
type = Stem;
},
{
place = (401, 89);
place = (401, 89);
type = Stem;
},
{
horizontal = 1;
place = (-14, 77);
place = (-14, 77);
type = Stem;
},
{
horizontal = 1;
place = (455, 55);
place = (455, 55);
type = Stem;
},
{
horizontal = 1;
place = (593, 21);
target = up;
type = BottomGhost;
},
{
horizontal = 1;
place = (724, -20);
target = down;
type = TopGhost;
}
);
shapes = (
{
closed = 1;
nodes = (
(401,17,o),
(423,-14,o),
(478,-14,cs),
(512,-14,o),
(554,10,o),
(589,49,c),
(570,75,l),
(553,63,o),
(535,57,o),
(520,57,cs),
(501,57,o),
(490,67,o),
(490,88,cs),
(490,415,ls),
(490,432,o),
(495,442,o),
(503,454,cs),
(515,472,l),
(504,485,l),
(436,490,o),
(366,510,o),
(304,510,cs),
(145,510,o),
(45,402,o),
(45,229,cs),
(45,67,o),
(130,-14,o),
(224,-14,cs),
(286,-14,o),
(343,11,o),
(401,92,c)
);
},
{
closed = 1;
nodes = (
(150,379,o),
(206,455,o),
(303,455,cs),
(336,455,o),
(370,445,o),
(401,424,c),
(401,154,l),
(364,91,o),
(315,63,o),
(264,63,cs),
(205,63,o),
(150,112,o),
(150,248,cs)
);
},
{
closed = 1;
nodes = (
(145,632,o),
(183,593,o),
(206,593,cs),
(231,593,o),
(269,632,o),
(269,658,cs),
(269,684,o),
(231,724,o),
(206,724,cs),
(182,724,o),
(145,684,o),
(145,658,cs)
);
},
{
closed = 1;
nodes = (
(334,632,o),
(372,593,o),
(395,593,cs),
(420,593,o),
(458,632,o),
(458,658,cs),
(458,684,o),
(420,724,o),
(395,724,cs),
(371,724,o),
(334,684,o),
(334,658,cs)
);
}
);
};
layerId = UUID0;
shapes = (
{
ref = a;
},
{
pos = (101,0);
ref = dieresiscomb;
}
);
width = 604;
}
);
unicode = 228;
},
{
glyphname = agrave;
kernLeft = a;
layers = (
{
background = {
hints = (
{
place = (45, 105);
place = (45, 105);
type = Stem;
},
{
place = (401, 89);
place = (401, 89);
type = Stem;
},
{
horizontal = 1;
place = (-14, 77);
place = (-14, 77);
type = Stem;
},
{
horizontal = 1;
place = (455, 55);
place = (455, 55);
type = Stem;
},
{
horizontal = 1;
place = (760, -20);
target = down;
type = TopGhost;
},
{
horizontal = 1;
place = (569, 21);
target = up;
type = BottomGhost;
}
);
shapes = (
{
closed = 1;
nodes = (
(401,17,o),
(423,-14,o),
(478,-14,cs),
(512,-14,o),
(554,10,o),
(589,49,c),
(570,75,l),
(553,63,o),
(535,57,o),
(520,57,cs),
(501,57,o),
(490,67,o),
(490,88,cs),
(490,415,ls),
(490,432,o),
(495,442,o),
(503,454,cs),
(515,472,l),
(504,485,l),
(436,490,o),
(366,510,o),
(304,510,cs),
(145,510,o),
(45,402,o),
(45,229,cs),
(45,67,o),
(130,-14,o),
(224,-14,cs),
(286,-14,o),
(343,11,o),
(401,92,c)
);
},
{
closed = 1;
nodes = (
(150,379,o),
(206,455,o),
(303,455,cs),
(336,455,o),
(370,445,o),
(401,424,c),
(401,154,l),
(364,91,o),
(315,63,o),
(264,63,cs),
(205,63,o),
(150,112,o),
(150,248,cs)
);
},
{
closed = 1;
nodes = (
(245,760,l),
(220,748,o),
(203,726,o),
(203,697,cs),
(203,668,o),
(218,645,o),
(259,625,cs),
(372,569,l),
(401,604,l)
);
}
);
};
layerId = UUID0;
shapes = (
{
ref = a;
},
{
pos = (159,0);
ref = gravecomb;
}
);
width = 604;
}
);
unicode = 224;
},
{
glyphname = aring;
kernLeft = a;
layers = (
{
background = {
hints = (
{
place = (45, 105);
place = (45, 105);
type = Stem;
},
{
place = (401, 89);
place = (401, 89);
type = Stem;
},
{
horizontal = 1;
place = (-14, 77);
place = (-14, 77);
type = Stem;
},
{
horizontal = 1;
place = (455, 55);
place = (455, 55);
type = Stem;
},
{
place = (188, 70);
place = (188, 70);
type = Stem;
},
{
place = (344, 71);
place = (344, 71);
type = Stem;
},
{
horizontal = 1;
place = (552, 48);
place = (552, 48);
type = Stem;
},
{
horizontal = 1;
place = (716, 49);
place = (716, 49);
type = Stem;
}
);
shapes = (
{
closed = 1;
nodes = (
(401,17,o),
(423,-14,o),
(478,-14,cs),
(512,-14,o),
(554,10,o),
(589,49,c),
(570,75,l),
(553,63,o),
(535,57,o),
(520,57,cs),
(501,57,o),
(490,67,o),
(490,88,cs),
(490,415,ls),
(490,432,o),
(495,442,o),
(503,454,cs),
(515,472,l),
(504,485,l),
(436,490,o),
(366,510,o),
(304,510,cs),
(145,510,o),
(45,402,o),
(45,229,cs),
(45,67,o),
(130,-14,o),
(224,-14,cs),
(286,-14,o),
(343,11,o),
(401,92,c)
);
},
{
closed = 1;
nodes = (
(150,379,o),
(206,455,o),
(303,455,cs),
(336,455,o),
(370,445,o),
(401,424,c),
(401,154,l),
(364,91,o),
(315,63,o),
(264,63,cs),
(205,63,o),
(150,112,o),
(150,248,cs)
);
},
{
closed = 1;
nodes = (
(258,690,o),
(273,716,o),
(300,716,cs),
(329,716,o),
(344,690,o),
(344,658,cs),
(344,626,o),
(329,600,o),
(300,600,cs),
(273,600,o),
(258,626,o),
(258,658,cs)
);
},
{
closed = 1;
nodes = (
(188,598,o),
(226,552,o),
(300,552,cs),
(377,552,o),
(415,598,o),
(415,658,cs),
(415,718,o),
(377,765,o),
(300,765,cs),
(226,765,o),
(188,718,o),
(188,658,cs)
);
}
);
};
layerId = UUID0;
shapes = (
{
ref = a;
},
{
pos = (153,0);
ref = ringcomb;
}
);
width = 604;
}
);
unicode = 229;
},
{
glyphname = atilde;
kernLeft = a;
layers = (
{
background = {
hints = (
{
place = (45, 105);
place = (45, 105);
type = Stem;
},
{
place = (401, 89);
place = (401, 89);
type = Stem;
},
{
horizontal = 1;
place = (-14, 77);
place = (-14, 77);
type = Stem;
},
{
horizontal = 1;
place = (455, 55);
place = (455, 55);
type = Stem;
},
{
horizontal = 1;
place = (630, 54);
place = (630, 54);
type = Stem;
},
{
horizontal = 1;
place = (723, -20);
target = down;
type = TopGhost;
},
{
horizontal = 1;
place = (719, -20);
target = down;
type = TopGhost;
},
{
horizontal = 1;
place = (591, 21);
target = up;
type = BottomGhost;
}
);
shapes = (
{
closed = 1;
nodes = (
(401,17,o),
(423,-14,o),
(478,-14,cs),
(512,-14,o),
(554,10,o),
(589,49,c),
(570,75,l),
(553,63,o),
(535,57,o),
(520,57,cs),
(501,57,o),
(490,67,o),
(490,88,cs),
(490,415,ls),
(490,432,o),
(495,442,o),
(503,454,cs),
(515,472,l),
(504,485,l),
(436,490,o),
(366,510,o),
(304,510,cs),
(145,510,o),
(45,402,o),
(45,229,cs),
(45,67,o),
(130,-14,o),
(224,-14,cs),
(286,-14,o),
(343,11,o),
(401,92,c)
);
},
{
closed = 1;
nodes = (
(150,379,o),
(206,455,o),
(303,455,cs),
(336,455,o),
(370,445,o),
(401,424,c),
(401,154,l),
(364,91,o),
(315,63,o),
(264,63,cs),
(205,63,o),
(150,112,o),
(150,248,cs)
);
},
{
closed = 1;
nodes = (
(430,723,l),
(401,695,o),
(379,684,o),
(362,684,cs),
(330,684,o),
(311,719,o),
(268,719,cs),
(229,719,o),
(182,681,o),
(139,622,c),
(174,591,l),
(201,618,o),
(225,630,o),
(241,630,cs),
(273,630,o),
(291,595,o),
(336,595,cs),
(374,595,o),
(422,633,o),
(464,692,c)
);
}
);
};
layerId = UUID0;
shapes = (
{
ref = a;
},
{
pos = (108,0);
ref = tildecomb;
}
);
width = 604;
}
);
unicode = 227;
},
{
glyphname = ae;
kernLeft = a;
layers = (
{
anchors = (
{
name = bottom;
pos = (433,0);
},
{
name = top;
pos = (433,497);
}
);
background = {
shapes = (
{
closed = 1;
nodes = (
(138,510,o),
(59,448,o),
(59,428,cs),
(59,415,o),
(74,399,o),
(85,399,cs),
(99,399,o),
(123,444,o),
(233,444,cs),
(330,444,o),
(381,371,o),
(381,254,cs),
(381,116,o),
(326,40,o),
(235,40,cs),
(172,40,o),
(140,85,o),
(140,132,cs),
(140,191,o),
(182,250,o),
(267,250,cs),
(314,250,o),
(329,237,o),
(341,237,cs),
(349,237,o),
(356,248,o),
(356,259,cs),
(356,294,o),
(267,306,o),
(236,306,cs),
(111,306,o),
(45,217,o),
(45,133,cs),
(45,58,o),
(100,-14,o),
(215,-14,cs),
(308,-14,o),
(376,31,o),
(410,106,c),
(447,31,o),
(518,-14,o),
(611,-14,cs),
(690,-14,o),
(759,17,o),
(809,75,cs),
(811,77,o),
(813,80,o),
(813,84,cs),
(813,97,o),
(798,113,o),
(787,113,cs),
(782,113,o),
(780,111,o),
(778,109,cs),
(738,70,o),
(688,52,o),
(632,52,cs),
(535,52,o),
(484,125,o),
(484,242,cs),
(484,383,o),
(535,460,o),
(620,460,cs),
(683,460,o),
(715,413,o),
(715,364,cs),
(715,307,o),
(673,250,o),
(588,250,cs),
(547,250,o),
(534,263,o),
(524,263,cs),
(516,263,o),
(509,252,o),
(509,241,cs),
(509,206,o),
(591,194,o),
(619,194,cs),
(744,194,o),
(810,281,o),
(810,363,cs),
(810,438,o),
(755,510,o),
(640,510,cs),
(552,510,o),
(482,476,o),
(437,419,c),
(397,476,o),
(333,510,o),
(254,510,cs)
);
}
);
};
hints = (
{
place = (45, 95);
place = (45, 95);
type = Stem;
},
{
place = (381, 103);
place = (381, 103);
type = Stem;
},
{
place = (715, 95);
place = (715, 95);
type = Stem;
},
{
horizontal = 1;
place = (-14, 54);
place = (-14, 54);
type = Stem;
},
{
horizontal = 1;
place = (194, 56);
place = (194, 56);
type = Stem;
},
{
horizontal = 1;
place = (250, 56);
place = (250, 56);
type = Stem;
},
{
horizontal = 1;
place = (444, 66);
place = (444, 66);
type = Stem;
},
{
horizontal = 1;
place = (460, 50);
place = (460, 50);
type = Stem;
},
{
horizontal = 1;
place = (-14, 66);
place = (-14, 66);
type = Stem;
}
);
layerId = UUID0;
shapes = (
{
closed = 1;
nodes = (
(308,-14,o),
(376,31,o),
(410,106,c),
(447,31,o),
(518,-14,o),
(611,-14,cs),
(690,-14,o),
(759,17,o),
(809,75,cs),
(811,77,o),
(813,80,o),
(813,84,cs),
(813,97,o),
(798,113,o),
(787,113,cs),
(782,113,o),
(780,111,o),
(778,109,cs),
(738,70,o),
(688,52,o),
(632,52,cs),
(535,52,o),
(484,125,o),
(484,242,cs),
(484,383,o),
(535,460,o),
(620,460,cs),
(683,460,o),
(715,413,o),
(715,364,cs),
(715,307,o),
(673,250,o),
(588,250,cs),
(547,250,o),
(534,263,o),
(524,263,cs),
(516,263,o),
(509,252,o),
(509,241,cs),
(509,206,o),
(591,194,o),
(619,194,cs),
(744,194,o),
(810,281,o),
(810,363,cs),
(810,438,o),
(755,510,o),
(640,510,cs),
(552,510,o),
(482,476,o),
(437,419,c),
(397,476,o),
(333,510,o),
(254,510,cs),
(138,510,o),
(59,448,o),
(59,428,cs),
(59,415,o),
(74,399,o),
(85,399,cs),
(99,399,o),
(123,444,o),
(233,444,cs),
(330,444,o),
(381,371,o),
(381,254,cs),
(381,116,o),
(326,40,o),
(235,40,cs),
(172,40,o),
(140,85,o),
(140,132,cs),
(140,191,o),
(182,250,o),
(267,250,cs),
(314,250,o),
(329,237,o),
(341,237,cs),
(349,237,o),
(356,248,o),
(356,259,cs),
(356,294,o),
(267,306,o),
(236,306,cs),
(111,306,o),
(45,217,o),
(45,133,cs),
(45,58,o),
(100,-14,o),
(215,-14,cs)
);
}
);
width = 865;
}
);
unicode = 230;
},
{
glyphname = b;
kernLeft = h;
layers = (
{
anchors = (
{
name = bottom;
pos = (295,0);
},
{
name = center;
pos = (295,249);
},
{
name = top;
pos = (295,497);
}
);
background = {
shapes = (
{
closed = 1;
nodes = (
(383,454,o),
(439,370,o),
(439,248,cs),
(439,122,o),
(383,42,o),
(294,42,cs),
(251,42,o),
(220,52,o),
(189,74,c),
(189,750,ls),
(189,769,o),
(176,782,o),
(157,782,cs),
(119,782,o),
(64,757,o),
(25,722,c),
(34,696,l),
(78,696,ls),
(92,696,o),
(98,690,o),
(98,674,cs),
(98,49,l),
(137,10,o),
(208,-14,o),
(285,-14,cs),
(434,-14,o),
(545,106,o),
(545,268,cs),
(545,410,o),
(457,510,o),
(332,510,cs),
(298,510,o),
(264,502,o),
(231,481,cs),
(225,477,o),
(222,470,o),
(222,463,cs),
(222,452,o),
(229,441,o),
(237,441,cs),
(247,441,o),
(260,454,o),
(301,454,cs)
);
}
);
};
hints = (
{
place = (98, 91);
place = (98, 91);
type = Stem;
},
{
place = (439, 106);
place = (439, 106);
type = Stem;
},
{
horizontal = 1;
place = (-14, 56);
place = (-14, 56);
type = Stem;
},
{
horizontal = 1;
place = (441, 69);
place = (441, 69);
type = Stem;
},
{
horizontal = 1;
place = (454, 56);
place = (454, 56);
type = Stem;
},
{
horizontal = 1;
place = (782, -20);
target = down;
type = TopGhost;
}
);
layerId = UUID0;
shapes = (
{
closed = 1;
nodes = (
(434,-14,o),
(545,106,o),
(545,268,cs),
(545,410,o),
(457,510,o),
(332,510,cs),
(298,510,o),
(264,502,o),
(231,481,cs),
(225,477,o),
(222,470,o),
(222,463,cs),
(222,452,o),
(229,441,o),
(237,441,cs),
(247,441,o),
(260,454,o),
(301,454,cs),
(383,454,o),
(439,370,o),
(439,248,cs),
(439,122,o),
(383,42,o),
(294,42,cs),
(251,42,o),
(220,52,o),
(189,74,c),
(189,750,ls),
(189,769,o),
(176,782,o),
(157,782,cs),
(119,782,o),
(64,757,o),
(25,722,c),
(34,696,l),
(78,696,ls),
(92,696,o),
(98,690,o),
(98,674,cs),
(98,49,l),
(137,10,o),
(208,-14,o),
(285,-14,cs)
);
}
);
width = 590;
}
);
unicode = 98;
},
{
glyphname = c;
kernLeft = c;
layers = (
{
anchors = (
{
name = bottom;
pos = (246,0);
},
{
name = top;
pos = (285,497);
}
);
background = {
shapes = (
{
closed = 1;
nodes = (
(394,69,o),
(352,53,o),
(303,53,cs),
(208,53,o),
(149,131,o),
(149,255,cs),
(149,376,o),
(200,458,o),
(276,458,cs),
(333,458,o),
(370,424,o),
(370,371,cs),
(370,315,o),
(346,298,o),
(346,289,cs),
(346,281,o),
(352,278,o),
(365,278,cs),
(422,278,o),
(463,318,o),
(463,376,cs),
(463,455,o),
(390,510,o),
(287,510,cs),
(140,510,o),
(45,407,o),
(45,247,cs),
(45,96,o),
(146,-14,o),
(286,-14,cs),
(355,-14,o),
(419,15,o),
(466,69,cs),
(468,71,o),
(469,74,o),
(469,78,cs),
(469,91,o),
(455,106,o),
(444,106,cs),
(439,106,o),
(436,104,o),
(435,103,cs)
);
}
);
};
hints = (
{
place = (45, 104);
place = (45, 104);
type = Stem;
},
{
place = (370, 93);
place = (370, 93);
type = Stem;
},
{
horizontal = 1;
place = (-14, 67);
place = (-14, 67);
type = Stem;
},
{
horizontal = 1;
place = (458, 52);
place = (458, 52);
type = Stem;
}
);
layerId = UUID0;
shapes = (
{
closed = 1;
nodes = (
(355,-14,o),
(419,15,o),
(466,69,cs),
(468,71,o),
(469,74,o),
(469,78,cs),
(469,91,o),
(455,106,o),
(444,106,cs),
(439,106,o),
(436,104,o),
(435,103,cs),
(394,69,o),
(352,53,o),
(303,53,cs),
(208,53,o),
(149,131,o),
(149,255,cs),
(149,376,o),
(200,458,o),
(276,458,cs),
(333,458,o),
(370,424,o),
(370,371,cs),
(370,315,o),
(346,298,o),
(346,289,cs),
(346,281,o),
(352,278,o),
(365,278,cs),
(422,278,o),
(463,318,o),
(463,376,cs),
(463,455,o),
(390,510,o),
(287,510,cs),
(140,510,o),
(45,407,o),
(45,247,cs),
(45,96,o),
(146,-14,o),
(286,-14,cs)
);
}
);
width = 509;
}
);
unicode = 99;
},
{
glyphname = ccedilla;
kernLeft = c;
layers = (
{
background = {
hints = (
{
place = (45, 104);
place = (45, 104);
type = Stem;
},
{
place = (370, 93);
place = (370, 93);
type = Stem;
},
{
horizontal = 1;
place = (-14, 67);
place = (-14, 67);
type = Stem;
},
{
horizontal = 1;
place = (458, 52);
place = (458, 52);
type = Stem;
},
{
place = (123, 67);
place = (123, 67);
type = Stem;
},
{
place = (294, 74);
place = (294, 74);
type = Stem;
},
{
horizontal = 1;
place = (-295, 42);
place = (-295, 42);
type = Stem;
},
{
horizontal = 1;
place = (-103, 37);
place = (-103, 37);
type = Stem;
},
{
horizontal = 1;
place = (51, -20);
target = down;
type = TopGhost;
}
);
shapes = (
{
closed = 1;
nodes = (
(394,69,o),
(352,53,o),
(303,53,cs),
(208,53,o),
(149,131,o),
(149,255,cs),
(149,376,o),
(200,458,o),
(276,458,cs),
(333,458,o),
(370,424,o),
(370,371,cs),
(370,315,o),
(346,298,o),
(346,289,cs),
(346,281,o),
(352,278,o),
(365,278,cs),
(422,278,o),
(463,318,o),
(463,376,cs),
(463,455,o),
(390,510,o),
(287,510,cs),
(140,510,o),
(45,407,o),
(45,247,cs),
(45,96,o),
(146,-14,o),
(286,-14,cs),
(355,-14,o),
(419,15,o),
(466,69,cs),
(468,71,o),
(469,74,o),
(469,78,cs),
(469,91,o),
(455,106,o),
(444,106,cs),
(439,106,o),
(436,104,o),
(435,103,cs)
);
},
{
closed = 1;
nodes = (
(210,-253,o),
(190,-238,o),
(190,-214,cs),
(190,-184,o),
(204,-179,o),
(204,-170,cs),
(204,-164,o),
(197,-160,o),
(187,-160,cs),
(152,-160,o),
(123,-182,o),
(123,-218,cs),
(123,-269,o),
(177,-295,o),
(232,-295,cs),
(310,-295,o),
(368,-242,o),
(368,-179,cs),
(368,-102,o),
(314,-66,o),
(255,-66,cs),
(242,-66,o),
(230,-67,o),
(217,-70,c),
(294,29,l),
(270,51,l),
(152,-102,l),
(172,-120,l),
(192,-108,o),
(211,-103,o),
(227,-103,cs),
(272,-103,o),
(294,-140,o),
(294,-177,cs),
(294,-215,o),
(272,-253,o),
(231,-253,cs)
);
}
);
};
layerId = UUID0;
shapes = (
{
ref = c;
},
{
pos = (68,0);
ref = cedillacomb;
}
);
width = 509;
}
);
unicode = 231;
},
{
glyphname = d;
kernLeft = c;
layers = (
{
anchors = (
{
name = bottom;
pos = (302,0);
},
{
name = center;
pos = (302,249);
},
{
name = top;
pos = (302,782);
},
{
name = topright;
pos = (564,782);
}
);
background = {
shapes = (
{
closed = 1;
nodes = (
(150,379,o),
(206,455,o),
(303,455,cs),
(336,455,o),
(370,445,o),
(401,424,c),
(401,154,l),
(364,91,o),
(315,63,o),
(264,63,cs),
(205,63,o),
(150,112,o),
(150,248,cs)
);
},
{
closed = 1;
nodes = (
(490,750,ls),
(490,769,o),
(477,782,o),
(458,782,cs),
(420,782,o),
(365,757,o),
(326,722,c),
(335,696,l),
(379,696,ls),
(393,696,o),
(399,690,o),
(399,674,cs),
(399,497,l),
(369,506,o),
(338,510,o),
(304,510,cs),
(145,510,o),
(45,402,o),
(45,229,cs),
(45,67,o),
(130,-14,o),
(224,-14,cs),
(286,-14,o),
(343,11,o),
(401,92,c),
(401,17,o),
(423,-14,o),
(478,-14,cs),
(512,-14,o),
(554,10,o),
(589,49,c),
(570,75,l),
(553,63,o),
(535,57,o),
(520,57,cs),
(501,57,o),
(490,67,o),
(490,88,cs)
);
}
);
};
hints = (
{
place = (45, 105);
place = (45, 105);
type = Stem;
},
{
place = (401, 89);
place = (401, 89);
type = Stem;
},
{
horizontal = 1;
place = (-14, 77);
place = (-14, 77);
type = Stem;
},
{
horizontal = 1;
place = (455, 55);
place = (455, 55);
type = Stem;
},
{
horizontal = 1;
place = (782, -20);
target = down;
type = TopGhost;
}
);
layerId = UUID0;
shapes = (
{
closed = 1;
nodes = (
(286,-14,o),
(343,11,o),
(401,92,c),
(401,17,o),
(423,-14,o),
(478,-14,cs),
(512,-14,o),
(554,10,o),
(589,49,c),
(570,75,l),
(553,63,o),
(535,57,o),
(520,57,cs),
(501,57,o),
(490,67,o),
(490,88,cs),
(490,750,ls),
(490,769,o),
(477,782,o),
(458,782,cs),
(420,782,o),
(365,757,o),
(326,722,c),
(335,696,l),
(379,696,ls),
(393,696,o),
(399,690,o),
(399,674,cs),
(399,497,l),
(369,506,o),
(338,510,o),
(304,510,cs),
(145,510,o),
(45,402,o),
(45,229,cs),
(45,67,o),
(130,-14,o),
(224,-14,cs)
);
},
{
closed = 1;
nodes = (
(205,63,o),
(150,112,o),
(150,248,cs),
(150,379,o),
(206,455,o),
(303,455,cs),
(336,455,o),
(370,445,o),
(401,424,c),
(401,154,l),
(364,91,o),
(315,63,o),
(264,63,cs)
);
}
);
width = 604;
}
);
unicode = 100;
},
{
glyphname = eth;
kernLeft = c;
layers = (
{
background = {
shapes = (
{
closed = 1;
nodes = (
(126,790,o),
(74,727,o),
(74,665,cs),
(74,611,o),
(113,559,o),
(186,559,cs),
(198,559,o),
(202,564,o),
(202,569,cs),
(202,580,o),
(159,599,o),
(159,664,cs),
(159,708,o),
(187,745,o),
(236,745,cs),
(327,745,o),
(399,607,o),
(431,430,c),
(393,472,o),
(344,490,o),
(292,490,cs),
(139,490,o),
(43,393,o),
(43,238,cs),
(43,84,o),
(139,-14,o),
(292,-14,cs),
(444,-14,o),
(541,84,o),
(541,238,cs),
(541,411,o),
(473,790,o),
(237,790,cs)
);
},
{
closed = 1;
nodes = (
(147,361,o),
(202,438,o),
(289,438,cs),
(383,438,o),
(448,352,o),
(448,229,cs),
(448,113,o),
(392,40,o),
(304,40,cs),
(213,40,o),
(147,119,o),
(147,238,cs)
);
},
{
pos = (266,324);
ref = eslash;
scale = (0.9,0.9);
}
);
};
hints = (
{
place = (43, 104);
place = (43, 104);
type = Stem;
},
{
place = (74, 85);
place = (74, 85);
type = Stem;
},
{
place = (448, 93);
place = (448, 93);
type = Stem;
},
{
horizontal = 1;
place = (-14, 54);
place = (-14, 54);
type = Stem;
},
{
horizontal = 1;
place = (438, 52);
place = (438, 52);
type = Stem;
},
{
horizontal = 1;
place = (745, 45);
place = (745, 45);
type = Stem;
}
);
layerId = UUID0;
shapes = (
{
closed = 1;
nodes = (
(444,-14,o),
(541,84,o),
(541,238,cs),
(541,411,o),
(473,790,o),
(237,790,cs),
(126,790,o),
(74,727,o),
(74,665,cs),
(74,611,o),
(113,559,o),
(186,559,cs),
(198,559,o),
(202,564,o),
(202,569,cs),
(202,580,o),
(159,599,o),
(159,664,cs),
(159,708,o),
(187,745,o),
(236,745,cs),
(327,745,o),
(399,607,o),
(431,430,c),
(393,472,o),
(344,490,o),
(292,490,cs),
(139,490,o),
(43,393,o),
(43,238,cs),
(43,84,o),
(139,-14,o),
(292,-14,cs)
);
},
{
closed = 1;
nodes = (
(213,40,o),
(147,119,o),
(147,238,cs),
(147,361,o),
(202,438,o),
(289,438,cs),
(383,438,o),
(448,352,o),
(448,229,cs),
(448,113,o),
(392,40,o),
(304,40,cs)
);
},
{
pos = (266,324);
ref = eslash;
scale = (0.9,0.9);
}
);
width = 584;
}
);
unicode = 240;
},
{
color = 9;
glyphname = dcroat;
layers = (
{
layerId = UUID0;
shapes = (
{
ref = d;
},
{
closed = 1;
nodes = (
(535,582,l),
(551,595,o),
(555,619,o),
(555,638,c),
(271,638,l),
(255,626,o),
(251,600,o),
(251,582,c)
);
}
);
width = 604;
}
);
unicode = 273;
},
{
glyphname = e;
kernLeft = c;
layers = (
{
anchors = (
{
name = bottom;
pos = (265,0);
},
{
name = ogonek;
pos = (386,10);
},
{
name = top;
pos = (265,497);
}
);
background = {
shapes = (
{
closed = 1;
nodes = (
(475,77,o),
(477,80,o),
(477,84,cs),
(477,97,o),
(462,113,o),
(451,113,cs),
(446,113,o),
(444,111,o),
(442,109,cs),
(402,70,o),
(352,52,o),
(296,52,cs),
(199,52,o),
(148,125,o),
(148,242,cs),
(148,383,o),
(199,460,o),
(284,460,cs),
(347,460,o),
(379,413,o),
(379,364,cs),
(379,307,o),
(337,250,o),
(252,250,cs),
(211,250,o),
(198,263,o),
(188,263,cs),
(180,263,o),
(173,252,o),
(173,241,cs),
(173,206,o),
(255,194,o),
(283,194,cs),
(408,194,o),
(474,281,o),
(474,363,cs),
(474,438,o),
(419,510,o),
(304,510,cs),
(147,510,o),
(45,403,o),
(45,242,cs),
(45,88,o),
(135,-14,o),
(275,-14,cs),
(354,-14,o),
(423,17,o),
(473,75,cs)
);
}
);
};
hints = (
{
place = (45, 103);
place = (45, 103);
type = Stem;
},
{
place = (379, 95);
place = (379, 95);
type = Stem;
},
{
horizontal = 1;
place = (-14, 66);
place = (-14, 66);
type = Stem;
},
{
horizontal = 1;
place = (194, 56);
place = (194, 56);
type = Stem;
},
{
horizontal = 1;
place = (460, 50);
place = (460, 50);
type = Stem;
}
);
layerId = UUID0;
shapes = (
{
closed = 1;
nodes = (
(354,-14,o),
(423,17,o),
(473,75,cs),
(475,77,o),
(477,80,o),
(477,84,cs),
(477,97,o),
(462,113,o),
(451,113,cs),
(446,113,o),
(444,111,o),
(442,109,cs),
(402,70,o),
(352,52,o),
(296,52,cs),
(199,52,o),
(148,125,o),
(148,242,cs),
(148,383,o),
(199,460,o),
(284,460,cs),
(347,460,o),
(379,413,o),
(379,364,cs),
(379,307,o),
(337,250,o),
(252,250,cs),
(211,250,o),
(198,263,o),
(188,263,cs),
(180,263,o),
(173,252,o),
(173,241,cs),
(173,206,o),
(255,194,o),
(283,194,cs),
(408,194,o),
(474,281,o),
(474,363,cs),
(474,438,o),
(419,510,o),
(304,510,cs),
(147,510,o),
(45,403,o),
(45,242,cs),
(45,88,o),
(135,-14,o),
(275,-14,cs)
);
}
);
width = 529;
}
);
unicode = 101;
},
{
glyphname = eacute;
kernLeft = c;
layers = (
{
background = {
hints = (
{
place = (45, 103);
place = (45, 103);
type = Stem;
},
{
place = (379, 95);
place = (379, 95);
type = Stem;
},
{
horizontal = 1;
place = (-14, 66);
place = (-14, 66);
type = Stem;
},
{
horizontal = 1;
place = (194, 56);
place = (194, 56);
type = Stem;
},
{
horizontal = 1;
place = (460, 50);
place = (460, 50);
type = Stem;
},
{
horizontal = 1;
place = (569, 21);
target = up;
type = BottomGhost;
},
{
horizontal = 1;
place = (760, -20);
target = down;
type = TopGhost;
}
);
shapes = (
{
closed = 1;
nodes = (
(475,77,o),
(477,80,o),
(477,84,cs),
(477,97,o),
(462,113,o),
(451,113,cs),
(446,113,o),
(444,111,o),
(442,109,cs),
(402,70,o),
(352,52,o),
(296,52,cs),
(199,52,o),
(148,125,o),
(148,242,cs),
(148,383,o),
(199,460,o),
(284,460,cs),
(347,460,o),
(379,413,o),
(379,364,cs),
(379,307,o),
(337,250,o),
(252,250,cs),
(211,250,o),
(198,263,o),
(188,263,cs),
(180,263,o),
(173,252,o),
(173,241,cs),
(173,206,o),
(255,194,o),
(283,194,cs),
(408,194,o),
(474,281,o),
(474,363,cs),
(474,438,o),
(419,510,o),
(304,510,cs),
(147,510,o),
(45,403,o),
(45,242,cs),
(45,88,o),
(135,-14,o),
(275,-14,cs),
(354,-14,o),
(423,17,o),
(473,75,cs)
);
},
{
closed = 1;
nodes = (
(165,604,l),
(194,569,l),
(307,625,ls),
(348,645,o),
(363,668,o),
(363,697,cs),
(363,726,o),
(346,748,o),
(321,760,c)
);
}
);
};
layerId = UUID0;
shapes = (
{
ref = e;
},
{
pos = (103,0);
ref = acutecomb;
}
);
width = 529;
}
);
unicode = 233;
},
{
glyphname = ecircumflex;
kernLeft = c;
layers = (
{
background = {
hints = (
{
place = (45, 103);
place = (45, 103);
type = Stem;
},
{
place = (379, 95);
place = (379, 95);
type = Stem;
},
{
horizontal = 1;
place = (-14, 66);
place = (-14, 66);
type = Stem;
},
{
horizontal = 1;
place = (194, 56);
place = (194, 56);
type = Stem;
},
{
horizontal = 1;
place = (460, 50);
place = (460, 50);
type = Stem;
},
{
horizontal = 1;
place = (755, -20);
target = down;
type = TopGhost;
},
{
horizontal = 1;
place = (569, 21);
target = up;
type = BottomGhost;
}
);
shapes = (
{
closed = 1;
nodes = (
(475,77,o),
(477,80,o),
(477,84,cs),
(477,97,o),
(462,113,o),
(451,113,cs),
(446,113,o),
(444,111,o),
(442,109,cs),
(402,70,o),
(352,52,o),
(296,52,cs),
(199,52,o),
(148,125,o),
(148,242,cs),
(148,383,o),
(199,460,o),
(284,460,cs),
(347,460,o),
(379,413,o),
(379,364,cs),
(379,307,o),
(337,250,o),
(252,250,cs),
(211,250,o),
(198,263,o),
(188,263,cs),
(180,263,o),
(173,252,o),
(173,241,cs),
(173,206,o),
(255,194,o),
(283,194,cs),
(408,194,o),
(474,281,o),
(474,363,cs),
(474,438,o),
(419,510,o),
(304,510,cs),
(147,510,o),
(45,403,o),
(45,242,cs),
(45,88,o),
(135,-14,o),
(275,-14,cs),
(354,-14,o),
(423,17,o),
(473,75,cs)
);
},
{
closed = 1;
nodes = (
(251,755,l),
(225,740,o),
(171,673,o),
(127,597,c),
(160,569,l),
(264,652,l),
(369,569,l),
(401,597,l),
(357,675,o),
(300,742,o),
(278,755,c)
);
}
);
};
layerId = UUID0;
shapes = (
{
ref = e;
},
{
pos = (78,0);
ref = circumflexcomb;
}
);
width = 529;
}
);
unicode = 234;
},
{
glyphname = edieresis;
kernLeft = c;
layers = (
{
background = {
hints = (
{
place = (45, 103);
place = (45, 103);
type = Stem;
},
{
place = (379, 95);
place = (379, 95);
type = Stem;
},
{
horizontal = 1;
place = (-14, 66);
place = (-14, 66);
type = Stem;
},
{
horizontal = 1;
place = (194, 56);
place = (194, 56);
type = Stem;
},
{
horizontal = 1;
place = (460, 50);
place = (460, 50);
type = Stem;
},
{
horizontal = 1;
place = (593, 21);
target = up;
type = BottomGhost;
},
{
horizontal = 1;
place = (724, -20);
target = down;
type = TopGhost;
}
);
shapes = (
{
closed = 1;
nodes = (
(475,77,o),
(477,80,o),
(477,84,cs),
(477,97,o),
(462,113,o),
(451,113,cs),
(446,113,o),
(444,111,o),
(442,109,cs),
(402,70,o),
(352,52,o),
(296,52,cs),
(199,52,o),
(148,125,o),
(148,242,cs),
(148,383,o),
(199,460,o),
(284,460,cs),
(347,460,o),
(379,413,o),
(379,364,cs),
(379,307,o),
(337,250,o),
(252,250,cs),
(211,250,o),
(198,263,o),
(188,263,cs),
(180,263,o),
(173,252,o),
(173,241,cs),
(173,206,o),
(255,194,o),
(283,194,cs),
(408,194,o),
(474,281,o),
(474,363,cs),
(474,438,o),
(419,510,o),
(304,510,cs),
(147,510,o),
(45,403,o),
(45,242,cs),
(45,88,o),
(135,-14,o),
(275,-14,cs),
(354,-14,o),
(423,17,o),
(473,75,cs)
);
},
{
closed = 1;
nodes = (
(108,632,o),
(146,593,o),
(169,593,cs),
(194,593,o),
(232,632,o),
(232,658,cs),
(232,684,o),
(194,724,o),
(169,724,cs),
(145,724,o),
(108,684,o),
(108,658,cs)
);
},
{
closed = 1;
nodes = (
(297,632,o),
(335,593,o),
(358,593,cs),
(383,593,o),
(421,632,o),
(421,658,cs),
(421,684,o),
(383,724,o),
(358,724,cs),
(334,724,o),
(297,684,o),
(297,658,cs)
);
}
);
};
layerId = UUID0;
shapes = (
{
ref = e;
},
{
pos = (54,0);
ref = dieresiscomb;
}
);
width = 529;
}
);
unicode = 235;
},
{
glyphname = egrave;
kernLeft = c;
layers = (
{
background = {
hints = (
{
place = (45, 103);
place = (45, 103);
type = Stem;
},
{
place = (379, 95);
place = (379, 95);
type = Stem;
},
{
horizontal = 1;
place = (-14, 66);
place = (-14, 66);
type = Stem;
},
{
horizontal = 1;
place = (194, 56);
place = (194, 56);
type = Stem;
},
{
horizontal = 1;
place = (460, 50);
place = (460, 50);
type = Stem;
},
{
horizontal = 1;
place = (760, -20);
target = down;
type = TopGhost;
},
{
horizontal = 1;
place = (569, 21);
target = up;
type = BottomGhost;
}
);
shapes = (
{
closed = 1;
nodes = (
(475,77,o),
(477,80,o),
(477,84,cs),
(477,97,o),
(462,113,o),
(451,113,cs),
(446,113,o),
(444,111,o),
(442,109,cs),
(402,70,o),
(352,52,o),
(296,52,cs),
(199,52,o),
(148,125,o),
(148,242,cs),
(148,383,o),
(199,460,o),
(284,460,cs),
(347,460,o),
(379,413,o),
(379,364,cs),
(379,307,o),
(337,250,o),
(252,250,cs),
(211,250,o),
(198,263,o),
(188,263,cs),
(180,263,o),
(173,252,o),
(173,241,cs),
(173,206,o),
(255,194,o),
(283,194,cs),
(408,194,o),
(474,281,o),
(474,363,cs),
(474,438,o),
(419,510,o),
(304,510,cs),
(147,510,o),
(45,403,o),
(45,242,cs),
(45,88,o),
(135,-14,o),
(275,-14,cs),
(354,-14,o),
(423,17,o),
(473,75,cs)
);
},
{
closed = 1;
nodes = (
(207,760,l),
(182,748,o),
(165,726,o),
(165,697,cs),
(165,668,o),
(180,645,o),
(221,625,cs),
(334,569,l),
(363,604,l)
);
}
);
};
layerId = UUID0;
shapes = (
{
ref = e;
},
{
pos = (112,0);
ref = gravecomb;
}
);
width = 529;
}
);
unicode = 232;
},
{
glyphname = f;
kernRight = f;
layers = (
{
anchors = (
{
name = bottom;
pos = (167,0);
},
{
name = top;
pos = (167,782);
}
);
background = {
shapes = (
{
closed = 1;
nodes = (
(45,481,ls),
(24,476,o),
(21,470,o),
(21,434,c),
(109,434,l),
(109,-90,ls),
(109,-163,o),
(76,-195,o),
(39,-195,cs),
(8,-195,o),
(-16,-171,o),
(-16,-129,cs),
(-16,-82,o),
(12,-66,o),
(12,-57,cs),
(12,-49,o),
(6,-46,o),
(-7,-46,cs),
(-64,-46,o),
(-105,-85,o),
(-105,-136,cs),
(-105,-200,o),
(-51,-238,o),
(19,-238,cs),
(142,-238,o),
(199,-147,o),
(199,-13,cs),
(199,434,l),
(316,434,l),
(330,445,o),
(339,468,o),
(339,497,c),
(199,497,l),
(199,573,ls),
(199,670,o),
(223,737,o),
(284,737,cs),
(325,737,o),
(351,709,o),
(351,666,cs),
(351,610,o),
(327,593,o),
(327,584,cs),
(327,576,o),
(333,573,o),
(346,573,cs),
(403,573,o),
(444,613,o),
(444,671,cs),
(444,736,o),
(382,782,o),
(295,782,cs),
(170,782,o),
(109,670,o),
(109,497,c)
);
}
);
};
hints = (
{
place = (-105, 89);
place = (-105, 89);
type = Stem;
},
{
place = (109, 90);
place = (109, 90);
type = Stem;
},
{
place = (351, 93);
place = (351, 93);
type = Stem;
},
{
horizontal = 1;
place = (-238, 43);
place = (-238, 43);
type = Stem;
},
{
horizontal = 1;
place = (434, 63);
place = (434, 63);
type = Stem;
},
{
horizontal = 1;
place = (737, 45);
place = (737, 45);
type = Stem;
}
);
layerId = UUID0;
shapes = (
{
closed = 1;
nodes = (
(142,-238,o),
(199,-147,o),
(199,-13,cs),
(199,434,l),
(316,434,l),
(330,445,o),
(339,468,o),
(339,497,c),
(199,497,l),
(199,573,ls),
(199,670,o),
(223,737,o),
(284,737,cs),
(325,737,o),
(351,709,o),
(351,666,cs),
(351,610,o),
(327,593,o),
(327,584,cs),
(327,576,o),
(333,573,o),
(346,573,cs),
(403,573,o),
(444,613,o),
(444,671,cs),
(444,736,o),
(382,782,o),
(295,782,cs),
(170,782,o),
(109,670,o),
(109,497,c),
(45,481,ls),
(24,476,o),
(21,470,o),
(21,434,c),
(109,434,l),
(109,-90,ls),
(109,-163,o),
(76,-195,o),
(39,-195,cs),
(8,-195,o),
(-16,-171,o),
(-16,-129,cs),
(-16,-82,o),
(12,-66,o),
(12,-57,cs),
(12,-49,o),
(6,-46,o),
(-7,-46,cs),
(-64,-46,o),
(-105,-85,o),
(-105,-136,cs),
(-105,-200,o),
(-51,-238,o),
(19,-238,cs)
);
}
);
width = 334;
}
);
unicode = 102;
},
{
glyphname = g;
kernLeft = c;
layers = (
{
anchors = (
{
name = bottom;
pos = (301,-266);
},
{
name = top;
pos = (311,497);
}
);
background = {
shapes = (
{
closed = 1;
nodes = (
(165,379,o),
(221,455,o),
(318,455,cs),
(351,455,o),
(385,445,o),
(416,424,c),
(416,183,l),
(379,120,o),
(330,92,o),
(279,92,cs),
(220,92,o),
(165,133,o),
(165,248,cs)
);
},
{
closed = 1;
nodes = (
(241,-226,o),
(209,-184,o),
(209,-133,cs),
(209,-60,o),
(258,-38,o),
(258,-25,cs),
(258,-20,o),
(253,-14,o),
(239,-14,cs),
(156,-14,o),
(112,-73,o),
(112,-135,cs),
(112,-205,o),
(167,-278,o),
(283,-278,cs),
(418,-278,o),
(505,-188,o),
(505,-22,cs),
(505,415,ls),
(505,432,o),
(510,442,o),
(518,454,cs),
(530,472,l),
(519,485,l),
(451,490,o),
(381,510,o),
(319,510,cs),
(160,510,o),
(60,402,o),
(60,229,cs),
(60,86,o),
(145,15,o),
(239,15,cs),
(301,15,o),
(358,40,o),
(416,121,c),
(416,-38,ls),
(416,-146,o),
(382,-226,o),
(296,-226,cs)
);
}
);
};
hints = (
{
place = (60, 105);
place = (60, 105);
type = Stem;
},
{
place = (112, 53);
place = (112, 53);
type = Stem;
},
{
place = (416, 89);
place = (416, 89);
type = Stem;
},
{
place = (112, 97);
place = (112, 97);
type = Stem;
},
{
horizontal = 1;
place = (-278, 52);
place = (-278, 52);
type = Stem;
},
{
horizontal = 1;
place = (15, 77);
place = (15, 77);
type = Stem;
},
{
horizontal = 1;
place = (455, 55);
place = (455, 55);
type = Stem;
},
{
horizontal = 1;
place = (-14, 21);
target = up;
type = BottomGhost;
}
);
layerId = UUID0;
shapes = (
{
closed = 1;
nodes = (
(418,-278,o),
(505,-188,o),
(505,-22,cs),
(505,415,ls),
(505,432,o),
(510,442,o),
(518,454,cs),
(530,472,l),
(519,485,l),
(451,490,o),
(381,510,o),
(319,510,cs),
(160,510,o),
(60,402,o),
(60,229,cs),
(60,86,o),
(145,15,o),
(239,15,cs),
(301,15,o),
(358,40,o),
(416,121,c),
(416,-38,ls),
(416,-146,o),
(382,-226,o),
(296,-226,cs),
(241,-226,o),
(209,-184,o),
(209,-133,cs),
(209,-60,o),
(258,-38,o),
(258,-25,cs),
(258,-20,o),
(253,-14,o),
(239,-14,cs),
(156,-14,o),
(112,-73,o),
(112,-135,cs),
(112,-205,o),
(167,-278,o),
(283,-278,cs)
);
},
{
closed = 1;
nodes = (
(220,92,o),
(165,133,o),
(165,248,cs),
(165,379,o),
(221,455,o),
(318,455,cs),
(351,455,o),
(385,445,o),
(416,424,c),
(416,183,l),
(379,120,o),
(330,92,o),
(279,92,cs)
);
}
);
width = 602;
}
);
unicode = 103;
},
{
glyphname = h;
kernLeft = h;
layers = (
{
anchors = (
{
name = bottom;
pos = (320,0);
},
{
name = center;
pos = (320,391);
},
{
name = top;
pos = (320,782);
}
);
background = {
shapes = (
{
closed = 1;
nodes = (
(108,111,ls),
(108,61,o),
(100,44,o),
(66,36,cs),
(45,31,l),
(56,0,l),
(231,0,l),
(243,15,l),
(231,31,ls),
(207,65,o),
(199,97,o),
(199,160,cs),
(199,322,o),
(258,432,o),
(344,432,cs),
(408,432,o),
(430,396,o),
(430,328,cs),
(430,90,ls),
(430,15,o),
(452,-16,o),
(507,-16,cs),
(541,-16,o),
(584,8,o),
(619,47,c),
(600,73,l),
(583,59,o),
(565,52,o),
(550,52,cs),
(530,52,o),
(520,64,o),
(520,86,cs),
(520,328,ls),
(520,453,o),
(486,510,o),
(386,510,cs),
(310,510,o),
(233,448,o),
(199,361,c),
(199,750,ls),
(199,769,o),
(186,782,o),
(167,782,cs),
(129,782,o),
(74,757,o),
(35,722,c),
(44,696,l),
(88,696,ls),
(102,696,o),
(108,690,o),
(108,674,cs)
);
}
);
};
hints = (
{
place = (108, 91);
place = (108, 91);
type = Stem;
},
{
place = (430, 90);
place = (430, 90);
type = Stem;
},
{
horizontal = 1;
place = (-16, 68);
place = (-16, 68);
type = Stem;
},
{
horizontal = 1;
place = (432, 78);
place = (432, 78);
type = Stem;
},
{
horizontal = 1;
place = (0, 21);
target = up;
type = BottomGhost;
},
{
horizontal = 1;
place = (782, -20);
target = down;
type = TopGhost;
}
);
layerId = UUID0;
shapes = (
{
closed = 1;
nodes = (
(541,-16,o),
(584,8,o),
(619,47,c),
(600,73,l),
(583,59,o),
(565,52,o),
(550,52,cs),
(530,52,o),
(520,64,o),
(520,86,cs),
(520,328,ls),
(520,453,o),
(486,510,o),
(386,510,cs),
(310,510,o),
(233,448,o),
(199,361,c),
(199,750,ls),
(199,769,o),
(186,782,o),
(167,782,cs),
(129,782,o),
(74,757,o),
(35,722,c),
(44,696,l),
(88,696,ls),
(102,696,o),
(108,690,o),
(108,674,cs),
(108,111,ls),
(108,61,o),
(100,44,o),
(66,36,cs),
(45,31,l),
(56,0,l),
(231,0,l),
(243,15,l),
(231,31,ls),
(207,65,o),
(199,97,o),
(199,160,cs),
(199,322,o),
(258,432,o),
(344,432,cs),
(408,432,o),
(430,396,o),
(430,328,cs),
(430,90,ls),
(430,15,o),
(452,-16,o),
(507,-16,cs)
);
}
);
width = 639;
}
);
unicode = 104;
},
{
color = 9;
glyphname = hbar;
kernLeft = h;
layers = (
{
layerId = UUID0;
shapes = (
{
closed = 1;
nodes = (
(307,564,l),
(323,577,o),
(327,601,o),
(327,620,c),
(43,620,l),
(27,608,o),
(23,582,o),
(23,564,c)
);
},
{
ref = h;
}
);
width = 639;
}
);
unicode = 295;
},
{
glyphname = i;
kernLeft = i;
layers = (
{
anchors = (
{
name = bottom;
pos = (156,0);
}
);
background = {
shapes = (
{
closed = 1;
nodes = (
(92,632,o),
(130,593,o),
(153,593,cs),
(178,593,o),
(216,632,o),
(216,658,cs),
(216,684,o),
(178,724,o),
(153,724,cs),
(129,724,o),
(92,684,o),
(92,658,cs)
);
},
{
closed = 1;
nodes = (
(199,478,ls),
(199,497,o),
(186,510,o),
(167,510,cs),
(129,510,o),
(74,485,o),
(35,450,c),
(44,424,l),
(88,424,ls),
(102,424,o),
(108,418,o),
(108,402,cs),
(108,92,ls),
(108,17,o),
(130,-14,o),
(185,-14,cs),
(219,-14,o),
(262,10,o),
(297,49,c),
(278,75,l),
(261,61,o),
(243,54,o),
(228,54,cs),
(208,54,o),
(198,66,o),
(198,88,cs)
);
}
);
};
hints = (
{
place = (108, 90);
place = (108, 90);
type = Stem;
},
{
horizontal = 1;
place = (-14, 68);
place = (-14, 68);
type = Stem;
},
{
horizontal = 1;
place = (724, -20);
target = down;
type = TopGhost;
},
{
horizontal = 1;
place = (510, -20);
target = down;
type = TopGhost;
}
);
layerId = UUID0;
shapes = (
{
ref = idotless;
},
{
pos = (-6,0);
ref = dotaccentcomb;
}
);
width = 312;
}
);
unicode = 105;
},
{
glyphname = idotless;
kernLeft = m;
layers = (
{
anchors = (
{
name = bottom;
pos = (156,0);
},
{
name = ogonek;
pos = (251,10);
},
{
name = top;
pos = (156,497);
}
);
background = {
shapes = (
{
closed = 1;
nodes = (
(199,478,ls),
(199,497,o),
(186,510,o),
(167,510,cs),
(129,510,o),
(74,485,o),
(35,450,c),
(44,424,l),
(88,424,ls),
(102,424,o),
(108,418,o),
(108,402,cs),
(108,92,ls),
(108,17,o),
(130,-14,o),
(185,-14,cs),
(219,-14,o),
(262,10,o),
(297,49,c),
(278,75,l),
(261,61,o),
(243,54,o),
(228,54,cs),
(208,54,o),
(198,66,o),
(198,88,cs)
);
}
);
};
hints = (
{
place = (108, 90);
place = (108, 90);
type = Stem;
},
{
horizontal = 1;
place = (-14, 68);
place = (-14, 68);
type = Stem;
},
{
horizontal = 1;
place = (510, -20);
target = down;
type = TopGhost;
}
);
layerId = UUID0;
shapes = (
{
closed = 1;
nodes = (
(219,-14,o),
(262,10,o),
(297,49,c),
(278,75,l),
(261,61,o),
(243,54,o),
(228,54,cs),
(208,54,o),
(198,66,o),
(198,88,cs),
(198,478,ls),
(198,497,o),
(186,510,o),
(167,510,cs),
(129,510,o),
(74,485,o),
(35,450,c),
(44,424,l),
(88,424,ls),
(102,424,o),
(108,418,o),
(108,402,cs),
(108,92,ls),
(108,17,o),
(130,-14,o),
(185,-14,cs)
);
}
);
width = 312;
}
);
unicode = 305;
},
{
glyphname = iacute;
kernLeft = i;
layers = (
{
background = {
hints = (
{
place = (108, 90);
place = (108, 90);
type = Stem;
},
{
horizontal = 1;
place = (-14, 68);
place = (-14, 68);
type = Stem;
},
{
horizontal = 1;
place = (510, -20);
target = down;
type = TopGhost;
},
{
horizontal = 1;
place = (569, 21);
target = up;
type = BottomGhost;
},
{
horizontal = 1;
place = (760, -20);
target = down;
type = TopGhost;
}
);
shapes = (
{
closed = 1;
nodes = (
(199,478,ls),
(199,497,o),
(186,510,o),
(167,510,cs),
(129,510,o),
(74,485,o),
(35,450,c),
(44,424,l),
(88,424,ls),
(102,424,o),
(108,418,o),
(108,402,cs),
(108,92,ls),
(108,17,o),
(130,-14,o),
(185,-14,cs),
(219,-14,o),
(262,10,o),
(297,49,c),
(278,75,l),
(261,61,o),
(243,54,o),
(228,54,cs),
(208,54,o),
(198,66,o),
(198,88,cs)
);
},
{
closed = 1;
nodes = (
(57,604,l),
(86,569,l),
(199,625,ls),
(240,645,o),
(255,668,o),
(255,697,cs),
(255,726,o),
(238,748,o),
(213,760,c)
);
}
);
};
layerId = UUID0;
shapes = (
{
ref = idotless;
},
{
pos = (-6,0);
ref = acutecomb;
}
);
width = 312;
}
);
unicode = 237;
},
{
glyphname = icircumflex;
kernLeft = i;
layers = (
{
background = {
hints = (
{
place = (108, 90);
place = (108, 90);
type = Stem;
},
{
horizontal = 1;
place = (-14, 68);
place = (-14, 68);
type = Stem;
},
{
horizontal = 1;
place = (510, -20);
target = down;
type = TopGhost;
},
{
horizontal = 1;
place = (755, -20);
target = down;
type = TopGhost;
},
{
horizontal = 1;
place = (569, 21);
target = up;
type = BottomGhost;
}
);
shapes = (
{
closed = 1;
nodes = (
(199,478,ls),
(199,497,o),
(186,510,o),
(167,510,cs),
(129,510,o),
(74,485,o),
(35,450,c),
(44,424,l),
(88,424,ls),
(102,424,o),
(108,418,o),
(108,402,cs),
(108,92,ls),
(108,17,o),
(130,-14,o),
(185,-14,cs),
(219,-14,o),
(262,10,o),
(297,49,c),
(278,75,l),
(261,61,o),
(243,54,o),
(228,54,cs),
(208,54,o),
(198,66,o),
(198,88,cs)
);
},
{
closed = 1;
nodes = (
(143,755,l),
(117,740,o),
(63,673,o),
(19,597,c),
(52,569,l),
(156,652,l),
(261,569,l),
(293,597,l),
(249,675,o),
(192,742,o),
(170,755,c)
);
}
);
};
layerId = UUID0;
shapes = (
{
ref = idotless;
},
{
pos = (-31,0);
ref = circumflexcomb;
}
);
width = 312;
}
);
unicode = 238;
},
{
glyphname = idieresis;
kernLeft = i;
layers = (
{
background = {
hints = (
{
place = (108, 90);
place = (108, 90);
type = Stem;
},
{
horizontal = 1;
place = (-14, 68);
place = (-14, 68);
type = Stem;
},
{
horizontal = 1;
place = (510, -20);
target = down;
type = TopGhost;
},
{
horizontal = 1;
place = (593, 21);
target = up;
type = BottomGhost;
},
{
horizontal = 1;
place = (724, -20);
target = down;
type = TopGhost;
}
);
shapes = (
{
closed = 1;
nodes = (
(199,478,ls),
(199,497,o),
(186,510,o),
(167,510,cs),
(129,510,o),
(74,485,o),
(35,450,c),
(44,424,l),
(88,424,ls),
(102,424,o),
(108,418,o),
(108,402,cs),
(108,92,ls),
(108,17,o),
(130,-14,o),
(185,-14,cs),
(219,-14,o),
(262,10,o),
(297,49,c),
(278,75,l),
(261,61,o),
(243,54,o),
(228,54,cs),
(208,54,o),
(198,66,o),
(198,88,cs)
);
},
{
closed = 1;
nodes = (
(0,632,o),
(38,593,o),
(61,593,cs),
(86,593,o),
(124,632,o),
(124,658,cs),
(124,684,o),
(86,724,o),
(61,724,cs),
(37,724,o),
(0,684,o),
(0,658,cs)
);
},
{
closed = 1;
nodes = (
(189,632,o),
(227,593,o),
(250,593,cs),
(275,593,o),
(313,632,o),
(313,658,cs),
(313,684,o),
(275,724,o),
(250,724,cs),
(226,724,o),
(189,684,o),
(189,658,cs)
);
}
);
};
layerId = UUID0;
shapes = (
{
ref = idotless;
},
{
pos = (-55,0);
ref = dieresiscomb;
}
);
width = 312;
}
);
unicode = 239;
},
{
glyphname = igrave;
kernLeft = i;
layers = (
{
background = {
hints = (
{
place = (108, 90);
place = (108, 90);
type = Stem;
},
{
horizontal = 1;
place = (-14, 68);
place = (-14, 68);
type = Stem;
},
{
horizontal = 1;
place = (510, -20);
target = down;
type = TopGhost;
},
{
horizontal = 1;
place = (760, -20);
target = down;
type = TopGhost;
},
{
horizontal = 1;
place = (569, 21);
target = up;
type = BottomGhost;
}
);
shapes = (
{
closed = 1;
nodes = (
(199,478,ls),
(199,497,o),
(186,510,o),
(167,510,cs),
(129,510,o),
(74,485,o),
(35,450,c),
(44,424,l),
(88,424,ls),
(102,424,o),
(108,418,o),
(108,402,cs),
(108,92,ls),
(108,17,o),
(130,-14,o),
(185,-14,cs),
(219,-14,o),
(262,10,o),
(297,49,c),
(278,75,l),
(261,61,o),
(243,54,o),
(228,54,cs),
(208,54,o),
(198,66,o),
(198,88,cs)
);
},
{
closed = 1;
nodes = (
(99,760,l),
(74,748,o),
(57,726,o),
(57,697,cs),
(57,668,o),
(72,645,o),
(113,625,cs),
(226,569,l),
(255,604,l)
);
}
);
};
layerId = UUID0;
shapes = (
{
ref = idotless;
},
{
pos = (3,0);
ref = gravecomb;
}
);
width = 312;
}
);
unicode = 236;
},
{
glyphname = j;
kernLeft = i;
layers = (
{
background = {
shapes = (
{
closed = 1;
nodes = (
(136,-278,o),
(194,-187,o),
(194,-53,cs),
(194,478,ls),
(194,497,o),
(181,510,o),
(162,510,cs),
(124,510,o),
(69,485,o),
(30,450,c),
(39,424,l),
(83,424,ls),
(97,424,o),
(103,418,o),
(103,402,cs),
(103,-130,ls),
(103,-203,o),
(70,-235,o),
(33,-235,cs),
(2,-235,o),
(-22,-211,o),
(-22,-169,cs),
(-22,-122,o),
(6,-106,o),
(6,-97,cs),
(6,-89,o),
(0,-86,o),
(-13,-86,cs),
(-70,-86,o),
(-111,-125,o),
(-111,-176,cs),
(-111,-240,o),
(-57,-278,o),
(13,-278,cs)
);
},
{
closed = 1;
nodes = (
(173,593,o),
(211,632,o),
(211,658,cs),
(211,684,o),
(173,724,o),
(148,724,cs),
(124,724,o),
(87,684,o),
(87,658,cs),
(87,632,o),
(125,593,o),
(148,593,cs)
);
}
);
};
hints = (
{
place = (-111, 89);
place = (-111, 89);
type = Stem;
},
{
place = (103, 91);
place = (103, 91);
type = Stem;
},
{
horizontal = 1;
place = (-278, 43);
place = (-278, 43);
type = Stem;
},
{
horizontal = 1;
place = (724, -20);
target = down;
type = TopGhost;
},
{
horizontal = 1;
place = (510, -20);
target = down;
type = TopGhost;
}
);
layerId = UUID0;
shapes = (
{
ref = jdotless;
},
{
pos = (-13,0);
ref = dotaccentcomb;
}
);
width = 274;
}
);
unicode = 106;
},
{
color = 9;
glyphname = jdotless;
layers = (
{
anchors = (
{
name = bottom;
pos = (137,-266);
},
{
name = top;
pos = (149,497);
}
);
layerId = UUID0;
shapes = (
{
closed = 1;
nodes = (
(136,-278,o),
(194,-187,o),
(194,-53,cs),
(194,478,ls),
(194,497,o),
(181,510,o),
(162,510,cs),
(124,510,o),
(69,485,o),
(30,450,c),
(39,424,l),
(83,424,ls),
(97,424,o),
(103,418,o),
(103,402,cs),
(103,-130,ls),
(103,-203,o),
(70,-235,o),
(33,-235,cs),
(2,-235,o),
(-22,-211,o),
(-22,-169,cs),
(-22,-122,o),
(6,-106,o),
(6,-97,cs),
(6,-89,o),
(0,-86,o),
(-13,-86,cs),
(-70,-86,o),
(-111,-125,o),
(-111,-176,cs),
(-111,-240,o),
(-57,-278,o),
(13,-278,cs)
);
}
);
width = 274;
}
);
unicode = 567;
},
{
glyphname = k;
kernLeft = h;
layers = (
{
anchors = (
{
name = bottom;
pos = (292,0);
},
{
name = top;
pos = (292,782);
}
);
background = {
shapes = (
{
closed = 1;
nodes = (
(336,92,ls),
(371,25,o),
(394,-14,o),
(457,-14,cs),
(494,-14,o),
(531,4,o),
(564,49,c),
(543,75,l),
(528,60,o),
(508,49,o),
(490,49,cs),
(473,49,o),
(459,55,o),
(448,77,cs),
(370,225,l),
(466,236,o),
(518,310,o),
(518,379,cs),
(518,447,o),
(473,510,o),
(380,510,cs),
(306,510,o),
(232,448,o),
(199,361,c),
(199,750,ls),
(199,769,o),
(186,782,o),
(167,782,cs),
(129,782,o),
(74,757,o),
(35,722,c),
(44,696,l),
(88,696,ls),
(102,696,o),
(108,690,o),
(108,674,cs),
(108,111,ls),
(108,61,o),
(100,44,o),
(66,36,cs),
(45,31,l),
(56,0,l),
(231,0,l),
(243,15,l),
(231,31,ls),
(206,64,o),
(199,97,o),
(199,160,cs),
(199,327,o),
(261,441,o),
(361,441,cs),
(406,441,o),
(428,408,o),
(428,370,cs),
(428,322,o),
(390,267,o),
(313,267,cs),
(272,267,o),
(259,276,o),
(249,276,cs),
(238,276,o),
(234,266,o),
(234,257,cs),
(234,247,o),
(238,240,o),
(253,236,cs),
(262,233,l)
);
}
);
};
hints = (
{
place = (108, 91);
place = (108, 91);
type = Stem;
},
{
place = (428, 90);
place = (428, 90);
type = Stem;
},
{
horizontal = 1;
place = (-14, 63);
place = (-14, 63);
type = Stem;
},
{
horizontal = 1;
place = (441, 69);
place = (441, 69);
type = Stem;
},
{
horizontal = 1;
place = (782, -20);
target = down;
type = TopGhost;
},
{
horizontal = 1;
place = (0, 21);
target = up;
type = BottomGhost;
}
);
layerId = UUID0;
shapes = (
{
closed = 1;
nodes = (
(494,-14,o),
(531,4,o),
(564,49,c),
(543,75,l),
(528,60,o),
(508,49,o),
(490,49,cs),
(473,49,o),
(459,55,o),
(448,77,cs),
(370,225,l),
(466,236,o),
(518,310,o),
(518,379,cs),
(518,447,o),
(473,510,o),
(380,510,cs),
(306,510,o),
(232,448,o),
(199,361,c),
(199,750,ls),
(199,769,o),
(186,782,o),
(167,782,cs),
(129,782,o),
(74,757,o),
(35,722,c),
(44,696,l),
(88,696,ls),
(102,696,o),
(108,690,o),
(108,674,cs),
(108,111,ls),
(108,61,o),
(100,44,o),
(66,36,cs),
(45,31,l),
(56,0,l),
(231,0,l),
(243,15,l),
(231,31,ls),
(206,64,o),
(199,97,o),
(199,160,cs),
(199,327,o),
(261,441,o),
(361,441,cs),
(406,441,o),
(428,408,o),
(428,370,cs),
(428,322,o),
(390,267,o),
(313,267,cs),
(272,267,o),
(259,276,o),
(249,276,cs),
(238,276,o),
(234,266,o),
(234,257,cs),
(234,247,o),
(238,240,o),
(253,236,cs),
(262,233,l),
(336,92,ls),
(371,25,o),
(394,-14,o),
(457,-14,cs)
);
}
);
width = 584;
}
);
unicode = 107;
},
{
glyphname = l;
kernLeft = h;
layers = (
{
anchors = (
{
name = bottom;
pos = (151,0);
},
{
name = center;
pos = (151,391);
},
{
name = top;
pos = (151,782);
},
{
name = topright;
pos = (258,782);
}
);
background = {
shapes = (
{
closed = 1;
nodes = (
(189,750,ls),
(189,769,o),
(176,782,o),
(157,782,cs),
(119,782,o),
(64,757,o),
(25,722,c),
(34,696,l),
(78,696,ls),
(92,696,o),
(98,690,o),
(98,674,cs),
(98,92,ls),
(98,17,o),
(120,-14,o),
(175,-14,cs),
(209,-14,o),
(252,10,o),
(287,49,c),
(268,75,l),
(251,61,o),
(233,54,o),
(218,54,cs),
(198,54,o),
(188,66,o),
(188,88,cs)
);
}
);
};
hints = (
{
place = (98, 90);
place = (98, 90);
type = Stem;
},
{
horizontal = 1;
place = (-14, 68);
place = (-14, 68);
type = Stem;
},
{
horizontal = 1;
place = (782, -20);
target = down;
type = TopGhost;
}
);
layerId = UUID0;
shapes = (
{
closed = 1;
nodes = (
(209,-14,o),
(252,10,o),
(287,49,c),
(268,75,l),
(251,61,o),
(233,54,o),
(218,54,cs),
(198,54,o),
(188,66,o),
(188,88,cs),
(188,750,ls),
(188,769,o),
(176,782,o),
(157,782,cs),
(119,782,o),
(64,757,o),
(25,722,c),
(34,696,l),
(78,696,ls),
(92,696,o),
(98,690,o),
(98,674,cs),
(98,92,ls),
(98,17,o),
(120,-14,o),
(175,-14,cs)
);
}
);
width = 302;
}
);
unicode = 108;
},
{
glyphname = lslash;
kernLeft = h;
layers = (
{
background = {
shapes = (
{
alignment = -1;
ref = l;
},
{
alignment = -1;
pos = (-27,0);
ref = eslash;
}
);
};
hints = (
{
horizontal = 1;
place = (474, -20);
target = down;
type = TopGhost;
},
{
horizontal = 1;
place = (244, 21);
target = up;
type = BottomGhost;
}
);
layerId = UUID0;
shapes = (
{
closed = 1;
nodes = (
(275,384,ls),
(295,394,o),
(299,417,o),
(299,474,c),
(19,334,ls),
(-1,324,o),
(-5,301,o),
(-5,244,c)
);
},
{
alignment = -1;
ref = l;
}
);
width = 302;
}
);
unicode = 322;
},
{
glyphname = m;
kernLeft = m;
layers = (
{
anchors = (
{
name = bottom;
pos = (471,0);
},
{
name = top;
pos = (471,497);
}
);
background = {
shapes = (
{
closed = 1;
nodes = (
(204,322,o),
(263,432,o),
(349,432,cs),
(398,432,o),
(423,398,o),
(423,330,cs),
(423,0,l),
(545,0,l),
(557,15,l),
(519,60,o),
(513,96,o),
(513,160,cs),
(513,172,ls),
(516,327,o),
(574,432,o),
(658,432,cs),
(707,432,o),
(732,398,o),
(732,330,cs),
(732,92,ls),
(732,17,o),
(754,-14,o),
(809,-14,cs),
(843,-14,o),
(886,10,o),
(921,49,c),
(902,75,l),
(884,61,o),
(867,54,o),
(852,54,cs),
(832,54,o),
(822,66,o),
(822,88,cs),
(822,330,ls),
(822,455,o),
(783,510,o),
(694,510,cs),
(621,510,o),
(547,448,o),
(513,361,c),
(506,464,o),
(466,510,o),
(385,510,cs),
(312,510,o),
(238,448,o),
(204,361,c),
(204,468,ls),
(204,487,o),
(191,500,o),
(172,500,cs),
(134,500,o),
(79,475,o),
(40,440,c),
(49,414,l),
(93,414,ls),
(107,414,o),
(113,408,o),
(113,392,cs),
(113,111,ls),
(113,61,o),
(105,44,o),
(71,36,cs),
(50,31,l),
(61,0,l),
(236,0,l),
(248,15,l),
(236,31,ls),
(212,65,o),
(204,97,o),
(204,160,cs)
);
}
);
};
hints = (
{
place = (113, 91);
place = (113, 91);
type = Stem;
},
{
place = (423, 90);
place = (423, 90);
type = Stem;
},
{
place = (732, 90);
place = (732, 90);
type = Stem;
},
{
horizontal = 1;
place = (-14, 68);
place = (-14, 68);
type = Stem;
},
{
horizontal = 1;
place = (432, 78);
place = (432, 78);
type = Stem;
},
{
horizontal = 1;
place = (0, 21);
target = up;
type = BottomGhost;
},
{
horizontal = 1;
place = (500, -20);
target = down;
type = TopGhost;
}
);
layerId = UUID0;
shapes = (
{
closed = 1;
nodes = (
(843,-14,o),
(886,10,o),
(921,49,c),
(902,75,l),
(884,61,o),
(867,54,o),
(852,54,cs),
(832,54,o),
(822,66,o),
(822,88,cs),
(822,330,ls),
(822,455,o),
(783,510,o),
(694,510,cs),
(621,510,o),
(547,448,o),
(513,361,c),
(506,464,o),
(466,510,o),
(385,510,cs),
(312,510,o),
(238,448,o),
(204,361,c),
(204,468,ls),
(204,487,o),
(191,500,o),
(172,500,cs),
(134,500,o),
(79,475,o),
(40,440,c),
(49,414,l),
(93,414,ls),
(107,414,o),
(113,408,o),
(113,392,cs),
(113,111,ls),
(113,61,o),
(105,44,o),
(71,36,cs),
(50,31,l),
(61,0,l),
(236,0,l),
(248,15,l),
(236,31,ls),
(212,65,o),
(204,97,o),
(204,160,cs),
(204,322,o),
(263,432,o),
(349,432,cs),
(398,432,o),
(423,398,o),
(423,330,cs),
(423,0,l),
(545,0,l),
(557,15,l),
(519,60,o),
(513,96,o),
(513,160,cs),
(513,172,ls),
(516,327,o),
(574,432,o),
(658,432,cs),
(707,432,o),
(732,398,o),
(732,330,cs),
(732,92,ls),
(732,17,o),
(754,-14,o),
(809,-14,cs)
);
}
);
width = 941;
}
);
unicode = 109;
},
{
glyphname = n;
kernLeft = m;
layers = (
{
anchors = (
{
name = bottom;
pos = (322,0);
},
{
name = top;
pos = (322,497);
}
);
background = {
shapes = (
{
closed = 1;
nodes = (
(204,322,o),
(263,432,o),
(349,432,cs),
(406,432,o),
(435,398,o),
(435,330,cs),
(435,92,ls),
(435,17,o),
(457,-14,o),
(512,-14,cs),
(546,-14,o),
(589,10,o),
(624,49,c),
(605,75,l),
(587,61,o),
(570,54,o),
(555,54,cs),
(535,54,o),
(525,66,o),
(525,88,cs),
(525,330,ls),
(525,455,o),
(484,510,o),
(391,510,cs),
(315,510,o),
(238,448,o),
(204,361,c),
(204,468,ls),
(204,487,o),
(191,500,o),
(172,500,cs),
(134,500,o),
(79,475,o),
(40,440,c),
(49,414,l),
(93,414,ls),
(107,414,o),
(113,408,o),
(113,392,cs),
(113,111,ls),
(113,61,o),
(105,44,o),
(71,36,cs),
(50,31,l),
(61,0,l),
(236,0,l),
(248,15,l),
(236,31,ls),
(212,65,o),
(204,97,o),
(204,160,cs)
);
}
);
};
hints = (
{
place = (113, 91);
place = (113, 91);
type = Stem;
},
{
place = (435, 90);
place = (435, 90);
type = Stem;
},
{
horizontal = 1;
place = (-14, 68);
place = (-14, 68);
type = Stem;
},
{
horizontal = 1;
place = (432, 78);
place = (432, 78);
type = Stem;
},
{
horizontal = 1;
place = (500, -20);
target = down;
type = TopGhost;
},
{
horizontal = 1;
place = (0, 21);
target = up;
type = BottomGhost;
}
);
layerId = UUID0;
shapes = (
{
closed = 1;
nodes = (
(546,-14,o),
(589,10,o),
(624,49,c),
(605,75,l),
(587,61,o),
(570,54,o),
(555,54,cs),
(535,54,o),
(525,66,o),
(525,88,cs),
(525,330,ls),
(525,455,o),
(484,510,o),
(391,510,cs),
(315,510,o),
(238,448,o),
(204,361,c),
(204,468,ls),
(204,487,o),
(191,500,o),
(172,500,cs),
(134,500,o),
(79,475,o),
(40,440,c),
(49,414,l),
(93,414,ls),
(107,414,o),
(113,408,o),
(113,392,cs),
(113,111,ls),
(113,61,o),
(105,44,o),
(71,36,cs),
(50,31,l),
(61,0,l),
(236,0,l),
(248,15,l),
(236,31,ls),
(212,65,o),
(204,97,o),
(204,160,cs),
(204,322,o),
(263,432,o),
(349,432,cs),
(406,432,o),
(435,398,o),
(435,330,cs),
(435,92,ls),
(435,17,o),
(457,-14,o),
(512,-14,cs)
);
}
);
width = 644;
}
);
unicode = 110;
},
{
glyphname = ntilde;
kernLeft = m;
layers = (
{
background = {
hints = (
{
place = (113, 91);
place = (113, 91);
type = Stem;
},
{
place = (435, 90);
place = (435, 90);
type = Stem;
},
{
horizontal = 1;
place = (-14, 68);
place = (-14, 68);
type = Stem;
},
{
horizontal = 1;
place = (432, 78);
place = (432, 78);
type = Stem;
},
{
horizontal = 1;
place = (500, -20);
target = down;
type = TopGhost;
},
{
horizontal = 1;
place = (0, 21);
target = up;
type = BottomGhost;
},
{
horizontal = 1;
place = (630, 54);
place = (630, 54);
type = Stem;
},
{
horizontal = 1;
place = (723, -20);
target = down;
type = TopGhost;
},
{
horizontal = 1;
place = (719, -20);
target = down;
type = TopGhost;
},
{
horizontal = 1;
place = (591, 21);
target = up;
type = BottomGhost;
}
);
shapes = (
{
closed = 1;
nodes = (
(204,322,o),
(263,432,o),
(349,432,cs),
(406,432,o),
(435,398,o),
(435,330,cs),
(435,92,ls),
(435,17,o),
(457,-14,o),
(512,-14,cs),
(546,-14,o),
(589,10,o),
(624,49,c),
(605,75,l),
(587,61,o),
(570,54,o),
(555,54,cs),
(535,54,o),
(525,66,o),
(525,88,cs),
(525,330,ls),
(525,455,o),
(484,510,o),
(391,510,cs),
(315,510,o),
(238,448,o),
(204,361,c),
(204,468,ls),
(204,487,o),
(191,500,o),
(172,500,cs),
(134,500,o),
(79,475,o),
(40,440,c),
(49,414,l),
(93,414,ls),
(107,414,o),
(113,408,o),
(113,392,cs),
(113,111,ls),
(113,61,o),
(105,44,o),
(71,36,cs),
(50,31,l),
(61,0,l),
(236,0,l),
(248,15,l),
(236,31,ls),
(212,65,o),
(204,97,o),
(204,160,cs)
);
},
{
closed = 1;
nodes = (
(450,723,l),
(421,695,o),
(399,684,o),
(382,684,cs),
(350,684,o),
(331,719,o),
(288,719,cs),
(249,719,o),
(202,681,o),
(159,622,c),
(194,591,l),
(221,618,o),
(245,630,o),
(261,630,cs),
(293,630,o),
(311,595,o),
(356,595,cs),
(394,595,o),
(442,633,o),
(484,692,c)
);
}
);
};
layerId = UUID0;
shapes = (
{
ref = n;
},
{
pos = (118,0);
ref = tildecomb;
}
);
width = 644;
}
);
unicode = 241;
},
{
color = 9;
glyphname = eng;
layers = (
{
anchors = (
{
name = bottom;
pos = (781,-266);
},
{
name = top;
pos = (793,724);
}
);
hints = (
{
place = (113, 91);
place = (113, 91);
type = Stem;
},
{
place = (435, 90);
place = (435, 90);
type = Stem;
},
{
horizontal = 1;
place = (-14, 68);
place = (-14, 68);
type = Stem;
},
{
horizontal = 1;
place = (432, 78);
place = (432, 78);
type = Stem;
},
{
horizontal = 1;
place = (500, -20);
target = down;
type = TopGhost;
},
{
horizontal = 1;
place = (0, 21);
target = up;
type = BottomGhost;
},
{
place = (533, 89);
place = (533, 89);
type = Stem;
},
{
place = (747, 91);
place = (747, 91);
type = Stem;
},
{
horizontal = 1;
place = (-278, 43);
place = (-278, 43);
type = Stem;
},
{
horizontal = 1;
place = (724, -20);
target = down;
type = TopGhost;
},
{
horizontal = 1;
place = (510, -20);
target = down;
type = TopGhost;
},
{
horizontal = 1;
place = (593, 21);
target = up;
type = BottomGhost;
},
{
horizontal = 1;
place = (724, -20);
target = down;
type = TopGhost;
},
{
horizontal = 1;
place = (593, 21);
target = up;
type = BottomGhost;
},
{
horizontal = 1;
place = (724, -20);
target = down;
type = TopGhost;
}
);
layerId = UUID0;
shapes = (
{
closed = 1;
nodes = (
(435,-50,ls),
(435,-120,o),
(404,-152,o),
(369,-155,c),
(384,-194,l),
(480,-176,o),
(525,-91,o),
(525,27,cs),
(525,330,ls),
(525,455,o),
(484,510,o),
(391,510,cs),
(315,510,o),
(238,448,o),
(204,361,c),
(204,468,ls),
(204,487,o),
(191,500,o),
(172,500,cs),
(134,500,o),
(79,475,o),
(40,440,c),
(49,414,l),
(93,414,ls),
(107,414,o),
(113,408,o),
(113,392,cs),
(113,111,ls),
(113,61,o),
(105,44,o),
(71,36,cs),
(50,31,l),
(61,0,l),
(236,0,l),
(248,15,l),
(236,31,ls),
(211,64,o),
(204,97,o),
(204,160,cs),
(204,322,o),
(263,432,o),
(349,432,cs),
(406,432,o),
(435,398,o),
(435,330,cs)
);
}
);
width = 588;
}
);
metricRight = j;
unicode = 331;
},
{
glyphname = o;
kernLeft = c;
layers = (
{
anchors = (
{
name = bottom;
pos = (289,0);
},
{
name = center;
pos = (289,249);
},
{
name = ogonek;
pos = (520,10);
},
{
name = top;
pos = (289,497);
},
{
name = topright;
pos = (558,497);
}
);
background = {
shapes = (
{
closed = 1;
nodes = (
(428,122,o),
(369,40,o),
(286,40,cs),
(202,40,o),
(149,121,o),
(149,247,cs),
(149,372,o),
(207,458,o),
(292,458,cs),
(398,458,o),
(428,326,o),
(428,245,cs)
);
},
{
closed = 1;
nodes = (
(45,88,o),
(139,-14,o),
(289,-14,cs),
(438,-14,o),
(533,88,o),
(533,248,cs),
(533,409,o),
(438,510,o),
(289,510,cs),
(139,510,o),
(45,409,o),
(45,248,cs)
);
}
);
};
hints = (
{
place = (45, 104);
place = (45, 104);
type = Stem;
},
{
place = (428, 105);
place = (428, 105);
type = Stem;
},
{
horizontal = 1;
place = (-14, 54);
place = (-14, 54);
type = Stem;
},
{
horizontal = 1;
place = (458, 52);
place = (458, 52);
type = Stem;
}
);
layerId = UUID0;
shapes = (
{
closed = 1;
nodes = (
(438,-14,o),
(533,88,o),
(533,248,cs),
(533,409,o),
(438,510,o),
(289,510,cs),
(139,510,o),
(45,409,o),
(45,248,cs),
(45,88,o),
(139,-14,o),
(289,-14,cs)
);
},
{
closed = 1;
nodes = (
(202,40,o),
(149,121,o),
(149,247,cs),
(149,372,o),
(207,458,o),
(292,458,cs),
(398,458,o),
(428,326,o),
(428,245,cs),
(428,122,o),
(369,40,o),
(286,40,cs)
);
}
);
width = 578;
}
);
unicode = 111;
},
{
glyphname = oacute;
kernLeft = c;
layers = (
{
background = {
hints = (
{
place = (45, 104);
place = (45, 104);
type = Stem;
},
{
place = (428, 105);
place = (428, 105);
type = Stem;
},
{
horizontal = 1;
place = (-14, 54);
place = (-14, 54);
type = Stem;
},
{
horizontal = 1;
place = (458, 52);
place = (458, 52);
type = Stem;
},
{
horizontal = 1;
place = (569, 21);
target = up;
type = BottomGhost;
},
{
horizontal = 1;
place = (760, -20);
target = down;
type = TopGhost;
}
);
shapes = (
{
closed = 1;
nodes = (
(428,122,o),
(369,40,o),
(286,40,cs),
(202,40,o),
(149,121,o),
(149,247,cs),
(149,372,o),
(207,458,o),
(292,458,cs),
(398,458,o),
(428,326,o),
(428,245,cs)
);
},
{
closed = 1;
nodes = (
(45,88,o),
(139,-14,o),
(289,-14,cs),
(438,-14,o),
(533,88,o),
(533,248,cs),
(533,409,o),
(438,510,o),
(289,510,cs),
(139,510,o),
(45,409,o),
(45,248,cs)
);
},
{
closed = 1;
nodes = (
(211,604,l),
(240,569,l),
(353,625,ls),
(394,645,o),
(409,668,o),
(409,697,cs),
(409,726,o),
(392,748,o),
(367,760,c)
);
}
);
};
layerId = UUID0;
shapes = (
{
ref = o;
},
{
pos = (127,0);
ref = acutecomb;
}
);
width = 578;
}
);
unicode = 243;
},
{
glyphname = ocircumflex;
kernLeft = c;
layers = (
{
background = {
hints = (
{
place = (45, 104);
place = (45, 104);
type = Stem;
},
{
place = (428, 105);
place = (428, 105);
type = Stem;
},
{
horizontal = 1;
place = (-14, 54);
place = (-14, 54);
type = Stem;
},
{
horizontal = 1;
place = (458, 52);
place = (458, 52);
type = Stem;
},
{
horizontal = 1;
place = (755, -20);
target = down;
type = TopGhost;
},
{
horizontal = 1;
place = (569, 21);
target = up;
type = BottomGhost;
}
);
shapes = (
{
closed = 1;
nodes = (
(428,122,o),
(369,40,o),
(286,40,cs),
(202,40,o),
(149,121,o),
(149,247,cs),
(149,372,o),
(207,458,o),
(292,458,cs),
(398,458,o),
(428,326,o),
(428,245,cs)
);
},
{
closed = 1;
nodes = (
(45,88,o),
(139,-14,o),
(289,-14,cs),
(438,-14,o),
(533,88,o),
(533,248,cs),
(533,409,o),
(438,510,o),
(289,510,cs),
(139,510,o),
(45,409,o),
(45,248,cs)
);
},
{
closed = 1;
nodes = (
(278,755,l),
(252,740,o),
(198,673,o),
(154,597,c),
(187,569,l),
(291,652,l),
(396,569,l),
(428,597,l),
(384,675,o),
(327,742,o),
(305,755,c)
);
}
);
};
layerId = UUID0;
shapes = (
{
ref = o;
},
{
pos = (102,0);
ref = circumflexcomb;
}
);
width = 578;
}
);
unicode = 244;
},
{
glyphname = odieresis;
kernLeft = c;
layers = (
{
background = {
hints = (
{
place = (45, 104);
place = (45, 104);
type = Stem;
},
{
place = (428, 105);
place = (428, 105);
type = Stem;
},
{
horizontal = 1;
place = (-14, 54);
place = (-14, 54);
type = Stem;
},
{
horizontal = 1;
place = (458, 52);
place = (458, 52);
type = Stem;
},
{
horizontal = 1;
place = (593, 21);
target = up;
type = BottomGhost;
},
{
horizontal = 1;
place = (724, -20);
target = down;
type = TopGhost;
}
);
shapes = (
{
closed = 1;
nodes = (
(428,122,o),
(369,40,o),
(286,40,cs),
(202,40,o),
(149,121,o),
(149,247,cs),
(149,372,o),
(207,458,o),
(292,458,cs),
(398,458,o),
(428,326,o),
(428,245,cs)
);
},
{
closed = 1;
nodes = (
(45,88,o),
(139,-14,o),
(289,-14,cs),
(438,-14,o),
(533,88,o),
(533,248,cs),
(533,409,o),
(438,510,o),
(289,510,cs),
(139,510,o),
(45,409,o),
(45,248,cs)
);
},
{
closed = 1;
nodes = (
(135,632,o),
(173,593,o),
(196,593,cs),
(221,593,o),
(259,632,o),
(259,658,cs),
(259,684,o),
(221,724,o),
(196,724,cs),
(172,724,o),
(135,684,o),
(135,658,cs)
);
},
{
closed = 1;
nodes = (
(324,632,o),
(362,593,o),
(385,593,cs),
(410,593,o),
(448,632,o),
(448,658,cs),
(448,684,o),
(410,724,o),
(385,724,cs),
(361,724,o),
(324,684,o),
(324,658,cs)
);
}
);
};
layerId = UUID0;
shapes = (
{
ref = o;
},
{
pos = (78,0);
ref = dieresiscomb;
}
);
width = 578;
}
);
unicode = 246;
},
{
glyphname = ograve;
kernLeft = c;
layers = (
{
background = {
hints = (
{
place = (45, 104);
place = (45, 104);
type = Stem;
},
{
place = (428, 105);
place = (428, 105);
type = Stem;
},
{
horizontal = 1;
place = (-14, 54);
place = (-14, 54);
type = Stem;
},
{
horizontal = 1;
place = (458, 52);
place = (458, 52);
type = Stem;
},
{
horizontal = 1;
place = (760, -20);
target = down;
type = TopGhost;
},
{
horizontal = 1;
place = (569, 21);
target = up;
type = BottomGhost;
}
);
shapes = (
{
closed = 1;
nodes = (
(428,122,o),
(369,40,o),
(286,40,cs),
(202,40,o),
(149,121,o),
(149,247,cs),
(149,372,o),
(207,458,o),
(292,458,cs),
(398,458,o),
(428,326,o),
(428,245,cs)
);
},
{
closed = 1;
nodes = (
(45,88,o),
(139,-14,o),
(289,-14,cs),
(438,-14,o),
(533,88,o),
(533,248,cs),
(533,409,o),
(438,510,o),
(289,510,cs),
(139,510,o),
(45,409,o),
(45,248,cs)
);
},
{
closed = 1;
nodes = (
(226,760,l),
(201,748,o),
(184,726,o),
(184,697,cs),
(184,668,o),
(199,645,o),
(240,625,cs),
(353,569,l),
(382,604,l)
);
}
);
};
layerId = UUID0;
shapes = (
{
ref = o;
},
{
pos = (136,0);
ref = gravecomb;
}
);
width = 578;
}
);
unicode = 242;
},
{
glyphname = oslash;
kernLeft = c;
layers = (
{
background = {
shapes = (
{
ref = o;
},
{
pos = (153,-21);
ref = slash;
scale = (0.75,0.75);
}
);
};
hints = (
{
horizontal = 1;
place = (-68.25, 21);
target = up;
type = BottomGhost;
},
{
horizontal = 1;
place = (564.75, -20);
target = down;
type = TopGhost;
}
);
layerId = UUID0;
shapes = (
{
closed = 1;
nodes = (
(206,-68,l),
(431,565,l),
(377,565,l),
(153,-68,l)
);
},
{
ref = o;
}
);
width = 578;
}
);
unicode = 248;
},
{
glyphname = otilde;
kernLeft = c;
layers = (
{
background = {
hints = (
{
place = (45, 104);
place = (45, 104);
type = Stem;
},
{
place = (428, 105);
place = (428, 105);
type = Stem;
},
{
horizontal = 1;
place = (-14, 54);
place = (-14, 54);
type = Stem;
},
{
horizontal = 1;
place = (458, 52);
place = (458, 52);
type = Stem;
},
{
horizontal = 1;
place = (630, 54);
place = (630, 54);
type = Stem;
},
{
horizontal = 1;
place = (723, -20);
target = down;
type = TopGhost;
},
{
horizontal = 1;
place = (719, -20);
target = down;
type = TopGhost;
},
{
horizontal = 1;
place = (591, 21);
target = up;
type = BottomGhost;
}
);
shapes = (
{
closed = 1;
nodes = (
(428,122,o),
(369,40,o),
(286,40,cs),
(202,40,o),
(149,121,o),
(149,247,cs),
(149,372,o),
(207,458,o),
(292,458,cs),
(398,458,o),
(428,326,o),
(428,245,cs)
);
},
{
closed = 1;
nodes = (
(45,88,o),
(139,-14,o),
(289,-14,cs),
(438,-14,o),
(533,88,o),
(533,248,cs),
(533,409,o),
(438,510,o),
(289,510,cs),
(139,510,o),
(45,409,o),
(45,248,cs)
);
},
{
closed = 1;
nodes = (
(420,723,l),
(391,695,o),
(369,684,o),
(352,684,cs),
(320,684,o),
(301,719,o),
(258,719,cs),
(219,719,o),
(172,681,o),
(129,622,c),
(164,591,l),
(191,618,o),
(215,630,o),
(231,630,cs),
(263,630,o),
(281,595,o),
(326,595,cs),
(364,595,o),
(412,633,o),
(454,692,c)
);
}
);
};
layerId = UUID0;
shapes = (
{
ref = o;
},
{
pos = (85,0);
ref = tildecomb;
}
);
width = 578;
}
);
unicode = 245;
},
{
glyphname = oe;
kernLeft = c;
layers = (
{
anchors = (
{
name = bottom;
pos = (457,0);
},
{
name = top;
pos = (457,497);
}
);
background = {
shapes = (
{
closed = 1;
nodes = (
(831,113,o),
(829,111,o),
(827,109,cs),
(787,69,o),
(737,52,o),
(681,52,cs),
(584,52,o),
(533,125,o),
(533,242,cs),
(533,383,o),
(584,460,o),
(669,460,cs),
(732,460,o),
(764,413,o),
(764,364,cs),
(764,307,o),
(722,250,o),
(637,250,cs),
(596,250,o),
(583,263,o),
(573,263,cs),
(565,263,o),
(558,252,o),
(558,241,cs),
(558,206,o),
(640,194,o),
(668,194,cs),
(793,194,o),
(859,281,o),
(859,363,cs),
(859,438,o),
(804,510,o),
(689,510,cs),
(601,510,o),
(530,476,o),
(485,418,c),
(442,477,o),
(375,510,o),
(289,510,cs),
(139,510,o),
(45,409,o),
(45,248,cs),
(45,88,o),
(139,-14,o),
(289,-14,cs),
(371,-14,o),
(437,17,o),
(480,72,c),
(520,18,o),
(582,-14,o),
(660,-14,cs),
(739,-14,o),
(804,21,o),
(858,75,cs),
(860,77,o),
(862,80,o),
(862,84,cs),
(862,97,o),
(847,113,o),
(836,113,cs)
);
},
{
closed = 1;
nodes = (
(202,40,o),
(149,121,o),
(149,247,cs),
(149,372,o),
(207,458,o),
(292,458,cs),
(398,458,o),
(428,326,o),
(428,245,cs),
(428,122,o),
(369,40,o),
(286,40,cs)
);
}
);
};
hints = (
{
place = (45, 104);
place = (45, 104);
type = Stem;
},
{
place = (428, 105);
place = (428, 105);
type = Stem;
},
{
horizontal = 1;
place = (-14, 54);
place = (-14, 54);
type = Stem;
},
{
horizontal = 1;
place = (458, 52);
place = (458, 52);
type = Stem;
},
{
place = (623, 103);
place = (623, 103);
type = Stem;
},
{
place = (957, 95);
place = (957, 95);
type = Stem;
},
{
horizontal = 1;
place = (-14, 66);
place = (-14, 66);
type = Stem;
},
{
horizontal = 1;
place = (194, 56);
place = (194, 56);
type = Stem;
},
{
horizontal = 1;
place = (460, 50);
place = (460, 50);
type = Stem;
}
);
layerId = UUID0;
shapes = (
{
closed = 1;
nodes = (
(371,-14,o),
(437,17,o),
(480,72,c),
(520,18,o),
(582,-14,o),
(660,-14,cs),
(739,-14,o),
(804,21,o),
(858,75,cs),
(860,77,o),
(862,80,o),
(862,84,cs),
(862,97,o),
(847,113,o),
(836,113,cs),
(831,113,o),
(829,111,o),
(827,109,cs),
(787,69,o),
(737,52,o),
(681,52,cs),
(584,52,o),
(533,125,o),
(533,242,cs),
(533,383,o),
(584,460,o),
(669,460,cs),
(732,460,o),
(764,413,o),
(764,364,cs),
(764,307,o),
(722,250,o),
(637,250,cs),
(596,250,o),
(583,263,o),
(573,263,cs),
(565,263,o),
(558,252,o),
(558,241,cs),
(558,206,o),
(640,194,o),
(668,194,cs),
(793,194,o),
(859,281,o),
(859,363,cs),
(859,438,o),
(804,510,o),
(689,510,cs),
(601,510,o),
(530,476,o),
(485,418,c),
(442,477,o),
(375,510,o),
(289,510,cs),
(139,510,o),
(45,409,o),
(45,248,cs),
(45,88,o),
(139,-14,o),
(289,-14,cs)
);
},
{
closed = 1;
nodes = (
(202,40,o),
(149,121,o),
(149,247,cs),
(149,372,o),
(207,458,o),
(292,458,cs),
(398,458,o),
(428,326,o),
(428,245,cs),
(428,122,o),
(369,40,o),
(286,40,cs)
);
}
);
width = 914;
}
);
metricRight = e;
unicode = 339;
},
{
glyphname = p;
kernLeft = m;
layers = (
{
anchors = (
{
name = bottom;
pos = (298,0);
},
{
name = top;
pos = (298,497);
}
);
background = {
shapes = (
{
closed = 1;
nodes = (
(193,452,ls),
(193,482,o),
(185,498,o),
(169,498,cs),
(125,498,o),
(52,477,o),
(30,458,c),
(30,425,l),
(82,414,ls),
(99,410,o),
(103,401,o),
(103,381,cs),
(103,-106,ls),
(103,-169,o),
(95,-201,o),
(71,-235,cs),
(59,-251,l),
(71,-266,l),
(245,-266,l),
(256,-235,l),
(235,-230,ls),
(201,-222,o),
(193,-205,o),
(193,-155,cs),
(193,405,l),
(228,432,o),
(263,444,o),
(305,444,cs),
(387,444,o),
(444,364,o),
(444,248,cs),
(444,128,o),
(387,40,o),
(307,40,cs),
(262,40,o),
(247,56,o),
(236,56,cs),
(225,56,o),
(221,43,o),
(221,31,cs),
(221,24,o),
(224,17,o),
(230,13,cs),
(257,-5,o),
(292,-14,o),
(330,-14,cs),
(457,-14,o),
(550,106,o),
(550,268,cs),
(550,410,o),
(462,510,o),
(337,510,cs),
(284,510,o),
(235,488,o),
(193,447,c)
);
}
);
};
hints = (
{
place = (103, 90);
place = (103, 90);
type = Stem;
},
{
place = (444, 106);
place = (444, 106);
type = Stem;
},
{
horizontal = 1;
place = (-14, 54);
place = (-14, 54);
type = Stem;
},
{
horizontal = 1;
place = (444, 66);
place = (444, 66);
type = Stem;
},
{
horizontal = 1;
place = (-14, 70);
place = (-14, 70);
type = Stem;
},
{
horizontal = 1;
place = (498, -20);
target = down;
type = TopGhost;
},
{
horizontal = 1;
place = (-266, 21);
target = up;
type = BottomGhost;
}
);
layerId = UUID0;
shapes = (
{
closed = 1;
nodes = (
(245,-266,l),
(256,-235,l),
(235,-230,ls),
(201,-222,o),
(193,-205,o),
(193,-155,cs),
(193,405,l),
(228,432,o),
(263,444,o),
(305,444,cs),
(387,444,o),
(444,364,o),
(444,248,cs),
(444,128,o),
(387,40,o),
(307,40,cs),
(262,40,o),
(247,56,o),
(236,56,cs),
(225,56,o),
(221,43,o),
(221,31,cs),
(221,24,o),
(224,17,o),
(230,13,cs),
(257,-5,o),
(292,-14,o),
(330,-14,cs),
(457,-14,o),
(550,106,o),
(550,268,cs),
(550,410,o),
(462,510,o),
(337,510,cs),
(284,510,o),
(235,488,o),
(193,447,c),
(193,452,ls),
(193,482,o),
(185,498,o),
(169,498,cs),
(125,498,o),
(52,477,o),
(30,458,c),
(30,425,l),
(82,414,ls),
(99,410,o),
(103,401,o),
(103,381,cs),
(103,-106,ls),
(103,-169,o),
(95,-201,o),
(71,-235,cs),
(59,-251,l),
(71,-266,l)
);
}
);
width = 595;
}
);
unicode = 112;
},
{
glyphname = thorn;
layers = (
{
anchors = (
{
name = bottom;
pos = (298,0);
},
{
name = top;
pos = (298,497);
}
);
background = {
shapes = (
{
closed = 1;
nodes = (
(193,736,ls),
(193,766,o),
(185,782,o),
(169,782,cs),
(125,782,o),
(52,761,o),
(30,742,c),
(30,709,l),
(82,698,ls),
(99,694,o),
(103,685,o),
(103,665,cs),
(103,-106,ls),
(103,-169,o),
(95,-201,o),
(71,-235,cs),
(59,-251,l),
(71,-266,l),
(245,-266,l),
(256,-235,l),
(235,-230,ls),
(201,-222,o),
(193,-205,o),
(193,-155,cs),
(193,405,l),
(228,432,o),
(263,444,o),
(305,444,cs),
(387,444,o),
(444,364,o),
(444,248,cs),
(444,128,o),
(387,40,o),
(307,40,cs),
(262,40,o),
(247,56,o),
(236,56,cs),
(225,56,o),
(221,43,o),
(221,31,cs),
(221,24,o),
(224,17,o),
(230,13,cs),
(257,-5,o),
(292,-14,o),
(330,-14,cs),
(457,-14,o),
(550,106,o),
(550,268,cs),
(550,410,o),
(462,510,o),
(337,510,cs),
(284,510,o),
(235,488,o),
(193,447,c)
);
}
);
};
hints = (
{
place = (103, 90);
place = (103, 90);
type = Stem;
},
{
place = (444, 106);
place = (444, 106);
type = Stem;
},
{
horizontal = 1;
place = (-14, 54);
place = (-14, 54);
type = Stem;
},
{
horizontal = 1;
place = (444, 66);
place = (444, 66);
type = Stem;
},
{
horizontal = 1;
place = (-14, 70);
place = (-14, 70);
type = Stem;
},
{
horizontal = 1;
place = (782, -20);
target = down;
type = TopGhost;
},
{
horizontal = 1;
place = (-266, 21);
target = up;
type = BottomGhost;
}
);
layerId = UUID0;
shapes = (
{
closed = 1;
nodes = (
(245,-266,l),
(256,-235,l),
(235,-230,ls),
(201,-222,o),
(193,-205,o),
(193,-155,cs),
(193,405,l),
(228,432,o),
(263,444,o),
(305,444,cs),
(387,444,o),
(444,364,o),
(444,248,cs),
(444,128,o),
(387,40,o),
(307,40,cs),
(262,40,o),
(247,56,o),
(236,56,cs),
(225,56,o),
(221,43,o),
(221,31,cs),
(221,24,o),
(224,17,o),
(230,13,cs),
(257,-5,o),
(292,-14,o),
(330,-14,cs),
(457,-14,o),
(550,106,o),
(550,268,cs),
(550,410,o),
(462,510,o),
(337,510,cs),
(284,510,o),
(235,488,o),
(193,447,c),
(193,736,ls),
(193,766,o),
(185,782,o),
(169,782,cs),
(125,782,o),
(52,761,o),
(30,742,c),
(30,709,l),
(82,698,ls),
(99,694,o),
(103,685,o),
(103,665,cs),
(103,-106,ls),
(103,-169,o),
(95,-201,o),
(71,-235,cs),
(59,-251,l),
(71,-266,l)
);
}
);
width = 595;
}
);
unicode = 254;
},
{
glyphname = q;
kernLeft = c;
layers = (
{
anchors = (
{
name = bottom;
pos = (295,0);
},
{
name = top;
pos = (295,497);
}
);
background = {
shapes = (
{
closed = 1;
nodes = (
(492,415,ls),
(492,432,o),
(498,442,o),
(505,454,cs),
(517,472,l),
(506,485,l),
(438,490,o),
(366,510,o),
(304,510,cs),
(145,510,o),
(45,402,o),
(45,229,cs),
(45,67,o),
(130,-14,o),
(224,-14,cs),
(286,-14,o),
(343,11,o),
(401,92,c),
(401,-146,ls),
(401,-190,o),
(390,-205,o),
(359,-219,cs),
(328,-233,l),
(328,-266,l),
(514,-266,l),
(526,-251,l),
(516,-235,ls),
(497,-208,o),
(492,-181,o),
(492,-118,cs)
);
},
{
closed = 1;
nodes = (
(150,379,o),
(206,455,o),
(303,455,cs),
(336,455,o),
(370,445,o),
(401,424,c),
(401,154,l),
(364,91,o),
(315,63,o),
(264,63,cs),
(205,63,o),
(150,112,o),
(150,248,cs)
);
}
);
};
hints = (
{
place = (45, 105);
place = (45, 105);
type = Stem;
},
{
place = (401, 91);
place = (401, 91);
type = Stem;
},
{
horizontal = 1;
place = (-14, 77);
place = (-14, 77);
type = Stem;
},
{
horizontal = 1;
place = (455, 55);
place = (455, 55);
type = Stem;
},
{
horizontal = 1;
place = (-266, 21);
target = up;
type = BottomGhost;
}
);
layerId = UUID0;
shapes = (
{
closed = 1;
nodes = (
(514,-266,l),
(526,-251,l),
(516,-235,ls),
(497,-208,o),
(492,-181,o),
(492,-118,cs),
(492,415,ls),
(492,432,o),
(498,442,o),
(505,454,cs),
(517,472,l),
(506,485,l),
(438,490,o),
(366,510,o),
(304,510,cs),
(145,510,o),
(45,402,o),
(45,229,cs),
(45,67,o),
(130,-14,o),
(224,-14,cs),
(286,-14,o),
(343,11,o),
(401,92,c),
(401,-146,ls),
(401,-190,o),
(390,-205,o),
(359,-219,cs),
(328,-233,l),
(328,-266,l)
);
},
{
closed = 1;
nodes = (
(205,63,o),
(150,112,o),
(150,248,cs),
(150,379,o),
(206,455,o),
(303,455,cs),
(336,455,o),
(370,445,o),
(401,424,c),
(401,154,l),
(364,91,o),
(315,63,o),
(264,63,cs)
);
}
);
width = 589;
}
);
unicode = 113;
},
{
glyphname = r;
kernLeft = m;
layers = (
{
anchors = (
{
name = bottom;
pos = (157,0);
},
{
name = top;
pos = (229,497);
}
);
background = {
shapes = (
{
closed = 1;
nodes = (
(204,468,ls),
(204,487,o),
(191,500,o),
(172,500,cs),
(134,500,o),
(79,475,o),
(40,440,c),
(49,414,l),
(93,414,ls),
(107,414,o),
(113,408,o),
(113,392,cs),
(113,111,ls),
(113,61,o),
(105,44,o),
(71,36,cs),
(50,31,l),
(61,0,l),
(236,0,l),
(248,15,l),
(236,31,ls),
(212,64,o),
(204,96,o),
(204,156,cs),
(204,366,o),
(273,437,o),
(315,437,cs),
(334,437,o),
(348,422,o),
(348,398,cs),
(348,361,o),
(320,338,o),
(320,329,cs),
(320,321,o),
(326,318,o),
(339,318,cs),
(396,318,o),
(437,357,o),
(437,408,cs),
(437,472,o),
(395,510,o),
(340,510,cs),
(284,510,o),
(233,450,o),
(210,361,c),
(204,361,l)
);
}
);
};
hints = (
{
place = (113, 91);
place = (113, 91);
type = Stem;
},
{
place = (348, 89);
place = (348, 89);
type = Stem;
},
{
horizontal = 1;
place = (437, 63);
place = (437, 63);
type = Stem;
},
{
horizontal = 1;
place = (0, 21);
target = up;
type = BottomGhost;
},
{
horizontal = 1;
place = (510, -20);
target = down;
type = TopGhost;
}
);
layerId = UUID0;
shapes = (
{
closed = 1;
nodes = (
(236,0,l),
(248,15,l),
(236,31,ls),
(212,64,o),
(204,96,o),
(204,156,cs),
(204,366,o),
(273,437,o),
(315,437,cs),
(334,437,o),
(348,422,o),
(348,398,cs),
(348,361,o),
(320,338,o),
(320,329,cs),
(320,321,o),
(326,318,o),
(339,318,cs),
(396,318,o),
(437,357,o),
(437,408,cs),
(437,472,o),
(395,510,o),
(340,510,cs),
(284,510,o),
(233,450,o),
(210,361,c),
(204,361,l),
(204,468,ls),
(204,487,o),
(191,500,o),
(172,500,cs),
(134,500,o),
(79,475,o),
(40,440,c),
(49,414,l),
(93,414,ls),
(107,414,o),
(113,408,o),
(113,392,cs),
(113,111,ls),
(113,61,o),
(105,44,o),
(71,36,cs),
(50,31,l),
(61,0,l)
);
}
);
width = 437;
}
);
unicode = 114;
},
{
glyphname = s;
kernLeft = s;
layers = (
{
anchors = (
{
name = bottom;
pos = (261,-8);
},
{
name = top;
pos = (231,497);
}
);
background = {
shapes = (
{
closed = 1;
nodes = (
(199,35,o),
(146,60,o),
(146,121,cs),
(146,154,o),
(158,169,o),
(158,177,cs),
(158,186,o),
(147,189,o),
(137,189,cs),
(88,189,o),
(54,156,o),
(54,111,cs),
(54,34,o),
(129,-14,o),
(228,-14,cs),
(348,-14,o),
(426,45,o),
(426,136,cs),
(426,217,o),
(343,253,o),
(270,283,cs),
(209,308,o),
(153,334,o),
(153,389,cs),
(153,431,o),
(185,462,o),
(241,462,cs),
(278,462,o),
(323,442,o),
(323,389,cs),
(323,358,o),
(308,344,o),
(308,333,cs),
(308,325,o),
(314,320,o),
(329,320,cs),
(378,320,o),
(413,357,o),
(413,407,cs),
(413,471,o),
(341,510,o),
(248,510,cs),
(144,510,o),
(66,456,o),
(66,375,cs),
(66,279,o),
(153,241,o),
(226,211,cs),
(282,187,o),
(335,163,o),
(335,116,cs),
(335,68,o),
(296,35,o),
(241,35,cs)
);
}
);
};
hints = (
{
place = (54, 92);
place = (54, 92);
type = Stem;
},
{
place = (66, 80);
place = (66, 80);
type = Stem;
},
{
place = (323, 90);
place = (323, 90);
type = Stem;
},
{
place = (335, 91);
place = (335, 91);
type = Stem;
},
{
horizontal = 1;
place = (-14, 49);
place = (-14, 49);
type = Stem;
},
{
horizontal = 1;
place = (462, 48);
place = (462, 48);
type = Stem;
}
);
layerId = UUID0;
shapes = (
{
closed = 1;
nodes = (
(348,-14,o),
(426,45,o),
(426,136,cs),
(426,217,o),
(343,253,o),
(270,283,cs),
(209,308,o),
(153,334,o),
(153,389,cs),
(153,431,o),
(185,462,o),
(241,462,cs),
(278,462,o),
(323,442,o),
(323,389,cs),
(323,358,o),
(308,344,o),
(308,333,cs),
(308,325,o),
(314,320,o),
(329,320,cs),
(378,320,o),
(413,357,o),
(413,407,cs),
(413,471,o),
(341,510,o),
(248,510,cs),
(144,510,o),
(66,456,o),
(66,375,cs),
(66,279,o),
(153,241,o),
(226,211,cs),
(282,187,o),
(335,163,o),
(335,116,cs),
(335,68,o),
(296,35,o),
(241,35,cs),
(199,35,o),
(146,60,o),
(146,121,cs),
(146,154,o),
(158,169,o),
(158,177,cs),
(158,186,o),
(147,189,o),
(137,189,cs),
(88,189,o),
(54,156,o),
(54,111,cs),
(54,34,o),
(129,-14,o),
(228,-14,cs)
);
}
);
width = 481;
}
);
unicode = 115;
},
{
glyphname = scaron;
kernLeft = s;
layers = (
{
background = {
hints = (
{
place = (54, 92);
place = (54, 92);
type = Stem;
},
{
place = (66, 80);
place = (66, 80);
type = Stem;
},
{
place = (323, 90);
place = (323, 90);
type = Stem;
},
{
place = (335, 91);
place = (335, 91);
type = Stem;
},
{
horizontal = 1;
place = (-14, 49);
place = (-14, 49);
type = Stem;
},
{
horizontal = 1;
place = (462, 48);
place = (462, 48);
type = Stem;
},
{
horizontal = 1;
place = (578, 21);
target = up;
type = BottomGhost;
},
{
horizontal = 1;
place = (764, -20);
target = down;
type = TopGhost;
}
);
shapes = (
{
closed = 1;
nodes = (
(199,35,o),
(146,60,o),
(146,121,cs),
(146,154,o),
(158,169,o),
(158,177,cs),
(158,186,o),
(147,189,o),
(137,189,cs),
(88,189,o),
(54,156,o),
(54,111,cs),
(54,34,o),
(129,-14,o),
(228,-14,cs),
(348,-14,o),
(426,45,o),
(426,136,cs),
(426,217,o),
(343,253,o),
(270,283,cs),
(209,308,o),
(153,334,o),
(153,389,cs),
(153,431,o),
(185,462,o),
(241,462,cs),
(278,462,o),
(323,442,o),
(323,389,cs),
(323,358,o),
(308,344,o),
(308,333,cs),
(308,325,o),
(314,320,o),
(329,320,cs),
(378,320,o),
(413,357,o),
(413,407,cs),
(413,471,o),
(341,510,o),
(248,510,cs),
(144,510,o),
(66,456,o),
(66,375,cs),
(66,279,o),
(153,241,o),
(226,211,cs),
(282,187,o),
(335,163,o),
(335,116,cs),
(335,68,o),
(296,35,o),
(241,35,cs)
);
},
{
closed = 1;
nodes = (
(245,578,l),
(267,591,o),
(324,658,o),
(368,736,c),
(336,764,l),
(231,680,l),
(127,764,l),
(94,736,l),
(138,660,o),
(192,593,o),
(218,578,c)
);
}
);
};
layerId = UUID0;
shapes = (
{
ref = s;
},
{
pos = (44,0);
ref = caroncomb;
}
);
width = 481;
}
);
unicode = 353;
},
{
glyphname = germandbls;
layers = (
{
anchors = (
{
name = bottom;
pos = (318,0);
},
{
name = top;
pos = (318,782);
}
);
background = {
shapes = (
{
closed = 1;
nodes = (
(366,36,o),
(343,56,o),
(326,56,cs),
(315,56,o),
(311,43,o),
(311,31,cs),
(311,24,o),
(314,15,o),
(320,11,cs),
(352,-6,o),
(391,-14,o),
(435,-14,cs),
(543,-14,o),
(617,60,o),
(617,145,cs),
(617,223,o),
(560,276,o),
(490,312,cs),
(419,348,ls),
(382,367,o),
(366,391,o),
(366,424,cs),
(366,503,o),
(499,557,o),
(499,654,cs),
(499,740,o),
(433,782,o),
(350,782,cs),
(204,782,o),
(100,692,o),
(100,526,cs),
(100,133,ls),
(100,71,o),
(86,55,o),
(36,40,cs),
(13,34,l),
(25,0,l),
(244,0,l),
(257,16,l),
(244,34,ls),
(211,78,o),
(199,120,o),
(199,201,cs),
(199,542,ls),
(199,650,o),
(235,730,o),
(326,730,cs),
(366,730,o),
(408,714,o),
(408,654,cs),
(408,553,o),
(277,475,o),
(277,395,cs),
(277,336,o),
(304,308,o),
(355,276,cs),
(430,238,ls),
(491,207,o),
(529,170,o),
(529,117,cs),
(529,58,o),
(478,36,o),
(436,36,cs)
);
}
);
};
hints = (
{
place = (100, 99);
place = (100, 99);
type = Stem;
},
{
place = (277, 89);
place = (277, 89);
type = Stem;
},
{
place = (408, 91);
place = (408, 91);
type = Stem;
},
{
place = (529, 88);
place = (529, 88);
type = Stem;
},
{
horizontal = 1;
place = (-14, 50);
place = (-14, 50);
type = Stem;
},
{
horizontal = 1;
place = (730, 52);
place = (730, 52);
type = Stem;
},
{
horizontal = 1;
place = (-14, 70);
place = (-14, 70);
type = Stem;
},
{
horizontal = 1;
place = (0, 21);
target = up;
type = BottomGhost;
}
);
layerId = UUID0;
shapes = (
{
closed = 1;
nodes = (
(543,-14,o),
(617,60,o),
(617,145,cs),
(617,223,o),
(560,276,o),
(490,312,cs),
(419,348,ls),
(382,367,o),
(366,391,o),
(366,424,cs),
(366,503,o),
(499,557,o),
(499,654,cs),
(499,740,o),
(433,782,o),
(350,782,cs),
(204,782,o),
(100,692,o),
(100,526,cs),
(100,133,ls),
(100,71,o),
(86,55,o),
(36,40,cs),
(13,34,l),
(25,0,l),
(244,0,l),
(257,16,l),
(244,34,ls),
(211,78,o),
(199,120,o),
(199,201,cs),
(199,542,ls),
(199,650,o),
(235,730,o),
(326,730,cs),
(366,730,o),
(408,714,o),
(408,654,cs),
(408,553,o),
(277,475,o),
(277,395,cs),
(277,336,o),
(304,308,o),
(355,276,cs),
(430,238,ls),
(491,207,o),
(529,170,o),
(529,117,cs),
(529,58,o),
(478,36,o),
(436,36,cs),
(366,36,o),
(343,56,o),
(326,56,cs),
(315,56,o),
(311,43,o),
(311,31,cs),
(311,24,o),
(314,15,o),
(320,11,cs),
(352,-6,o),
(391,-14,o),
(435,-14,cs)
);
}
);
width = 635;
}
);
unicode = 223;
},
{
glyphname = t;
kernLeft = m;
layers = (
{
anchors = (
{
name = bottom;
pos = (171,0);
},
{
name = center;
pos = (171,249);
},
{
name = top;
pos = (171,497);
},
{
name = topright;
pos = (241,792);
}
);
background = {
shapes = (
{
closed = 1;
nodes = (
(190,632,l),
(151,632,o),
(147,629,o),
(143,608,cs),
(132,552,o),
(113,501,o),
(35,481,cs),
(14,476,o),
(11,470,o),
(11,434,c),
(99,434,l),
(99,82,ls),
(99,22,o),
(130,-14,o),
(185,-14,cs),
(228,-14,o),
(280,16,o),
(315,61,c),
(296,87,l),
(271,66,o),
(247,55,o),
(228,55,cs),
(201,55,o),
(190,71,o),
(190,112,cs),
(190,434,l),
(297,434,l),
(311,445,o),
(320,468,o),
(320,497,c),
(190,497,l)
);
}
);
};
hints = (
{
place = (99, 91);
place = (99, 91);
type = Stem;
},
{
horizontal = 1;
place = (-14, 69);
place = (-14, 69);
type = Stem;
},
{
horizontal = 1;
place = (434, 63);
place = (434, 63);
type = Stem;
},
{
horizontal = 1;
place = (632, -20);
target = down;
type = TopGhost;
}
);
layerId = UUID0;
shapes = (
{
closed = 1;
nodes = (
(228,-14,o),
(280,16,o),
(315,61,c),
(296,87,l),
(271,66,o),
(247,55,o),
(228,55,cs),
(201,55,o),
(190,71,o),
(190,112,cs),
(190,434,l),
(297,434,l),
(311,445,o),
(320,468,o),
(320,497,c),
(190,497,l),
(190,632,l),
(151,632,o),
(147,629,o),
(143,608,cs),
(132,552,o),
(113,501,o),
(35,481,cs),
(14,476,o),
(11,470,o),
(11,434,c),
(99,434,l),
(99,82,ls),
(99,22,o),
(130,-14,o),
(185,-14,cs)
);
}
);
width = 341;
}
);
unicode = 116;
},
{
glyphname = u;
kernLeft = u;
layers = (
{
anchors = (
{
name = bottom;
pos = (316,0);
},
{
name = ogonek;
pos = (569,10);
},
{
name = top;
pos = (308,497);
},
{
name = topright;
pos = (612,497);
}
);
background = {
shapes = (
{
closed = 1;
nodes = (
(515,510,l),
(393,497,l),
(381,482,l),
(393,466,ls),
(423,415,o),
(432,369,o),
(432,271,cs),
(432,135,o),
(379,53,o),
(290,53,cs),
(227,53,o),
(194,95,o),
(194,175,cs),
(194,478,ls),
(194,497,o),
(181,510,o),
(162,510,cs),
(121,510,o),
(65,485,o),
(30,450,c),
(39,424,l),
(83,424,ls),
(96,424,o),
(103,418,o),
(103,402,cs),
(103,152,ls),
(103,47,o),
(160,-14,o),
(256,-14,cs),
(330,-14,o),
(395,23,o),
(425,82,c),
(425,16,o),
(449,-14,o),
(502,-14,cs),
(537,-14,o),
(581,11,o),
(612,49,c),
(593,75,l),
(577,64,o),
(559,57,o),
(544,57,cs),
(525,57,o),
(515,67,o),
(515,88,cs)
);
}
);
};
hints = (
{
place = (103, 91);
place = (103, 91);
type = Stem;
},
{
place = (432, 83);
place = (432, 83);
type = Stem;
},
{
horizontal = 1;
place = (-14, 67);
place = (-14, 67);
type = Stem;
},
{
horizontal = 1;
place = (510, -20);
target = down;
type = TopGhost;
}
);
layerId = UUID0;
shapes = (
{
closed = 1;
nodes = (
(330,-14,o),
(395,23,o),
(425,82,c),
(425,16,o),
(449,-14,o),
(502,-14,cs),
(537,-14,o),
(581,11,o),
(612,49,c),
(593,75,l),
(577,64,o),
(559,57,o),
(544,57,cs),
(525,57,o),
(515,67,o),
(515,88,cs),
(515,510,l),
(393,497,l),
(381,482,l),
(393,466,ls),
(429,419,o),
(432,369,o),
(432,271,cs),
(432,135,o),
(379,53,o),
(290,53,cs),
(227,53,o),
(194,95,o),
(194,175,cs),
(194,478,ls),
(194,497,o),
(181,510,o),
(162,510,cs),
(121,510,o),
(65,485,o),
(30,450,c),
(39,424,l),
(83,424,ls),
(96,424,o),
(103,418,o),
(103,402,cs),
(103,152,ls),
(103,47,o),
(160,-14,o),
(256,-14,cs)
);
}
);
width = 632;
}
);
unicode = 117;
},
{
glyphname = uacute;
kernLeft = u;
layers = (
{
background = {
hints = (
{
place = (103, 91);
place = (103, 91);
type = Stem;
},
{
place = (432, 83);
place = (432, 83);
type = Stem;
},
{
horizontal = 1;
place = (-14, 67);
place = (-14, 67);
type = Stem;
},
{
horizontal = 1;
place = (510, -20);
target = down;
type = TopGhost;
},
{
horizontal = 1;
place = (569, 21);
target = up;
type = BottomGhost;
},
{
horizontal = 1;
place = (760, -20);
target = down;
type = TopGhost;
}
);
shapes = (
{
closed = 1;
nodes = (
(515,510,l),
(393,497,l),
(381,482,l),
(393,466,ls),
(423,415,o),
(432,369,o),
(432,271,cs),
(432,135,o),
(379,53,o),
(290,53,cs),
(227,53,o),
(194,95,o),
(194,175,cs),
(194,478,ls),
(194,497,o),
(181,510,o),
(162,510,cs),
(121,510,o),
(65,485,o),
(30,450,c),
(39,424,l),
(83,424,ls),
(96,424,o),
(103,418,o),
(103,402,cs),
(103,152,ls),
(103,47,o),
(160,-14,o),
(256,-14,cs),
(330,-14,o),
(395,23,o),
(425,82,c),
(425,16,o),
(449,-14,o),
(502,-14,cs),
(537,-14,o),
(581,11,o),
(612,49,c),
(593,75,l),
(577,64,o),
(559,57,o),
(544,57,cs),
(525,57,o),
(515,67,o),
(515,88,cs)
);
},
{
closed = 1;
nodes = (
(236,604,l),
(265,569,l),
(378,625,ls),
(419,645,o),
(434,668,o),
(434,697,cs),
(434,726,o),
(417,748,o),
(392,760,c)
);
}
);
};
layerId = UUID0;
shapes = (
{
ref = u;
},
{
pos = (146,0);
ref = acutecomb;
}
);
width = 632;
}
);
unicode = 250;
},
{
glyphname = ucircumflex;
kernLeft = u;
layers = (
{
background = {
hints = (
{
place = (103, 91);
place = (103, 91);
type = Stem;
},
{
place = (432, 83);
place = (432, 83);
type = Stem;
},
{
horizontal = 1;
place = (-14, 67);
place = (-14, 67);
type = Stem;
},
{
horizontal = 1;
place = (510, -20);
target = down;
type = TopGhost;
},
{
horizontal = 1;
place = (755, -20);
target = down;
type = TopGhost;
},
{
horizontal = 1;
place = (569, 21);
target = up;
type = BottomGhost;
}
);
shapes = (
{
closed = 1;
nodes = (
(515,510,l),
(393,497,l),
(381,482,l),
(393,466,ls),
(423,415,o),
(432,369,o),
(432,271,cs),
(432,135,o),
(379,53,o),
(290,53,cs),
(227,53,o),
(194,95,o),
(194,175,cs),
(194,478,ls),
(194,497,o),
(181,510,o),
(162,510,cs),
(121,510,o),
(65,485,o),
(30,450,c),
(39,424,l),
(83,424,ls),
(96,424,o),
(103,418,o),
(103,402,cs),
(103,152,ls),
(103,47,o),
(160,-14,o),
(256,-14,cs),
(330,-14,o),
(395,23,o),
(425,82,c),
(425,16,o),
(449,-14,o),
(502,-14,cs),
(537,-14,o),
(581,11,o),
(612,49,c),
(593,75,l),
(577,64,o),
(559,57,o),
(544,57,cs),
(525,57,o),
(515,67,o),
(515,88,cs)
);
},
{
closed = 1;
nodes = (
(294,755,l),
(268,740,o),
(214,673,o),
(170,597,c),
(203,569,l),
(307,652,l),
(412,569,l),
(444,597,l),
(400,675,o),
(343,742,o),
(321,755,c)
);
}
);
};
layerId = UUID0;
shapes = (
{
ref = u;
},
{
pos = (121,0);
ref = circumflexcomb;
}
);
width = 632;
}
);
unicode = 251;
},
{
glyphname = udieresis;
kernLeft = u;
layers = (
{
background = {
hints = (
{
place = (103, 91);
place = (103, 91);
type = Stem;
},
{
place = (432, 83);
place = (432, 83);
type = Stem;
},
{
horizontal = 1;
place = (-14, 67);
place = (-14, 67);
type = Stem;
},
{
horizontal = 1;
place = (510, -20);
target = down;
type = TopGhost;
},
{
horizontal = 1;
place = (593, 21);
target = up;
type = BottomGhost;
},
{
horizontal = 1;
place = (724, -20);
target = down;
type = TopGhost;
}
);
shapes = (
{
closed = 1;
nodes = (
(515,510,l),
(393,497,l),
(381,482,l),
(393,466,ls),
(423,415,o),
(432,369,o),
(432,271,cs),
(432,135,o),
(379,53,o),
(290,53,cs),
(227,53,o),
(194,95,o),
(194,175,cs),
(194,478,ls),
(194,497,o),
(181,510,o),
(162,510,cs),
(121,510,o),
(65,485,o),
(30,450,c),
(39,424,l),
(83,424,ls),
(96,424,o),
(103,418,o),
(103,402,cs),
(103,152,ls),
(103,47,o),
(160,-14,o),
(256,-14,cs),
(330,-14,o),
(395,23,o),
(425,82,c),
(425,16,o),
(449,-14,o),
(502,-14,cs),
(537,-14,o),
(581,11,o),
(612,49,c),
(593,75,l),
(577,64,o),
(559,57,o),
(544,57,cs),
(525,57,o),
(515,67,o),
(515,88,cs)
);
},
{
closed = 1;
nodes = (
(150,632,o),
(188,593,o),
(211,593,cs),
(236,593,o),
(274,632,o),
(274,658,cs),
(274,684,o),
(236,724,o),
(211,724,cs),
(187,724,o),
(150,684,o),
(150,658,cs)
);
},
{
closed = 1;
nodes = (
(339,632,o),
(377,593,o),
(400,593,cs),
(425,593,o),
(463,632,o),
(463,658,cs),
(463,684,o),
(425,724,o),
(400,724,cs),
(376,724,o),
(339,684,o),
(339,658,cs)
);
}
);
};
layerId = UUID0;
shapes = (
{
ref = u;
},
{
pos = (97,0);
ref = dieresiscomb;
}
);
width = 632;
}
);
unicode = 252;
},
{
glyphname = ugrave;
kernLeft = u;
layers = (
{
background = {
hints = (
{
place = (103, 91);
place = (103, 91);
type = Stem;
},
{
place = (432, 83);
place = (432, 83);
type = Stem;
},
{
horizontal = 1;
place = (-14, 67);
place = (-14, 67);
type = Stem;
},
{
horizontal = 1;
place = (510, -20);
target = down;
type = TopGhost;
},
{
horizontal = 1;
place = (760, -20);
target = down;
type = TopGhost;
},
{
horizontal = 1;
place = (569, 21);
target = up;
type = BottomGhost;
}
);
shapes = (
{
closed = 1;
nodes = (
(515,510,l),
(393,497,l),
(381,482,l),
(393,466,ls),
(423,415,o),
(432,369,o),
(432,271,cs),
(432,135,o),
(379,53,o),
(290,53,cs),
(227,53,o),
(194,95,o),
(194,175,cs),
(194,478,ls),
(194,497,o),
(181,510,o),
(162,510,cs),
(121,510,o),
(65,485,o),
(30,450,c),
(39,424,l),
(83,424,ls),
(96,424,o),
(103,418,o),
(103,402,cs),
(103,152,ls),
(103,47,o),
(160,-14,o),
(256,-14,cs),
(330,-14,o),
(395,23,o),
(425,82,c),
(425,16,o),
(449,-14,o),
(502,-14,cs),
(537,-14,o),
(581,11,o),
(612,49,c),
(593,75,l),
(577,64,o),
(559,57,o),
(544,57,cs),
(525,57,o),
(515,67,o),
(515,88,cs)
);
},
{
closed = 1;
nodes = (
(241,760,l),
(216,748,o),
(199,726,o),
(199,697,cs),
(199,668,o),
(214,645,o),
(255,625,cs),
(368,569,l),
(397,604,l)
);
}
);
};
layerId = UUID0;
shapes = (
{
ref = u;
},
{
pos = (155,0);
ref = gravecomb;
}
);
width = 632;
}
);
unicode = 249;
},
{
glyphname = v;
kernLeft = v;
layers = (
{
anchors = (
{
name = bottom;
pos = (277,0);
},
{
name = top;
pos = (277,497);
}
);
background = {
shapes = (
{
closed = 1;
nodes = (
(235,51,o),
(215,84,o),
(203,166,cs),
(158,478,ls),
(155,498,o),
(144,510,o),
(126,510,cs),
(89,510,o),
(35,484,o),
(0,450,c),
(9,424,l),
(53,424,ls),
(66,424,o),
(70,419,o),
(73,402,cs),
(104,190,ls),
(126,38,o),
(166,-14,o),
(268,-14,cs),
(383,-14,o),
(488,128,o),
(488,404,cs),
(488,437,o),
(486,473,o),
(483,510,c),
(364,496,l),
(352,483,l),
(362,467,ls),
(392,419,o),
(406,356,o),
(406,294,cs),
(406,171,o),
(367,51,o),
(279,51,cs)
);
}
);
};
hints = (
{
place = (406, 82);
place = (406, 82);
type = Stem;
},
{
horizontal = 1;
place = (-14, 65);
place = (-14, 65);
type = Stem;
},
{
horizontal = 1;
place = (510, -20);
target = down;
type = TopGhost;
}
);
layerId = UUID0;
shapes = (
{
closed = 1;
nodes = (
(383,-14,o),
(488,128,o),
(488,404,cs),
(488,437,o),
(486,473,o),
(483,510,c),
(364,496,l),
(352,483,l),
(362,467,ls),
(392,419,o),
(406,356,o),
(406,294,cs),
(406,171,o),
(367,51,o),
(279,51,cs),
(235,51,o),
(215,84,o),
(203,166,cs),
(158,478,ls),
(155,498,o),
(144,510,o),
(126,510,cs),
(89,510,o),
(35,484,o),
(0,450,c),
(9,424,l),
(53,424,ls),
(66,424,o),
(70,419,o),
(73,402,cs),
(104,190,ls),
(126,38,o),
(166,-14,o),
(268,-14,cs)
);
}
);
width = 553;
}
);
unicode = 118;
},
{
glyphname = w;
kernLeft = v;
layers = (
{
anchors = (
{
name = bottom;
pos = (407,0);
},
{
name = top;
pos = (407,497);
}
);
background = {
shapes = (
{
closed = 1;
nodes = (
(235,51,o),
(215,84,o),
(203,166,cs),
(158,478,ls),
(155,498,o),
(144,510,o),
(126,510,cs),
(89,510,o),
(35,484,o),
(0,450,c),
(9,424,l),
(53,424,ls),
(66,424,o),
(70,419,o),
(73,402,cs),
(104,190,ls),
(126,38,o),
(166,-14,o),
(268,-14,cs),
(325,-14,o),
(379,28,o),
(416,112,c),
(440,20,o),
(480,-14,o),
(557,-14,cs),
(659,-14,o),
(753,128,o),
(753,404,cs),
(753,437,o),
(751,473,o),
(748,510,c),
(631,497,l),
(619,484,l),
(629,468,ls),
(659,420,o),
(673,357,o),
(673,295,cs),
(673,172,o),
(631,51,o),
(564,51,cs),
(517,51,o),
(496,84,o),
(484,166,cs),
(463,306,l),
(466,337,o),
(468,369,o),
(468,404,cs),
(468,437,o),
(466,473,o),
(463,510,c),
(346,497,l),
(334,484,l),
(344,468,ls),
(374,420,o),
(388,357,o),
(388,295,cs),
(388,172,o),
(346,51,o),
(279,51,cs)
);
}
);
};
hints = (
{
place = (388, 80);
place = (388, 80);
type = Stem;
},
{
place = (673, 80);
place = (673, 80);
type = Stem;
},
{
horizontal = 1;
place = (-14, 65);
place = (-14, 65);
type = Stem;
},
{
horizontal = 1;
place = (510, -20);
target = down;
type = TopGhost;
}
);
layerId = UUID0;
shapes = (
{
closed = 1;
nodes = (
(325,-14,o),
(379,28,o),
(416,112,c),
(440,20,o),
(480,-14,o),
(557,-14,cs),
(659,-14,o),
(753,128,o),
(753,404,cs),
(753,437,o),
(751,473,o),
(748,510,c),
(631,497,l),
(619,484,l),
(629,468,ls),
(659,420,o),
(673,357,o),
(673,295,cs),
(673,172,o),
(631,51,o),
(564,51,cs),
(517,51,o),
(496,84,o),
(484,166,cs),
(463,306,l),
(466,337,o),
(468,369,o),
(468,404,cs),
(468,437,o),
(466,473,o),
(463,510,c),
(346,497,l),
(334,484,l),
(344,468,ls),
(374,420,o),
(388,357,o),
(388,295,cs),
(388,172,o),
(346,51,o),
(279,51,cs),
(235,51,o),
(215,84,o),
(203,166,cs),
(158,478,ls),
(155,498,o),
(144,510,o),
(126,510,cs),
(89,510,o),
(35,484,o),
(0,450,c),
(9,424,l),
(53,424,ls),
(66,424,o),
(70,419,o),
(73,402,cs),
(104,190,ls),
(126,38,o),
(166,-14,o),
(268,-14,cs)
);
}
);
width = 813;
}
);
unicode = 119;
},
